G04 #@! TF.GenerationSoftware,KiCad,Pcbnew,(5.1.6)-1*
G04 #@! TF.CreationDate,2020-08-23T14:34:22+05:30*
G04 #@! TF.ProjectId,PCB board,50434220-626f-4617-9264-2e6b69636164,rev?*
G04 #@! TF.SameCoordinates,Original*
G04 #@! TF.FileFunction,Copper,L2,Bot*
G04 #@! TF.FilePolarity,Positive*
%FSLAX46Y46*%
G04 Gerber Fmt 4.6, Leading zero omitted, Abs format (unit mm)*
G04 Created by KiCad (PCBNEW (5.1.6)-1) date 2020-08-23 14:34:22*
%MOMM*%
%LPD*%
G01*
G04 APERTURE LIST*
G04 #@! TA.AperFunction,ComponentPad*
%ADD10R,2.100000X2.100000*%
G04 #@! TD*
G04 #@! TA.AperFunction,ComponentPad*
%ADD11C,2.100000*%
G04 #@! TD*
G04 #@! TA.AperFunction,ComponentPad*
%ADD12O,1.524000X2.197100*%
G04 #@! TD*
G04 #@! TA.AperFunction,ComponentPad*
%ADD13O,1.998980X1.539240*%
G04 #@! TD*
G04 #@! TA.AperFunction,ComponentPad*
%ADD14O,1.998980X1.536700*%
G04 #@! TD*
G04 #@! TA.AperFunction,ComponentPad*
%ADD15O,1.524000X2.199640*%
G04 #@! TD*
G04 #@! TA.AperFunction,Conductor*
%ADD16C,1.000000*%
G04 #@! TD*
G04 #@! TA.AperFunction,Conductor*
%ADD17C,0.500000*%
G04 #@! TD*
G04 #@! TA.AperFunction,Conductor*
%ADD18C,0.250000*%
G04 #@! TD*
G04 APERTURE END LIST*
D10*
X149860000Y-58420000D03*
D11*
X149860000Y-60960000D03*
X149860000Y-63500000D03*
D12*
X115376001Y-71310501D03*
X117916001Y-71310501D03*
X120456001Y-71310501D03*
X122996001Y-71310501D03*
X125536001Y-71310501D03*
X128076001Y-71310501D03*
X130616001Y-71310501D03*
X133156001Y-71310501D03*
X135696001Y-71310501D03*
X138236001Y-71310501D03*
X142300001Y-71310501D03*
X144840001Y-71310501D03*
X147380001Y-71310501D03*
X149920001Y-71310501D03*
X152460001Y-71310501D03*
X155000001Y-71310501D03*
X157540001Y-71310501D03*
X160080001Y-71310501D03*
X165160001Y-71310501D03*
X167700001Y-71310501D03*
X170240001Y-71310501D03*
X172780001Y-71310501D03*
X175320001Y-71310501D03*
X177860001Y-71310501D03*
X180400001Y-71310501D03*
X182940001Y-71310501D03*
D13*
X190311081Y-86550501D03*
X190311081Y-89090501D03*
X190311081Y-91630501D03*
X190311081Y-94170501D03*
X190311081Y-96710501D03*
X190311081Y-99250501D03*
X190311081Y-101790501D03*
X190311081Y-104330501D03*
D14*
X193346381Y-111950501D03*
X193346381Y-114490501D03*
D13*
X190311081Y-71310501D03*
X190311081Y-73850501D03*
X190311081Y-76390501D03*
X190311081Y-78930501D03*
X190311081Y-81470501D03*
X190311081Y-84010501D03*
D14*
X193346381Y-91630501D03*
X193346381Y-94170501D03*
X193346381Y-96710501D03*
X193346381Y-99250501D03*
X193346381Y-101790501D03*
X193346381Y-104330501D03*
X193346381Y-106870501D03*
X193346381Y-109410501D03*
D12*
X185480001Y-119570501D03*
X182940001Y-119570501D03*
X180400001Y-119570501D03*
X177860001Y-119570501D03*
D15*
X175320001Y-119570501D03*
X172780001Y-119570501D03*
X170240001Y-119570501D03*
X165160001Y-119570501D03*
X129600001Y-119570501D03*
X127060001Y-119570501D03*
X124520001Y-119570501D03*
X139760001Y-119570501D03*
X137220001Y-119570501D03*
X134680001Y-119570501D03*
X132140001Y-119570501D03*
X162620001Y-119570501D03*
X160080001Y-119570501D03*
X157540001Y-119570501D03*
X155000001Y-119570501D03*
X152460001Y-119570501D03*
X149920001Y-119570501D03*
X147380001Y-119570501D03*
X142300001Y-119570501D03*
D14*
X193346381Y-71310501D03*
X193346381Y-73850501D03*
X193346381Y-76390501D03*
X193346381Y-78930501D03*
X193346381Y-81470501D03*
X193346381Y-84010501D03*
X193346381Y-86550501D03*
X193346381Y-89090501D03*
D13*
X190311081Y-106870501D03*
X190311081Y-109410501D03*
X190311081Y-111950501D03*
X190311081Y-114490501D03*
D12*
X188020001Y-119570501D03*
D10*
X205740000Y-72390000D03*
D11*
X205740000Y-69850000D03*
X205740000Y-67310000D03*
X205740000Y-77470000D03*
X205740000Y-80010000D03*
D10*
X205740000Y-82550000D03*
D11*
X139700000Y-63500000D03*
X139700000Y-60960000D03*
D10*
X139700000Y-58420000D03*
X101600000Y-58420000D03*
D11*
X101600000Y-60960000D03*
D10*
X205740000Y-95250000D03*
D11*
X205740000Y-92710000D03*
X205740000Y-90170000D03*
X205740000Y-87630000D03*
X128270000Y-63500000D03*
X128270000Y-60960000D03*
D10*
X128270000Y-58420000D03*
X171450000Y-58420000D03*
D11*
X171450000Y-60960000D03*
X171450000Y-63500000D03*
X180340000Y-63500000D03*
X180340000Y-60960000D03*
D10*
X180340000Y-58420000D03*
X162560000Y-58420000D03*
D11*
X162560000Y-60960000D03*
X162560000Y-63500000D03*
D10*
X111760000Y-58420000D03*
D11*
X111760000Y-60960000D03*
D16*
X180340000Y-58420000D02*
X171450000Y-58420000D01*
X171450000Y-58420000D02*
X162560000Y-58420000D01*
X162560000Y-58420000D02*
X149860000Y-58420000D01*
X149860000Y-58420000D02*
X139700000Y-58420000D01*
X139700000Y-58420000D02*
X128270000Y-58420000D01*
X139760001Y-110623517D02*
X139760001Y-119570501D01*
X96520000Y-66040000D02*
X139760001Y-110623517D01*
X96520000Y-60960000D02*
X96520000Y-66040000D01*
X101600000Y-58420000D02*
X99060000Y-58420000D01*
X99060000Y-58420000D02*
X96520000Y-60960000D01*
X101600000Y-58420000D02*
X111760000Y-58420000D01*
X111760000Y-58420000D02*
X128270000Y-58420000D01*
X149860000Y-60960000D02*
X139700000Y-60960000D01*
X139700000Y-60960000D02*
X128270000Y-60960000D01*
X142240000Y-109220000D02*
X142300001Y-119570501D01*
X101600000Y-60960000D02*
X101600000Y-67310000D01*
X101600000Y-67310000D02*
X142240000Y-109220000D01*
X101600000Y-60960000D02*
X111760000Y-60960000D01*
X111760000Y-60960000D02*
X128270000Y-60960000D01*
D17*
X128270000Y-71116502D02*
X128076001Y-71310501D01*
X128270000Y-63500000D02*
X128270000Y-71116502D01*
X205740000Y-95250000D02*
X200660000Y-95250000D01*
X197040501Y-91630501D02*
X193100001Y-91630501D01*
X200660000Y-95250000D02*
X197040501Y-91630501D01*
X205740000Y-87630000D02*
X200660000Y-87630000D01*
X197040501Y-84010501D02*
X193100001Y-84010501D01*
X200660000Y-87630000D02*
X197040501Y-84010501D01*
X205740000Y-90170000D02*
X200660000Y-90170000D01*
X197040501Y-86550501D02*
X193100001Y-86550501D01*
X200660000Y-90170000D02*
X197040501Y-86550501D01*
X205740000Y-92710000D02*
X200660000Y-92710000D01*
X197040501Y-89090501D02*
X193100001Y-89090501D01*
X200660000Y-92710000D02*
X197040501Y-89090501D01*
D18*
X185420000Y-62230000D02*
X185420000Y-62375002D01*
D17*
X180340000Y-60960000D02*
X175260000Y-66040000D01*
X175320001Y-66100001D02*
X175320001Y-71310501D01*
X175260000Y-66040000D02*
X175320001Y-66100001D01*
X160020000Y-66170500D02*
X165160001Y-71310501D01*
X162560000Y-60960000D02*
X160020000Y-60960000D01*
X160020000Y-60960000D02*
X160020000Y-66170500D01*
X170240001Y-68640001D02*
X170240001Y-71310501D01*
X167640000Y-66040000D02*
X170240001Y-68640001D01*
X167640000Y-62230000D02*
X167640000Y-66040000D01*
X171450000Y-60960000D02*
X168910000Y-60960000D01*
X168910000Y-60960000D02*
X167640000Y-62230000D01*
X180340000Y-63500000D02*
X180340000Y-66040000D01*
X177860001Y-68519999D02*
X177860001Y-71310501D01*
X180340000Y-66040000D02*
X177860001Y-68519999D01*
X171450000Y-63500000D02*
X171450000Y-67310000D01*
X172780001Y-68640001D02*
X172780001Y-71310501D01*
X171450000Y-67310000D02*
X172780001Y-68640001D01*
X167700001Y-71310501D02*
X167700001Y-68640001D01*
X167700001Y-68640001D02*
X162560000Y-63500000D01*
X147380001Y-81280000D02*
X147380001Y-71310501D01*
X144780000Y-83820000D02*
X147380001Y-81280000D01*
X144780000Y-123190000D02*
X144780000Y-83820000D01*
X212090000Y-72390000D02*
X212090000Y-113030000D01*
X205740000Y-72390000D02*
X212090000Y-72390000D01*
X212090000Y-113030000D02*
X195580000Y-127000000D01*
X195580000Y-127000000D02*
X148590000Y-127000000D01*
X148590000Y-127000000D02*
X144780000Y-123190000D01*
X195389499Y-76390501D02*
X193100001Y-76390501D01*
X205740000Y-69850000D02*
X201930000Y-69850000D01*
X201930000Y-69850000D02*
X195389499Y-76390501D01*
X205740000Y-67310000D02*
X201930000Y-67310000D01*
X195389499Y-73850501D02*
X193100001Y-73850501D01*
X201930000Y-67310000D02*
X195389499Y-73850501D01*
X155000001Y-67310000D02*
X155000001Y-71310501D01*
X149860000Y-63500000D02*
X151130000Y-63500000D01*
X151130000Y-63500000D02*
X155000001Y-67310000D01*
X205740000Y-77470000D02*
X199390000Y-77470000D01*
X197929499Y-78930501D02*
X193100001Y-78930501D01*
X199390000Y-77470000D02*
X197929499Y-78930501D01*
X199199499Y-81470501D02*
X193100001Y-81470501D01*
X205740000Y-80010000D02*
X200660000Y-80010000D01*
X200660000Y-80010000D02*
X199199499Y-81470501D01*
X149920001Y-81340001D02*
X149920001Y-71310501D01*
X167640000Y-99060000D02*
X149920001Y-81340001D01*
X209550000Y-82550000D02*
X209550000Y-112799999D01*
X205740000Y-82550000D02*
X209550000Y-82550000D01*
X209550000Y-112799999D02*
X195580000Y-124460000D01*
X195580000Y-124460000D02*
X170180000Y-124460000D01*
X167640000Y-121920000D02*
X167640000Y-99060000D01*
X170180000Y-124460000D02*
X167640000Y-121920000D01*
X152460001Y-71310501D02*
X152460001Y-68640001D01*
X152460001Y-68640001D02*
X149860000Y-66040000D01*
X142240000Y-66040000D02*
X139700000Y-63500000D01*
X149860000Y-66040000D02*
X142240000Y-66040000D01*
M02*
