%TF.GenerationSoftware,KiCad,Pcbnew,(5.1.6)-1*%
%TF.CreationDate,2021-06-18T09:44:19+05:30*%
%TF.ProjectId,PCB LoRa 32,50434220-4c6f-4526-9120-33322e6b6963,rev?*%
%TF.SameCoordinates,Original*%
%TF.FileFunction,Legend,Bot*%
%TF.FilePolarity,Positive*%
%FSLAX46Y46*%
G04 Gerber Fmt 4.6, Leading zero omitted, Abs format (unit mm)*
G04 Created by KiCad (PCBNEW (5.1.6)-1) date 2021-06-18 09:44:19*
%MOMM*%
%LPD*%
G01*
G04 APERTURE LIST*
%ADD10C,0.120000*%
%ADD11C,0.150000*%
%ADD12C,0.300000*%
%ADD13C,0.200000*%
%ADD14C,0.010000*%
G04 APERTURE END LIST*
D10*
X187325000Y-82550000D02*
X180340000Y-82550000D01*
X189230000Y-80645000D02*
X187325000Y-82550000D01*
D11*
X138342619Y-72477380D02*
X138152142Y-72477380D01*
X138056904Y-72525000D01*
X137961666Y-72620238D01*
X137914047Y-72810714D01*
X137914047Y-73144047D01*
X137961666Y-73334523D01*
X138056904Y-73429761D01*
X138152142Y-73477380D01*
X138342619Y-73477380D01*
X138437857Y-73429761D01*
X138533095Y-73334523D01*
X138580714Y-73144047D01*
X138580714Y-72810714D01*
X138533095Y-72620238D01*
X138437857Y-72525000D01*
X138342619Y-72477380D01*
X137485476Y-72810714D02*
X137485476Y-73477380D01*
X137485476Y-72905952D02*
X137437857Y-72858333D01*
X137342619Y-72810714D01*
X137199761Y-72810714D01*
X137104523Y-72858333D01*
X137056904Y-72953571D01*
X137056904Y-73477380D01*
X138342619Y-81367380D02*
X138152142Y-81367380D01*
X138056904Y-81415000D01*
X137961666Y-81510238D01*
X137914047Y-81700714D01*
X137914047Y-82034047D01*
X137961666Y-82224523D01*
X138056904Y-82319761D01*
X138152142Y-82367380D01*
X138342619Y-82367380D01*
X138437857Y-82319761D01*
X138533095Y-82224523D01*
X138580714Y-82034047D01*
X138580714Y-81700714D01*
X138533095Y-81510238D01*
X138437857Y-81415000D01*
X138342619Y-81367380D01*
X137485476Y-81700714D02*
X137485476Y-82367380D01*
X137485476Y-81795952D02*
X137437857Y-81748333D01*
X137342619Y-81700714D01*
X137199761Y-81700714D01*
X137104523Y-81748333D01*
X137056904Y-81843571D01*
X137056904Y-82367380D01*
X146081666Y-81367380D02*
X145891190Y-81367380D01*
X145795952Y-81415000D01*
X145700714Y-81510238D01*
X145653095Y-81700714D01*
X145653095Y-82034047D01*
X145700714Y-82224523D01*
X145795952Y-82319761D01*
X145891190Y-82367380D01*
X146081666Y-82367380D01*
X146176904Y-82319761D01*
X146272142Y-82224523D01*
X146319761Y-82034047D01*
X146319761Y-81700714D01*
X146272142Y-81510238D01*
X146176904Y-81415000D01*
X146081666Y-81367380D01*
X145367380Y-81700714D02*
X144986428Y-81700714D01*
X145224523Y-82367380D02*
X145224523Y-81510238D01*
X145176904Y-81415000D01*
X145081666Y-81367380D01*
X144986428Y-81367380D01*
X144795952Y-81700714D02*
X144415000Y-81700714D01*
X144653095Y-82367380D02*
X144653095Y-81510238D01*
X144605476Y-81415000D01*
X144510238Y-81367380D01*
X144415000Y-81367380D01*
X143319333Y-77874761D02*
X143176476Y-77922380D01*
X142938380Y-77922380D01*
X142843142Y-77874761D01*
X142795523Y-77827142D01*
X142747904Y-77731904D01*
X142747904Y-77636666D01*
X142795523Y-77541428D01*
X142843142Y-77493809D01*
X142938380Y-77446190D01*
X143128857Y-77398571D01*
X143224095Y-77350952D01*
X143271714Y-77303333D01*
X143319333Y-77208095D01*
X143319333Y-77112857D01*
X143271714Y-77017619D01*
X143224095Y-76970000D01*
X143128857Y-76922380D01*
X142890761Y-76922380D01*
X142747904Y-76970000D01*
X142414571Y-76922380D02*
X142176476Y-77922380D01*
X141986000Y-77208095D01*
X141795523Y-77922380D01*
X141557428Y-76922380D01*
X141271714Y-76922380D02*
X140652666Y-76922380D01*
X140986000Y-77303333D01*
X140843142Y-77303333D01*
X140747904Y-77350952D01*
X140700285Y-77398571D01*
X140652666Y-77493809D01*
X140652666Y-77731904D01*
X140700285Y-77827142D01*
X140747904Y-77874761D01*
X140843142Y-77922380D01*
X141128857Y-77922380D01*
X141224095Y-77874761D01*
X141271714Y-77827142D01*
D10*
X136525000Y-81280000D02*
X136525000Y-73660000D01*
X146685000Y-81280000D02*
X136525000Y-81280000D01*
X146685000Y-73660000D02*
X146685000Y-81280000D01*
X136525000Y-73660000D02*
X146685000Y-73660000D01*
D11*
X133580714Y-74612857D02*
X134580714Y-74612857D01*
X133628333Y-74612857D02*
X133580714Y-74708095D01*
X133580714Y-74898571D01*
X133628333Y-74993809D01*
X133675952Y-75041428D01*
X133771190Y-75089047D01*
X134056904Y-75089047D01*
X134152142Y-75041428D01*
X134199761Y-74993809D01*
X134247380Y-74898571D01*
X134247380Y-74708095D01*
X134199761Y-74612857D01*
X134247380Y-75517619D02*
X133580714Y-75517619D01*
X133771190Y-75517619D02*
X133675952Y-75565238D01*
X133628333Y-75612857D01*
X133580714Y-75708095D01*
X133580714Y-75803333D01*
X134247380Y-76279523D02*
X134199761Y-76184285D01*
X134152142Y-76136666D01*
X134056904Y-76089047D01*
X133771190Y-76089047D01*
X133675952Y-76136666D01*
X133628333Y-76184285D01*
X133580714Y-76279523D01*
X133580714Y-76422380D01*
X133628333Y-76517619D01*
X133675952Y-76565238D01*
X133771190Y-76612857D01*
X134056904Y-76612857D01*
X134152142Y-76565238D01*
X134199761Y-76517619D01*
X134247380Y-76422380D01*
X134247380Y-76279523D01*
X133580714Y-77470000D02*
X134390238Y-77470000D01*
X134485476Y-77422380D01*
X134533095Y-77374761D01*
X134580714Y-77279523D01*
X134580714Y-77136666D01*
X134533095Y-77041428D01*
X134199761Y-77470000D02*
X134247380Y-77374761D01*
X134247380Y-77184285D01*
X134199761Y-77089047D01*
X134152142Y-77041428D01*
X134056904Y-76993809D01*
X133771190Y-76993809D01*
X133675952Y-77041428D01*
X133628333Y-77089047D01*
X133580714Y-77184285D01*
X133580714Y-77374761D01*
X133628333Y-77470000D01*
X134247380Y-77946190D02*
X133580714Y-77946190D01*
X133771190Y-77946190D02*
X133675952Y-77993809D01*
X133628333Y-78041428D01*
X133580714Y-78136666D01*
X133580714Y-78231904D01*
X134247380Y-78993809D02*
X133723571Y-78993809D01*
X133628333Y-78946190D01*
X133580714Y-78850952D01*
X133580714Y-78660476D01*
X133628333Y-78565238D01*
X134199761Y-78993809D02*
X134247380Y-78898571D01*
X134247380Y-78660476D01*
X134199761Y-78565238D01*
X134104523Y-78517619D01*
X134009285Y-78517619D01*
X133914047Y-78565238D01*
X133866428Y-78660476D01*
X133866428Y-78898571D01*
X133818809Y-78993809D01*
X134247380Y-79470000D02*
X133580714Y-79470000D01*
X133675952Y-79470000D02*
X133628333Y-79517619D01*
X133580714Y-79612857D01*
X133580714Y-79755714D01*
X133628333Y-79850952D01*
X133723571Y-79898571D01*
X134247380Y-79898571D01*
X133723571Y-79898571D02*
X133628333Y-79946190D01*
X133580714Y-80041428D01*
X133580714Y-80184285D01*
X133628333Y-80279523D01*
X133723571Y-80327142D01*
X134247380Y-80327142D01*
X135897380Y-75708095D02*
X135230714Y-75708095D01*
X135325952Y-75708095D02*
X135278333Y-75755714D01*
X135230714Y-75850952D01*
X135230714Y-75993809D01*
X135278333Y-76089047D01*
X135373571Y-76136666D01*
X135897380Y-76136666D01*
X135373571Y-76136666D02*
X135278333Y-76184285D01*
X135230714Y-76279523D01*
X135230714Y-76422380D01*
X135278333Y-76517619D01*
X135373571Y-76565238D01*
X135897380Y-76565238D01*
X135897380Y-77184285D02*
X135849761Y-77089047D01*
X135802142Y-77041428D01*
X135706904Y-76993809D01*
X135421190Y-76993809D01*
X135325952Y-77041428D01*
X135278333Y-77089047D01*
X135230714Y-77184285D01*
X135230714Y-77327142D01*
X135278333Y-77422380D01*
X135325952Y-77470000D01*
X135421190Y-77517619D01*
X135706904Y-77517619D01*
X135802142Y-77470000D01*
X135849761Y-77422380D01*
X135897380Y-77327142D01*
X135897380Y-77184285D01*
X135897380Y-78374761D02*
X134897380Y-78374761D01*
X135849761Y-78374761D02*
X135897380Y-78279523D01*
X135897380Y-78089047D01*
X135849761Y-77993809D01*
X135802142Y-77946190D01*
X135706904Y-77898571D01*
X135421190Y-77898571D01*
X135325952Y-77946190D01*
X135278333Y-77993809D01*
X135230714Y-78089047D01*
X135230714Y-78279523D01*
X135278333Y-78374761D01*
X135849761Y-79231904D02*
X135897380Y-79136666D01*
X135897380Y-78946190D01*
X135849761Y-78850952D01*
X135754523Y-78803333D01*
X135373571Y-78803333D01*
X135278333Y-78850952D01*
X135230714Y-78946190D01*
X135230714Y-79136666D01*
X135278333Y-79231904D01*
X135373571Y-79279523D01*
X135468809Y-79279523D01*
X135564047Y-78803333D01*
X180403333Y-72159761D02*
X180260476Y-72207380D01*
X180022380Y-72207380D01*
X179927142Y-72159761D01*
X179879523Y-72112142D01*
X179831904Y-72016904D01*
X179831904Y-71921666D01*
X179879523Y-71826428D01*
X179927142Y-71778809D01*
X180022380Y-71731190D01*
X180212857Y-71683571D01*
X180308095Y-71635952D01*
X180355714Y-71588333D01*
X180403333Y-71493095D01*
X180403333Y-71397857D01*
X180355714Y-71302619D01*
X180308095Y-71255000D01*
X180212857Y-71207380D01*
X179974761Y-71207380D01*
X179831904Y-71255000D01*
X179498571Y-71207380D02*
X179260476Y-72207380D01*
X179070000Y-71493095D01*
X178879523Y-72207380D01*
X178641428Y-71207380D01*
X178308095Y-71302619D02*
X178260476Y-71255000D01*
X178165238Y-71207380D01*
X177927142Y-71207380D01*
X177831904Y-71255000D01*
X177784285Y-71302619D01*
X177736666Y-71397857D01*
X177736666Y-71493095D01*
X177784285Y-71635952D01*
X178355714Y-72207380D01*
X177736666Y-72207380D01*
X172846904Y-72525000D02*
X172942142Y-72477380D01*
X173085000Y-72477380D01*
X173227857Y-72525000D01*
X173323095Y-72620238D01*
X173370714Y-72715476D01*
X173418333Y-72905952D01*
X173418333Y-73048809D01*
X173370714Y-73239285D01*
X173323095Y-73334523D01*
X173227857Y-73429761D01*
X173085000Y-73477380D01*
X172989761Y-73477380D01*
X172846904Y-73429761D01*
X172799285Y-73382142D01*
X172799285Y-73048809D01*
X172989761Y-73048809D01*
X172370714Y-73477380D02*
X172370714Y-72477380D01*
X171799285Y-73477380D01*
X171799285Y-72477380D01*
X171323095Y-73477380D02*
X171323095Y-72477380D01*
X171085000Y-72477380D01*
X170942142Y-72525000D01*
X170846904Y-72620238D01*
X170799285Y-72715476D01*
X170751666Y-72905952D01*
X170751666Y-73048809D01*
X170799285Y-73239285D01*
X170846904Y-73334523D01*
X170942142Y-73429761D01*
X171085000Y-73477380D01*
X171323095Y-73477380D01*
X172846904Y-69985000D02*
X172942142Y-69937380D01*
X173085000Y-69937380D01*
X173227857Y-69985000D01*
X173323095Y-70080238D01*
X173370714Y-70175476D01*
X173418333Y-70365952D01*
X173418333Y-70508809D01*
X173370714Y-70699285D01*
X173323095Y-70794523D01*
X173227857Y-70889761D01*
X173085000Y-70937380D01*
X172989761Y-70937380D01*
X172846904Y-70889761D01*
X172799285Y-70842142D01*
X172799285Y-70508809D01*
X172989761Y-70508809D01*
X172370714Y-70937380D02*
X172370714Y-69937380D01*
X171799285Y-70937380D01*
X171799285Y-69937380D01*
X171323095Y-70937380D02*
X171323095Y-69937380D01*
X171085000Y-69937380D01*
X170942142Y-69985000D01*
X170846904Y-70080238D01*
X170799285Y-70175476D01*
X170751666Y-70365952D01*
X170751666Y-70508809D01*
X170799285Y-70699285D01*
X170846904Y-70794523D01*
X170942142Y-70889761D01*
X171085000Y-70937380D01*
X171323095Y-70937380D01*
X186229523Y-73477380D02*
X186229523Y-72477380D01*
X185896190Y-73191666D01*
X185562857Y-72477380D01*
X185562857Y-73477380D01*
X184562857Y-73477380D02*
X185134285Y-73477380D01*
X184848571Y-73477380D02*
X184848571Y-72477380D01*
X184943809Y-72620238D01*
X185039047Y-72715476D01*
X185134285Y-72763095D01*
X186229523Y-70937380D02*
X186229523Y-69937380D01*
X185896190Y-70651666D01*
X185562857Y-69937380D01*
X185562857Y-70937380D01*
X184896190Y-69937380D02*
X184800952Y-69937380D01*
X184705714Y-69985000D01*
X184658095Y-70032619D01*
X184610476Y-70127857D01*
X184562857Y-70318333D01*
X184562857Y-70556428D01*
X184610476Y-70746904D01*
X184658095Y-70842142D01*
X184705714Y-70889761D01*
X184800952Y-70937380D01*
X184896190Y-70937380D01*
X184991428Y-70889761D01*
X185039047Y-70842142D01*
X185086666Y-70746904D01*
X185134285Y-70556428D01*
X185134285Y-70318333D01*
X185086666Y-70127857D01*
X185039047Y-70032619D01*
X184991428Y-69985000D01*
X184896190Y-69937380D01*
X199358095Y-72477380D02*
X198739047Y-72477380D01*
X199072380Y-72858333D01*
X198929523Y-72858333D01*
X198834285Y-72905952D01*
X198786666Y-72953571D01*
X198739047Y-73048809D01*
X198739047Y-73286904D01*
X198786666Y-73382142D01*
X198834285Y-73429761D01*
X198929523Y-73477380D01*
X199215238Y-73477380D01*
X199310476Y-73429761D01*
X199358095Y-73382142D01*
X198453333Y-72477380D02*
X198120000Y-73477380D01*
X197786666Y-72477380D01*
X197548571Y-72477380D02*
X196929523Y-72477380D01*
X197262857Y-72858333D01*
X197120000Y-72858333D01*
X197024761Y-72905952D01*
X196977142Y-72953571D01*
X196929523Y-73048809D01*
X196929523Y-73286904D01*
X196977142Y-73382142D01*
X197024761Y-73429761D01*
X197120000Y-73477380D01*
X197405714Y-73477380D01*
X197500952Y-73429761D01*
X197548571Y-73382142D01*
X199358095Y-69937380D02*
X198739047Y-69937380D01*
X199072380Y-70318333D01*
X198929523Y-70318333D01*
X198834285Y-70365952D01*
X198786666Y-70413571D01*
X198739047Y-70508809D01*
X198739047Y-70746904D01*
X198786666Y-70842142D01*
X198834285Y-70889761D01*
X198929523Y-70937380D01*
X199215238Y-70937380D01*
X199310476Y-70889761D01*
X199358095Y-70842142D01*
X198453333Y-69937380D02*
X198120000Y-70937380D01*
X197786666Y-69937380D01*
X197548571Y-69937380D02*
X196929523Y-69937380D01*
X197262857Y-70318333D01*
X197120000Y-70318333D01*
X197024761Y-70365952D01*
X196977142Y-70413571D01*
X196929523Y-70508809D01*
X196929523Y-70746904D01*
X196977142Y-70842142D01*
X197024761Y-70889761D01*
X197120000Y-70937380D01*
X197405714Y-70937380D01*
X197500952Y-70889761D01*
X197548571Y-70842142D01*
X196246666Y-75652380D02*
X196056190Y-75652380D01*
X195960952Y-75700000D01*
X195865714Y-75795238D01*
X195818095Y-75985714D01*
X195818095Y-76319047D01*
X195865714Y-76509523D01*
X195960952Y-76604761D01*
X196056190Y-76652380D01*
X196246666Y-76652380D01*
X196341904Y-76604761D01*
X196437142Y-76509523D01*
X196484761Y-76319047D01*
X196484761Y-75985714D01*
X196437142Y-75795238D01*
X196341904Y-75700000D01*
X196246666Y-75652380D01*
X195532380Y-75985714D02*
X195151428Y-75985714D01*
X195389523Y-76652380D02*
X195389523Y-75795238D01*
X195341904Y-75700000D01*
X195246666Y-75652380D01*
X195151428Y-75652380D01*
X194960952Y-75985714D02*
X194580000Y-75985714D01*
X194818095Y-76652380D02*
X194818095Y-75795238D01*
X194770476Y-75700000D01*
X194675238Y-75652380D01*
X194580000Y-75652380D01*
X188507619Y-75652380D02*
X188317142Y-75652380D01*
X188221904Y-75700000D01*
X188126666Y-75795238D01*
X188079047Y-75985714D01*
X188079047Y-76319047D01*
X188126666Y-76509523D01*
X188221904Y-76604761D01*
X188317142Y-76652380D01*
X188507619Y-76652380D01*
X188602857Y-76604761D01*
X188698095Y-76509523D01*
X188745714Y-76319047D01*
X188745714Y-75985714D01*
X188698095Y-75795238D01*
X188602857Y-75700000D01*
X188507619Y-75652380D01*
X187650476Y-75985714D02*
X187650476Y-76652380D01*
X187650476Y-76080952D02*
X187602857Y-76033333D01*
X187507619Y-75985714D01*
X187364761Y-75985714D01*
X187269523Y-76033333D01*
X187221904Y-76128571D01*
X187221904Y-76652380D01*
X196246666Y-67143380D02*
X196056190Y-67143380D01*
X195960952Y-67191000D01*
X195865714Y-67286238D01*
X195818095Y-67476714D01*
X195818095Y-67810047D01*
X195865714Y-68000523D01*
X195960952Y-68095761D01*
X196056190Y-68143380D01*
X196246666Y-68143380D01*
X196341904Y-68095761D01*
X196437142Y-68000523D01*
X196484761Y-67810047D01*
X196484761Y-67476714D01*
X196437142Y-67286238D01*
X196341904Y-67191000D01*
X196246666Y-67143380D01*
X195532380Y-67476714D02*
X195151428Y-67476714D01*
X195389523Y-68143380D02*
X195389523Y-67286238D01*
X195341904Y-67191000D01*
X195246666Y-67143380D01*
X195151428Y-67143380D01*
X194960952Y-67476714D02*
X194580000Y-67476714D01*
X194818095Y-68143380D02*
X194818095Y-67286238D01*
X194770476Y-67191000D01*
X194675238Y-67143380D01*
X194580000Y-67143380D01*
X188507619Y-67143380D02*
X188317142Y-67143380D01*
X188221904Y-67191000D01*
X188126666Y-67286238D01*
X188079047Y-67476714D01*
X188079047Y-67810047D01*
X188126666Y-68000523D01*
X188221904Y-68095761D01*
X188317142Y-68143380D01*
X188507619Y-68143380D01*
X188602857Y-68095761D01*
X188698095Y-68000523D01*
X188745714Y-67810047D01*
X188745714Y-67476714D01*
X188698095Y-67286238D01*
X188602857Y-67191000D01*
X188507619Y-67143380D01*
X187650476Y-67476714D02*
X187650476Y-68143380D01*
X187650476Y-67571952D02*
X187602857Y-67524333D01*
X187507619Y-67476714D01*
X187364761Y-67476714D01*
X187269523Y-67524333D01*
X187221904Y-67619571D01*
X187221904Y-68143380D01*
X184308571Y-77287380D02*
X184308571Y-76287380D01*
X184308571Y-76763571D02*
X183737142Y-76763571D01*
X183737142Y-77287380D02*
X183737142Y-76287380D01*
X183260952Y-77287380D02*
X183260952Y-76620714D01*
X183260952Y-76287380D02*
X183308571Y-76335000D01*
X183260952Y-76382619D01*
X183213333Y-76335000D01*
X183260952Y-76287380D01*
X183260952Y-76382619D01*
X182356190Y-76620714D02*
X182356190Y-77430238D01*
X182403809Y-77525476D01*
X182451428Y-77573095D01*
X182546666Y-77620714D01*
X182689523Y-77620714D01*
X182784761Y-77573095D01*
X182356190Y-77239761D02*
X182451428Y-77287380D01*
X182641904Y-77287380D01*
X182737142Y-77239761D01*
X182784761Y-77192142D01*
X182832380Y-77096904D01*
X182832380Y-76811190D01*
X182784761Y-76715952D01*
X182737142Y-76668333D01*
X182641904Y-76620714D01*
X182451428Y-76620714D01*
X182356190Y-76668333D01*
X181880000Y-77287380D02*
X181880000Y-76287380D01*
X181451428Y-77287380D02*
X181451428Y-76763571D01*
X181499047Y-76668333D01*
X181594285Y-76620714D01*
X181737142Y-76620714D01*
X181832380Y-76668333D01*
X181880000Y-76715952D01*
X175926666Y-77287380D02*
X176402857Y-77287380D01*
X176402857Y-76287380D01*
X175450476Y-77287380D02*
X175545714Y-77239761D01*
X175593333Y-77192142D01*
X175640952Y-77096904D01*
X175640952Y-76811190D01*
X175593333Y-76715952D01*
X175545714Y-76668333D01*
X175450476Y-76620714D01*
X175307619Y-76620714D01*
X175212380Y-76668333D01*
X175164761Y-76715952D01*
X175117142Y-76811190D01*
X175117142Y-77096904D01*
X175164761Y-77192142D01*
X175212380Y-77239761D01*
X175307619Y-77287380D01*
X175450476Y-77287380D01*
X174783809Y-76620714D02*
X174593333Y-77287380D01*
X174402857Y-76811190D01*
X174212380Y-77287380D01*
X174021904Y-76620714D01*
X184308571Y-67127380D02*
X184308571Y-66127380D01*
X184308571Y-66603571D02*
X183737142Y-66603571D01*
X183737142Y-67127380D02*
X183737142Y-66127380D01*
X183260952Y-67127380D02*
X183260952Y-66460714D01*
X183260952Y-66127380D02*
X183308571Y-66175000D01*
X183260952Y-66222619D01*
X183213333Y-66175000D01*
X183260952Y-66127380D01*
X183260952Y-66222619D01*
X182356190Y-66460714D02*
X182356190Y-67270238D01*
X182403809Y-67365476D01*
X182451428Y-67413095D01*
X182546666Y-67460714D01*
X182689523Y-67460714D01*
X182784761Y-67413095D01*
X182356190Y-67079761D02*
X182451428Y-67127380D01*
X182641904Y-67127380D01*
X182737142Y-67079761D01*
X182784761Y-67032142D01*
X182832380Y-66936904D01*
X182832380Y-66651190D01*
X182784761Y-66555952D01*
X182737142Y-66508333D01*
X182641904Y-66460714D01*
X182451428Y-66460714D01*
X182356190Y-66508333D01*
X181880000Y-67127380D02*
X181880000Y-66127380D01*
X181451428Y-67127380D02*
X181451428Y-66603571D01*
X181499047Y-66508333D01*
X181594285Y-66460714D01*
X181737142Y-66460714D01*
X181832380Y-66508333D01*
X181880000Y-66555952D01*
X175926666Y-67127380D02*
X176402857Y-67127380D01*
X176402857Y-66127380D01*
X175450476Y-67127380D02*
X175545714Y-67079761D01*
X175593333Y-67032142D01*
X175640952Y-66936904D01*
X175640952Y-66651190D01*
X175593333Y-66555952D01*
X175545714Y-66508333D01*
X175450476Y-66460714D01*
X175307619Y-66460714D01*
X175212380Y-66508333D01*
X175164761Y-66555952D01*
X175117142Y-66651190D01*
X175117142Y-66936904D01*
X175164761Y-67032142D01*
X175212380Y-67079761D01*
X175307619Y-67127380D01*
X175450476Y-67127380D01*
X174783809Y-66460714D02*
X174593333Y-67127380D01*
X174402857Y-66651190D01*
X174212380Y-67127380D01*
X174021904Y-66460714D01*
D10*
X173990000Y-75565000D02*
X173990000Y-67945000D01*
X184150000Y-75565000D02*
X173990000Y-75565000D01*
X184150000Y-67945000D02*
X184150000Y-75565000D01*
X173990000Y-67945000D02*
X184150000Y-67945000D01*
D11*
X195079523Y-65413380D02*
X195079523Y-64413380D01*
X194650952Y-65413380D02*
X194650952Y-64889571D01*
X194698571Y-64794333D01*
X194793809Y-64746714D01*
X194936666Y-64746714D01*
X195031904Y-64794333D01*
X195079523Y-64841952D01*
X193746190Y-65413380D02*
X193746190Y-64889571D01*
X193793809Y-64794333D01*
X193889047Y-64746714D01*
X194079523Y-64746714D01*
X194174761Y-64794333D01*
X193746190Y-65365761D02*
X193841428Y-65413380D01*
X194079523Y-65413380D01*
X194174761Y-65365761D01*
X194222380Y-65270523D01*
X194222380Y-65175285D01*
X194174761Y-65080047D01*
X194079523Y-65032428D01*
X193841428Y-65032428D01*
X193746190Y-64984809D01*
X193270000Y-65413380D02*
X193270000Y-64746714D01*
X193270000Y-64937190D02*
X193222380Y-64841952D01*
X193174761Y-64794333D01*
X193079523Y-64746714D01*
X192984285Y-64746714D01*
X192222380Y-65413380D02*
X192222380Y-64413380D01*
X192222380Y-65365761D02*
X192317619Y-65413380D01*
X192508095Y-65413380D01*
X192603333Y-65365761D01*
X192650952Y-65318142D01*
X192698571Y-65222904D01*
X192698571Y-64937190D01*
X192650952Y-64841952D01*
X192603333Y-64794333D01*
X192508095Y-64746714D01*
X192317619Y-64746714D01*
X192222380Y-64794333D01*
X191079523Y-64746714D02*
X190889047Y-65413380D01*
X190698571Y-64937190D01*
X190508095Y-65413380D01*
X190317619Y-64746714D01*
X189936666Y-65413380D02*
X189936666Y-64746714D01*
X189936666Y-64413380D02*
X189984285Y-64461000D01*
X189936666Y-64508619D01*
X189889047Y-64461000D01*
X189936666Y-64413380D01*
X189936666Y-64508619D01*
X189460476Y-65413380D02*
X189460476Y-64746714D01*
X189460476Y-64937190D02*
X189412857Y-64841952D01*
X189365238Y-64794333D01*
X189270000Y-64746714D01*
X189174761Y-64746714D01*
X188460476Y-65365761D02*
X188555714Y-65413380D01*
X188746190Y-65413380D01*
X188841428Y-65365761D01*
X188889047Y-65270523D01*
X188889047Y-64889571D01*
X188841428Y-64794333D01*
X188746190Y-64746714D01*
X188555714Y-64746714D01*
X188460476Y-64794333D01*
X188412857Y-64889571D01*
X188412857Y-64984809D01*
X188889047Y-65080047D01*
X193531904Y-67063380D02*
X193531904Y-66396714D01*
X193531904Y-66491952D02*
X193484285Y-66444333D01*
X193389047Y-66396714D01*
X193246190Y-66396714D01*
X193150952Y-66444333D01*
X193103333Y-66539571D01*
X193103333Y-67063380D01*
X193103333Y-66539571D02*
X193055714Y-66444333D01*
X192960476Y-66396714D01*
X192817619Y-66396714D01*
X192722380Y-66444333D01*
X192674761Y-66539571D01*
X192674761Y-67063380D01*
X192055714Y-67063380D02*
X192150952Y-67015761D01*
X192198571Y-66968142D01*
X192246190Y-66872904D01*
X192246190Y-66587190D01*
X192198571Y-66491952D01*
X192150952Y-66444333D01*
X192055714Y-66396714D01*
X191912857Y-66396714D01*
X191817619Y-66444333D01*
X191770000Y-66491952D01*
X191722380Y-66587190D01*
X191722380Y-66872904D01*
X191770000Y-66968142D01*
X191817619Y-67015761D01*
X191912857Y-67063380D01*
X192055714Y-67063380D01*
X190865238Y-67063380D02*
X190865238Y-66063380D01*
X190865238Y-67015761D02*
X190960476Y-67063380D01*
X191150952Y-67063380D01*
X191246190Y-67015761D01*
X191293809Y-66968142D01*
X191341428Y-66872904D01*
X191341428Y-66587190D01*
X191293809Y-66491952D01*
X191246190Y-66444333D01*
X191150952Y-66396714D01*
X190960476Y-66396714D01*
X190865238Y-66444333D01*
X190008095Y-67015761D02*
X190103333Y-67063380D01*
X190293809Y-67063380D01*
X190389047Y-67015761D01*
X190436666Y-66920523D01*
X190436666Y-66539571D01*
X190389047Y-66444333D01*
X190293809Y-66396714D01*
X190103333Y-66396714D01*
X190008095Y-66444333D01*
X189960476Y-66539571D01*
X189960476Y-66634809D01*
X190436666Y-66730047D01*
X193103333Y-72159761D02*
X192960476Y-72207380D01*
X192722380Y-72207380D01*
X192627142Y-72159761D01*
X192579523Y-72112142D01*
X192531904Y-72016904D01*
X192531904Y-71921666D01*
X192579523Y-71826428D01*
X192627142Y-71778809D01*
X192722380Y-71731190D01*
X192912857Y-71683571D01*
X193008095Y-71635952D01*
X193055714Y-71588333D01*
X193103333Y-71493095D01*
X193103333Y-71397857D01*
X193055714Y-71302619D01*
X193008095Y-71255000D01*
X192912857Y-71207380D01*
X192674761Y-71207380D01*
X192531904Y-71255000D01*
X192198571Y-71207380D02*
X191960476Y-72207380D01*
X191770000Y-71493095D01*
X191579523Y-72207380D01*
X191341428Y-71207380D01*
X190436666Y-72207380D02*
X191008095Y-72207380D01*
X190722380Y-72207380D02*
X190722380Y-71207380D01*
X190817619Y-71350238D01*
X190912857Y-71445476D01*
X191008095Y-71493095D01*
D10*
X196850000Y-68580000D02*
X186690000Y-68580000D01*
X196850000Y-74930000D02*
X196850000Y-68580000D01*
X186690000Y-74930000D02*
X196850000Y-74930000D01*
X186690000Y-68580000D02*
X186690000Y-74930000D01*
X192405000Y-80645000D02*
X196215000Y-80645000D01*
X189230000Y-80645000D02*
X192405000Y-80645000D01*
X180340000Y-82550000D02*
X180340000Y-103505000D01*
X179070000Y-80010000D02*
X150495000Y-80010000D01*
X180340000Y-82550000D02*
X179070000Y-80010000D01*
X193040000Y-85725000D02*
X189230000Y-80645000D01*
X196215000Y-85725000D02*
X193040000Y-85725000D01*
D11*
X154678095Y-71255000D02*
X154773333Y-71207380D01*
X154916190Y-71207380D01*
X155059047Y-71255000D01*
X155154285Y-71350238D01*
X155201904Y-71445476D01*
X155249523Y-71635952D01*
X155249523Y-71778809D01*
X155201904Y-71969285D01*
X155154285Y-72064523D01*
X155059047Y-72159761D01*
X154916190Y-72207380D01*
X154820952Y-72207380D01*
X154678095Y-72159761D01*
X154630476Y-72112142D01*
X154630476Y-71778809D01*
X154820952Y-71778809D01*
X154678095Y-54745000D02*
X154773333Y-54697380D01*
X154916190Y-54697380D01*
X155059047Y-54745000D01*
X155154285Y-54840238D01*
X155201904Y-54935476D01*
X155249523Y-55125952D01*
X155249523Y-55268809D01*
X155201904Y-55459285D01*
X155154285Y-55554523D01*
X155059047Y-55649761D01*
X154916190Y-55697380D01*
X154820952Y-55697380D01*
X154678095Y-55649761D01*
X154630476Y-55602142D01*
X154630476Y-55268809D01*
X154820952Y-55268809D01*
X170941904Y-107450000D02*
X171037142Y-107402380D01*
X171180000Y-107402380D01*
X171322857Y-107450000D01*
X171418095Y-107545238D01*
X171465714Y-107640476D01*
X171513333Y-107830952D01*
X171513333Y-107973809D01*
X171465714Y-108164285D01*
X171418095Y-108259523D01*
X171322857Y-108354761D01*
X171180000Y-108402380D01*
X171084761Y-108402380D01*
X170941904Y-108354761D01*
X170894285Y-108307142D01*
X170894285Y-107973809D01*
X171084761Y-107973809D01*
X170465714Y-108402380D02*
X170465714Y-107402380D01*
X169894285Y-108402380D01*
X169894285Y-107402380D01*
X169418095Y-108402380D02*
X169418095Y-107402380D01*
X169180000Y-107402380D01*
X169037142Y-107450000D01*
X168941904Y-107545238D01*
X168894285Y-107640476D01*
X168846666Y-107830952D01*
X168846666Y-107973809D01*
X168894285Y-108164285D01*
X168941904Y-108259523D01*
X169037142Y-108354761D01*
X169180000Y-108402380D01*
X169418095Y-108402380D01*
X157448095Y-81367380D02*
X156829047Y-81367380D01*
X157162380Y-81748333D01*
X157019523Y-81748333D01*
X156924285Y-81795952D01*
X156876666Y-81843571D01*
X156829047Y-81938809D01*
X156829047Y-82176904D01*
X156876666Y-82272142D01*
X156924285Y-82319761D01*
X157019523Y-82367380D01*
X157305238Y-82367380D01*
X157400476Y-82319761D01*
X157448095Y-82272142D01*
X156543333Y-81367380D02*
X156210000Y-82367380D01*
X155876666Y-81367380D01*
X155638571Y-81367380D02*
X155019523Y-81367380D01*
X155352857Y-81748333D01*
X155210000Y-81748333D01*
X155114761Y-81795952D01*
X155067142Y-81843571D01*
X155019523Y-81938809D01*
X155019523Y-82176904D01*
X155067142Y-82272142D01*
X155114761Y-82319761D01*
X155210000Y-82367380D01*
X155495714Y-82367380D01*
X155590952Y-82319761D01*
X155638571Y-82272142D01*
X155075000Y-90678095D02*
X155027380Y-90582857D01*
X155027380Y-90440000D01*
X155075000Y-90297142D01*
X155170238Y-90201904D01*
X155265476Y-90154285D01*
X155455952Y-90106666D01*
X155598809Y-90106666D01*
X155789285Y-90154285D01*
X155884523Y-90201904D01*
X155979761Y-90297142D01*
X156027380Y-90440000D01*
X156027380Y-90535238D01*
X155979761Y-90678095D01*
X155932142Y-90725714D01*
X155598809Y-90725714D01*
X155598809Y-90535238D01*
X156027380Y-91154285D02*
X155027380Y-91154285D01*
X156027380Y-91725714D01*
X155027380Y-91725714D01*
X156027380Y-92201904D02*
X155027380Y-92201904D01*
X155027380Y-92440000D01*
X155075000Y-92582857D01*
X155170238Y-92678095D01*
X155265476Y-92725714D01*
X155455952Y-92773333D01*
X155598809Y-92773333D01*
X155789285Y-92725714D01*
X155884523Y-92678095D01*
X155979761Y-92582857D01*
X156027380Y-92440000D01*
X156027380Y-92201904D01*
X185546904Y-86495000D02*
X185642142Y-86447380D01*
X185785000Y-86447380D01*
X185927857Y-86495000D01*
X186023095Y-86590238D01*
X186070714Y-86685476D01*
X186118333Y-86875952D01*
X186118333Y-87018809D01*
X186070714Y-87209285D01*
X186023095Y-87304523D01*
X185927857Y-87399761D01*
X185785000Y-87447380D01*
X185689761Y-87447380D01*
X185546904Y-87399761D01*
X185499285Y-87352142D01*
X185499285Y-87018809D01*
X185689761Y-87018809D01*
X185070714Y-87447380D02*
X185070714Y-86447380D01*
X184499285Y-87447380D01*
X184499285Y-86447380D01*
X184023095Y-87447380D02*
X184023095Y-86447380D01*
X183785000Y-86447380D01*
X183642142Y-86495000D01*
X183546904Y-86590238D01*
X183499285Y-86685476D01*
X183451666Y-86875952D01*
X183451666Y-87018809D01*
X183499285Y-87209285D01*
X183546904Y-87304523D01*
X183642142Y-87399761D01*
X183785000Y-87447380D01*
X184023095Y-87447380D01*
X179792380Y-92106904D02*
X179792380Y-92725952D01*
X180173333Y-92392619D01*
X180173333Y-92535476D01*
X180220952Y-92630714D01*
X180268571Y-92678333D01*
X180363809Y-92725952D01*
X180601904Y-92725952D01*
X180697142Y-92678333D01*
X180744761Y-92630714D01*
X180792380Y-92535476D01*
X180792380Y-92249761D01*
X180744761Y-92154523D01*
X180697142Y-92106904D01*
X179792380Y-93011666D02*
X180792380Y-93345000D01*
X179792380Y-93678333D01*
X179792380Y-93916428D02*
X179792380Y-94535476D01*
X180173333Y-94202142D01*
X180173333Y-94345000D01*
X180220952Y-94440238D01*
X180268571Y-94487857D01*
X180363809Y-94535476D01*
X180601904Y-94535476D01*
X180697142Y-94487857D01*
X180744761Y-94440238D01*
X180792380Y-94345000D01*
X180792380Y-94059285D01*
X180744761Y-93964047D01*
X180697142Y-93916428D01*
X196659285Y-92162380D02*
X197135476Y-92162380D01*
X197183095Y-92638571D01*
X197135476Y-92590952D01*
X197040238Y-92543333D01*
X196802142Y-92543333D01*
X196706904Y-92590952D01*
X196659285Y-92638571D01*
X196611666Y-92733809D01*
X196611666Y-92971904D01*
X196659285Y-93067142D01*
X196706904Y-93114761D01*
X196802142Y-93162380D01*
X197040238Y-93162380D01*
X197135476Y-93114761D01*
X197183095Y-93067142D01*
X196183095Y-92781428D02*
X195421190Y-92781428D01*
X194421190Y-93162380D02*
X194992619Y-93162380D01*
X194706904Y-93162380D02*
X194706904Y-92162380D01*
X194802142Y-92305238D01*
X194897380Y-92400476D01*
X194992619Y-92448095D01*
X194040238Y-92257619D02*
X193992619Y-92210000D01*
X193897380Y-92162380D01*
X193659285Y-92162380D01*
X193564047Y-92210000D01*
X193516428Y-92257619D01*
X193468809Y-92352857D01*
X193468809Y-92448095D01*
X193516428Y-92590952D01*
X194087857Y-93162380D01*
X193468809Y-93162380D01*
X193135476Y-92495714D02*
X192897380Y-93162380D01*
X192659285Y-92495714D01*
X194913095Y-84542380D02*
X194294047Y-84542380D01*
X194627380Y-84923333D01*
X194484523Y-84923333D01*
X194389285Y-84970952D01*
X194341666Y-85018571D01*
X194294047Y-85113809D01*
X194294047Y-85351904D01*
X194341666Y-85447142D01*
X194389285Y-85494761D01*
X194484523Y-85542380D01*
X194770238Y-85542380D01*
X194865476Y-85494761D01*
X194913095Y-85447142D01*
X194008333Y-84542380D02*
X193675000Y-85542380D01*
X193341666Y-84542380D01*
X193103571Y-84542380D02*
X192484523Y-84542380D01*
X192817857Y-84923333D01*
X192675000Y-84923333D01*
X192579761Y-84970952D01*
X192532142Y-85018571D01*
X192484523Y-85113809D01*
X192484523Y-85351904D01*
X192532142Y-85447142D01*
X192579761Y-85494761D01*
X192675000Y-85542380D01*
X192960714Y-85542380D01*
X193055952Y-85494761D01*
X193103571Y-85447142D01*
D10*
X107315000Y-106680000D02*
X107315000Y-82550000D01*
X147320000Y-106680000D02*
X107315000Y-106680000D01*
X147320000Y-82550000D02*
X147320000Y-106680000D01*
X107315000Y-82550000D02*
X147320000Y-82550000D01*
D11*
X152590476Y-54697380D02*
X153066666Y-54697380D01*
X153114285Y-55173571D01*
X153066666Y-55125952D01*
X152971428Y-55078333D01*
X152733333Y-55078333D01*
X152638095Y-55125952D01*
X152590476Y-55173571D01*
X152542857Y-55268809D01*
X152542857Y-55506904D01*
X152590476Y-55602142D01*
X152638095Y-55649761D01*
X152733333Y-55697380D01*
X152971428Y-55697380D01*
X153066666Y-55649761D01*
X153114285Y-55602142D01*
X152257142Y-54697380D02*
X151923809Y-55697380D01*
X151590476Y-54697380D01*
X151852380Y-71151904D02*
X151852380Y-71770952D01*
X152233333Y-71437619D01*
X152233333Y-71580476D01*
X152280952Y-71675714D01*
X152328571Y-71723333D01*
X152423809Y-71770952D01*
X152661904Y-71770952D01*
X152757142Y-71723333D01*
X152804761Y-71675714D01*
X152852380Y-71580476D01*
X152852380Y-71294761D01*
X152804761Y-71199523D01*
X152757142Y-71151904D01*
X151852380Y-72056666D02*
X152852380Y-72390000D01*
X151852380Y-72723333D01*
X151852380Y-72961428D02*
X151852380Y-73580476D01*
X152233333Y-73247142D01*
X152233333Y-73390000D01*
X152280952Y-73485238D01*
X152328571Y-73532857D01*
X152423809Y-73580476D01*
X152661904Y-73580476D01*
X152757142Y-73532857D01*
X152804761Y-73485238D01*
X152852380Y-73390000D01*
X152852380Y-73104285D01*
X152804761Y-73009047D01*
X152757142Y-72961428D01*
X142366904Y-86495000D02*
X142462142Y-86447380D01*
X142605000Y-86447380D01*
X142747857Y-86495000D01*
X142843095Y-86590238D01*
X142890714Y-86685476D01*
X142938333Y-86875952D01*
X142938333Y-87018809D01*
X142890714Y-87209285D01*
X142843095Y-87304523D01*
X142747857Y-87399761D01*
X142605000Y-87447380D01*
X142509761Y-87447380D01*
X142366904Y-87399761D01*
X142319285Y-87352142D01*
X142319285Y-87018809D01*
X142509761Y-87018809D01*
X141890714Y-87447380D02*
X141890714Y-86447380D01*
X141319285Y-87447380D01*
X141319285Y-86447380D01*
X140843095Y-87447380D02*
X140843095Y-86447380D01*
X140605000Y-86447380D01*
X140462142Y-86495000D01*
X140366904Y-86590238D01*
X140319285Y-86685476D01*
X140271666Y-86875952D01*
X140271666Y-87018809D01*
X140319285Y-87209285D01*
X140366904Y-87304523D01*
X140462142Y-87399761D01*
X140605000Y-87447380D01*
X140843095Y-87447380D01*
X142843095Y-88987380D02*
X142224047Y-88987380D01*
X142557380Y-89368333D01*
X142414523Y-89368333D01*
X142319285Y-89415952D01*
X142271666Y-89463571D01*
X142224047Y-89558809D01*
X142224047Y-89796904D01*
X142271666Y-89892142D01*
X142319285Y-89939761D01*
X142414523Y-89987380D01*
X142700238Y-89987380D01*
X142795476Y-89939761D01*
X142843095Y-89892142D01*
X141938333Y-88987380D02*
X141605000Y-89987380D01*
X141271666Y-88987380D01*
X141033571Y-88987380D02*
X140414523Y-88987380D01*
X140747857Y-89368333D01*
X140605000Y-89368333D01*
X140509761Y-89415952D01*
X140462142Y-89463571D01*
X140414523Y-89558809D01*
X140414523Y-89796904D01*
X140462142Y-89892142D01*
X140509761Y-89939761D01*
X140605000Y-89987380D01*
X140890714Y-89987380D01*
X140985952Y-89939761D01*
X141033571Y-89892142D01*
X143049523Y-102687379D02*
X143049523Y-101687379D01*
X142716190Y-102401665D01*
X142382857Y-101687379D01*
X142382857Y-102687379D01*
X141716190Y-101687379D02*
X141620952Y-101687379D01*
X141525714Y-101734999D01*
X141478095Y-101782618D01*
X141430476Y-101877856D01*
X141382857Y-102068332D01*
X141382857Y-102306427D01*
X141430476Y-102496903D01*
X141478095Y-102592141D01*
X141525714Y-102639760D01*
X141620952Y-102687379D01*
X141716190Y-102687379D01*
X141811428Y-102639760D01*
X141859047Y-102592141D01*
X141906666Y-102496903D01*
X141954285Y-102306427D01*
X141954285Y-102068332D01*
X141906666Y-101877856D01*
X141859047Y-101782618D01*
X141811428Y-101734999D01*
X141716190Y-101687379D01*
X142930476Y-94067380D02*
X142359047Y-94067380D01*
X142644761Y-95067380D02*
X142644761Y-94067380D01*
X142120952Y-95067380D02*
X141597142Y-94400714D01*
X142120952Y-94400714D02*
X141597142Y-95067380D01*
X142335238Y-97607380D02*
X142668571Y-97131190D01*
X142906666Y-97607380D02*
X142906666Y-96607380D01*
X142525714Y-96607380D01*
X142430476Y-96655000D01*
X142382857Y-96702619D01*
X142335238Y-96797857D01*
X142335238Y-96940714D01*
X142382857Y-97035952D01*
X142430476Y-97083571D01*
X142525714Y-97131190D01*
X142906666Y-97131190D01*
X142001904Y-97607380D02*
X141478095Y-96940714D01*
X142001904Y-96940714D02*
X141478095Y-97607380D01*
X143049523Y-100147380D02*
X143049523Y-99147380D01*
X142716190Y-99861666D01*
X142382857Y-99147380D01*
X142382857Y-100147380D01*
X141382857Y-100147380D02*
X141954285Y-100147380D01*
X141668571Y-100147380D02*
X141668571Y-99147380D01*
X141763809Y-99290238D01*
X141859047Y-99385476D01*
X141954285Y-99433095D01*
X142700238Y-92241666D02*
X142224047Y-92241666D01*
X142795476Y-92527380D02*
X142462142Y-91527380D01*
X142128809Y-92527380D01*
X141366904Y-91860714D02*
X141366904Y-92527380D01*
X141795476Y-91860714D02*
X141795476Y-92384523D01*
X141747857Y-92479761D01*
X141652619Y-92527380D01*
X141509761Y-92527380D01*
X141414523Y-92479761D01*
X141366904Y-92432142D01*
X140985952Y-92527380D02*
X140462142Y-91860714D01*
X140985952Y-91860714D02*
X140462142Y-92527380D01*
X158575238Y-55411666D02*
X158099047Y-55411666D01*
X158670476Y-55697380D02*
X158337142Y-54697380D01*
X158003809Y-55697380D01*
X157241904Y-55030714D02*
X157241904Y-55697380D01*
X157670476Y-55030714D02*
X157670476Y-55554523D01*
X157622857Y-55649761D01*
X157527619Y-55697380D01*
X157384761Y-55697380D01*
X157289523Y-55649761D01*
X157241904Y-55602142D01*
X156860952Y-55697380D02*
X156337142Y-55030714D01*
X156860952Y-55030714D02*
X156337142Y-55697380D01*
X143049523Y-55697380D02*
X143049523Y-54697380D01*
X142716190Y-55411666D01*
X142382857Y-54697380D01*
X142382857Y-55697380D01*
X141716190Y-54697380D02*
X141620952Y-54697380D01*
X141525714Y-54745000D01*
X141478095Y-54792619D01*
X141430476Y-54887857D01*
X141382857Y-55078333D01*
X141382857Y-55316428D01*
X141430476Y-55506904D01*
X141478095Y-55602142D01*
X141525714Y-55649761D01*
X141620952Y-55697380D01*
X141716190Y-55697380D01*
X141811428Y-55649761D01*
X141859047Y-55602142D01*
X141906666Y-55506904D01*
X141954285Y-55316428D01*
X141954285Y-55078333D01*
X141906666Y-54887857D01*
X141859047Y-54792619D01*
X141811428Y-54745000D01*
X141716190Y-54697380D01*
X150550476Y-54697380D02*
X149979047Y-54697380D01*
X150264761Y-55697380D02*
X150264761Y-54697380D01*
X149740952Y-55697380D02*
X149217142Y-55030714D01*
X149740952Y-55030714D02*
X149217142Y-55697380D01*
X147415238Y-55697380D02*
X147748571Y-55221190D01*
X147986666Y-55697380D02*
X147986666Y-54697380D01*
X147605714Y-54697380D01*
X147510476Y-54745000D01*
X147462857Y-54792619D01*
X147415238Y-54887857D01*
X147415238Y-55030714D01*
X147462857Y-55125952D01*
X147510476Y-55173571D01*
X147605714Y-55221190D01*
X147986666Y-55221190D01*
X147081904Y-55697380D02*
X146558095Y-55030714D01*
X147081904Y-55030714D02*
X146558095Y-55697380D01*
X145589523Y-55697380D02*
X145589523Y-54697380D01*
X145256190Y-55411666D01*
X144922857Y-54697380D01*
X144922857Y-55697380D01*
X143922857Y-55697380D02*
X144494285Y-55697380D01*
X144208571Y-55697380D02*
X144208571Y-54697380D01*
X144303809Y-54840238D01*
X144399047Y-54935476D01*
X144494285Y-54983095D01*
X143049523Y-72207380D02*
X143049523Y-71207380D01*
X142716190Y-71921666D01*
X142382857Y-71207380D01*
X142382857Y-72207380D01*
X141716190Y-71207380D02*
X141620952Y-71207380D01*
X141525714Y-71255000D01*
X141478095Y-71302619D01*
X141430476Y-71397857D01*
X141382857Y-71588333D01*
X141382857Y-71826428D01*
X141430476Y-72016904D01*
X141478095Y-72112142D01*
X141525714Y-72159761D01*
X141620952Y-72207380D01*
X141716190Y-72207380D01*
X141811428Y-72159761D01*
X141859047Y-72112142D01*
X141906666Y-72016904D01*
X141954285Y-71826428D01*
X141954285Y-71588333D01*
X141906666Y-71397857D01*
X141859047Y-71302619D01*
X141811428Y-71255000D01*
X141716190Y-71207380D01*
X150550476Y-71207380D02*
X149979047Y-71207380D01*
X150264761Y-72207380D02*
X150264761Y-71207380D01*
X149740952Y-72207380D02*
X149217142Y-71540714D01*
X149740952Y-71540714D02*
X149217142Y-72207380D01*
X147415238Y-72207380D02*
X147748571Y-71731190D01*
X147986666Y-72207380D02*
X147986666Y-71207380D01*
X147605714Y-71207380D01*
X147510476Y-71255000D01*
X147462857Y-71302619D01*
X147415238Y-71397857D01*
X147415238Y-71540714D01*
X147462857Y-71635952D01*
X147510476Y-71683571D01*
X147605714Y-71731190D01*
X147986666Y-71731190D01*
X147081904Y-72207380D02*
X146558095Y-71540714D01*
X147081904Y-71540714D02*
X146558095Y-72207380D01*
X145589523Y-72207380D02*
X145589523Y-71207380D01*
X145256190Y-71921666D01*
X144922857Y-71207380D01*
X144922857Y-72207380D01*
X143922857Y-72207380D02*
X144494285Y-72207380D01*
X144208571Y-72207380D02*
X144208571Y-71207380D01*
X144303809Y-71350238D01*
X144399047Y-71445476D01*
X144494285Y-71493095D01*
X158575238Y-71921666D02*
X158099047Y-71921666D01*
X158670476Y-72207380D02*
X158337142Y-71207380D01*
X158003809Y-72207380D01*
X157241904Y-71540714D02*
X157241904Y-72207380D01*
X157670476Y-71540714D02*
X157670476Y-72064523D01*
X157622857Y-72159761D01*
X157527619Y-72207380D01*
X157384761Y-72207380D01*
X157289523Y-72159761D01*
X157241904Y-72112142D01*
X156860952Y-72207380D02*
X156337142Y-71540714D01*
X156860952Y-71540714D02*
X156337142Y-72207380D01*
X175434523Y-60142380D02*
X175434523Y-59142380D01*
X175101190Y-59856666D01*
X174767857Y-59142380D01*
X174767857Y-60142380D01*
X173767857Y-60142380D02*
X174339285Y-60142380D01*
X174053571Y-60142380D02*
X174053571Y-59142380D01*
X174148809Y-59285238D01*
X174244047Y-59380476D01*
X174339285Y-59428095D01*
X172894523Y-60142380D02*
X172894523Y-59142380D01*
X172561190Y-59856666D01*
X172227857Y-59142380D01*
X172227857Y-60142380D01*
X171561190Y-59142380D02*
X171465952Y-59142380D01*
X171370714Y-59190000D01*
X171323095Y-59237619D01*
X171275476Y-59332857D01*
X171227857Y-59523333D01*
X171227857Y-59761428D01*
X171275476Y-59951904D01*
X171323095Y-60047142D01*
X171370714Y-60094761D01*
X171465952Y-60142380D01*
X171561190Y-60142380D01*
X171656428Y-60094761D01*
X171704047Y-60047142D01*
X171751666Y-59951904D01*
X171799285Y-59761428D01*
X171799285Y-59523333D01*
X171751666Y-59332857D01*
X171704047Y-59237619D01*
X171656428Y-59190000D01*
X171561190Y-59142380D01*
X180395476Y-59142380D02*
X179824047Y-59142380D01*
X180109761Y-60142380D02*
X180109761Y-59142380D01*
X179585952Y-60142380D02*
X179062142Y-59475714D01*
X179585952Y-59475714D02*
X179062142Y-60142380D01*
X177260238Y-60142380D02*
X177593571Y-59666190D01*
X177831666Y-60142380D02*
X177831666Y-59142380D01*
X177450714Y-59142380D01*
X177355476Y-59190000D01*
X177307857Y-59237619D01*
X177260238Y-59332857D01*
X177260238Y-59475714D01*
X177307857Y-59570952D01*
X177355476Y-59618571D01*
X177450714Y-59666190D01*
X177831666Y-59666190D01*
X176926904Y-60142380D02*
X176403095Y-59475714D01*
X176926904Y-59475714D02*
X176403095Y-60142380D01*
X188420238Y-59856666D02*
X187944047Y-59856666D01*
X188515476Y-60142380D02*
X188182142Y-59142380D01*
X187848809Y-60142380D01*
X187086904Y-59475714D02*
X187086904Y-60142380D01*
X187515476Y-59475714D02*
X187515476Y-59999523D01*
X187467857Y-60094761D01*
X187372619Y-60142380D01*
X187229761Y-60142380D01*
X187134523Y-60094761D01*
X187086904Y-60047142D01*
X186705952Y-60142380D02*
X186182142Y-59475714D01*
X186705952Y-59475714D02*
X186182142Y-60142380D01*
X185285000Y-61086904D02*
X185332619Y-61182142D01*
X185332619Y-61325000D01*
X185285000Y-61467857D01*
X185189761Y-61563095D01*
X185094523Y-61610714D01*
X184904047Y-61658333D01*
X184761190Y-61658333D01*
X184570714Y-61610714D01*
X184475476Y-61563095D01*
X184380238Y-61467857D01*
X184332619Y-61325000D01*
X184332619Y-61229761D01*
X184380238Y-61086904D01*
X184427857Y-61039285D01*
X184761190Y-61039285D01*
X184761190Y-61229761D01*
X184332619Y-60610714D02*
X185332619Y-60610714D01*
X184332619Y-60039285D01*
X185332619Y-60039285D01*
X184332619Y-59563095D02*
X185332619Y-59563095D01*
X185332619Y-59325000D01*
X185285000Y-59182142D01*
X185189761Y-59086904D01*
X185094523Y-59039285D01*
X184904047Y-58991666D01*
X184761190Y-58991666D01*
X184570714Y-59039285D01*
X184475476Y-59086904D01*
X184380238Y-59182142D01*
X184332619Y-59325000D01*
X184332619Y-59563095D01*
X182435476Y-59142380D02*
X182911666Y-59142380D01*
X182959285Y-59618571D01*
X182911666Y-59570952D01*
X182816428Y-59523333D01*
X182578333Y-59523333D01*
X182483095Y-59570952D01*
X182435476Y-59618571D01*
X182387857Y-59713809D01*
X182387857Y-59951904D01*
X182435476Y-60047142D01*
X182483095Y-60094761D01*
X182578333Y-60142380D01*
X182816428Y-60142380D01*
X182911666Y-60094761D01*
X182959285Y-60047142D01*
X182102142Y-59142380D02*
X181768809Y-60142380D01*
X181435476Y-59142380D01*
D12*
X126745238Y-85899523D02*
X126459523Y-85994761D01*
X125983333Y-85994761D01*
X125792857Y-85899523D01*
X125697619Y-85804285D01*
X125602380Y-85613809D01*
X125602380Y-85423333D01*
X125697619Y-85232857D01*
X125792857Y-85137619D01*
X125983333Y-85042380D01*
X126364285Y-84947142D01*
X126554761Y-84851904D01*
X126650000Y-84756666D01*
X126745238Y-84566190D01*
X126745238Y-84375714D01*
X126650000Y-84185238D01*
X126554761Y-84090000D01*
X126364285Y-83994761D01*
X125888095Y-83994761D01*
X125602380Y-84090000D01*
X124935714Y-83994761D02*
X123602380Y-85994761D01*
X123602380Y-83994761D02*
X124935714Y-85994761D01*
X120269047Y-85994761D02*
X121411904Y-85994761D01*
X120840476Y-85994761D02*
X120840476Y-83994761D01*
X121030952Y-84280476D01*
X121221428Y-84470952D01*
X121411904Y-84566190D01*
X119507142Y-84185238D02*
X119411904Y-84090000D01*
X119221428Y-83994761D01*
X118745238Y-83994761D01*
X118554761Y-84090000D01*
X118459523Y-84185238D01*
X118364285Y-84375714D01*
X118364285Y-84566190D01*
X118459523Y-84851904D01*
X119602380Y-85994761D01*
X118364285Y-85994761D01*
X117697619Y-83994761D02*
X116364285Y-83994761D01*
X117221428Y-85994761D01*
X114745238Y-83994761D02*
X115126190Y-83994761D01*
X115316666Y-84090000D01*
X115411904Y-84185238D01*
X115602380Y-84470952D01*
X115697619Y-84851904D01*
X115697619Y-85613809D01*
X115602380Y-85804285D01*
X115507142Y-85899523D01*
X115316666Y-85994761D01*
X114935714Y-85994761D01*
X114745238Y-85899523D01*
X114650000Y-85804285D01*
X114554761Y-85613809D01*
X114554761Y-85137619D01*
X114650000Y-84947142D01*
X114745238Y-84851904D01*
X114935714Y-84756666D01*
X115316666Y-84756666D01*
X115507142Y-84851904D01*
X115602380Y-84947142D01*
X115697619Y-85137619D01*
D13*
X130250714Y-73495000D02*
X129679285Y-73495000D01*
X130365000Y-73837857D02*
X129965000Y-72637857D01*
X129565000Y-73837857D01*
X129165000Y-73723571D02*
X129107857Y-73780714D01*
X129165000Y-73837857D01*
X129222142Y-73780714D01*
X129165000Y-73723571D01*
X129165000Y-73837857D01*
X127736428Y-73780714D02*
X127565000Y-73837857D01*
X127279285Y-73837857D01*
X127165000Y-73780714D01*
X127107857Y-73723571D01*
X127050714Y-73609285D01*
X127050714Y-73495000D01*
X127107857Y-73380714D01*
X127165000Y-73323571D01*
X127279285Y-73266428D01*
X127507857Y-73209285D01*
X127622142Y-73152142D01*
X127679285Y-73095000D01*
X127736428Y-72980714D01*
X127736428Y-72866428D01*
X127679285Y-72752142D01*
X127622142Y-72695000D01*
X127507857Y-72637857D01*
X127222142Y-72637857D01*
X127050714Y-72695000D01*
X126707857Y-73037857D02*
X126250714Y-73037857D01*
X126536428Y-72637857D02*
X126536428Y-73666428D01*
X126479285Y-73780714D01*
X126365000Y-73837857D01*
X126250714Y-73837857D01*
X125393571Y-73780714D02*
X125507857Y-73837857D01*
X125736428Y-73837857D01*
X125850714Y-73780714D01*
X125907857Y-73666428D01*
X125907857Y-73209285D01*
X125850714Y-73095000D01*
X125736428Y-73037857D01*
X125507857Y-73037857D01*
X125393571Y-73095000D01*
X125336428Y-73209285D01*
X125336428Y-73323571D01*
X125907857Y-73437857D01*
X124307857Y-73037857D02*
X124307857Y-74009285D01*
X124365000Y-74123571D01*
X124422142Y-74180714D01*
X124536428Y-74237857D01*
X124707857Y-74237857D01*
X124822142Y-74180714D01*
X124307857Y-73780714D02*
X124422142Y-73837857D01*
X124650714Y-73837857D01*
X124765000Y-73780714D01*
X124822142Y-73723571D01*
X124879285Y-73609285D01*
X124879285Y-73266428D01*
X124822142Y-73152142D01*
X124765000Y-73095000D01*
X124650714Y-73037857D01*
X124422142Y-73037857D01*
X124307857Y-73095000D01*
X123279285Y-73780714D02*
X123393571Y-73837857D01*
X123622142Y-73837857D01*
X123736428Y-73780714D01*
X123793571Y-73666428D01*
X123793571Y-73209285D01*
X123736428Y-73095000D01*
X123622142Y-73037857D01*
X123393571Y-73037857D01*
X123279285Y-73095000D01*
X123222142Y-73209285D01*
X123222142Y-73323571D01*
X123793571Y-73437857D01*
X122707857Y-73837857D02*
X122707857Y-73037857D01*
X122707857Y-73266428D02*
X122650714Y-73152142D01*
X122593571Y-73095000D01*
X122479285Y-73037857D01*
X122365000Y-73037857D01*
X128536428Y-75037857D02*
X128250714Y-75837857D01*
X127965000Y-75037857D01*
X126365000Y-74637857D02*
X126250714Y-74637857D01*
X126136428Y-74695000D01*
X126079285Y-74752142D01*
X126022142Y-74866428D01*
X125965000Y-75095000D01*
X125965000Y-75380714D01*
X126022142Y-75609285D01*
X126079285Y-75723571D01*
X126136428Y-75780714D01*
X126250714Y-75837857D01*
X126365000Y-75837857D01*
X126479285Y-75780714D01*
X126536428Y-75723571D01*
X126593571Y-75609285D01*
X126650714Y-75380714D01*
X126650714Y-75095000D01*
X126593571Y-74866428D01*
X126536428Y-74752142D01*
X126479285Y-74695000D01*
X126365000Y-74637857D01*
X125450714Y-75723571D02*
X125393571Y-75780714D01*
X125450714Y-75837857D01*
X125507857Y-75780714D01*
X125450714Y-75723571D01*
X125450714Y-75837857D01*
X124250714Y-75837857D02*
X124936428Y-75837857D01*
X124593571Y-75837857D02*
X124593571Y-74637857D01*
X124707857Y-74809285D01*
X124822142Y-74923571D01*
X124936428Y-74980714D01*
D12*
X140873809Y-104632142D02*
X140207142Y-104632142D01*
X139921428Y-105679761D02*
X140873809Y-105679761D01*
X140873809Y-103679761D01*
X139921428Y-103679761D01*
X139254761Y-103679761D02*
X138016666Y-103679761D01*
X138683333Y-104441666D01*
X138397619Y-104441666D01*
X138207142Y-104536904D01*
X138111904Y-104632142D01*
X138016666Y-104822619D01*
X138016666Y-105298809D01*
X138111904Y-105489285D01*
X138207142Y-105584523D01*
X138397619Y-105679761D01*
X138969047Y-105679761D01*
X139159523Y-105584523D01*
X139254761Y-105489285D01*
X137254761Y-103870238D02*
X137159523Y-103775000D01*
X136969047Y-103679761D01*
X136492857Y-103679761D01*
X136302380Y-103775000D01*
X136207142Y-103870238D01*
X136111904Y-104060714D01*
X136111904Y-104251190D01*
X136207142Y-104536904D01*
X137350000Y-105679761D01*
X136111904Y-105679761D01*
X133730952Y-104632142D02*
X133064285Y-104632142D01*
X132778571Y-105679761D02*
X133730952Y-105679761D01*
X133730952Y-103679761D01*
X132778571Y-103679761D01*
X131254761Y-104632142D02*
X130969047Y-104727380D01*
X130873809Y-104822619D01*
X130778571Y-105013095D01*
X130778571Y-105298809D01*
X130873809Y-105489285D01*
X130969047Y-105584523D01*
X131159523Y-105679761D01*
X131921428Y-105679761D01*
X131921428Y-103679761D01*
X131254761Y-103679761D01*
X131064285Y-103775000D01*
X130969047Y-103870238D01*
X130873809Y-104060714D01*
X130873809Y-104251190D01*
X130969047Y-104441666D01*
X131064285Y-104536904D01*
X131254761Y-104632142D01*
X131921428Y-104632142D01*
X129540476Y-104727380D02*
X129540476Y-105679761D01*
X130207142Y-103679761D02*
X129540476Y-104727380D01*
X128873809Y-103679761D01*
X128492857Y-103679761D02*
X127350000Y-103679761D01*
X127921428Y-105679761D02*
X127921428Y-103679761D01*
X126683333Y-104632142D02*
X126016666Y-104632142D01*
X125730952Y-105679761D02*
X126683333Y-105679761D01*
X126683333Y-103679761D01*
X125730952Y-103679761D01*
D14*
%TO.C,G\u002A\u002A\u002A*%
G36*
X131854301Y-99894558D02*
G01*
X131166905Y-100233511D01*
X130440028Y-100458644D01*
X129629877Y-100581846D01*
X129230002Y-100607059D01*
X128404522Y-100604441D01*
X127682378Y-100518540D01*
X127014477Y-100339823D01*
X126351726Y-100058755D01*
X126316953Y-100041397D01*
X125685578Y-99724088D01*
X125474956Y-100000228D01*
X125342222Y-100191415D01*
X125269212Y-100329939D01*
X125264333Y-100352644D01*
X125337861Y-100426089D01*
X125535515Y-100543402D01*
X125822905Y-100688907D01*
X126165639Y-100846929D01*
X126529326Y-101001790D01*
X126879574Y-101137814D01*
X127181992Y-101239325D01*
X127254000Y-101259583D01*
X127563477Y-101319271D01*
X127983905Y-101370692D01*
X128464407Y-101410768D01*
X128954105Y-101436423D01*
X129402119Y-101444582D01*
X129757573Y-101432169D01*
X129878666Y-101418276D01*
X130805413Y-101197698D01*
X131760147Y-100827182D01*
X131931833Y-100746377D01*
X132257679Y-100583270D01*
X132517191Y-100442116D01*
X132678173Y-100341114D01*
X132715000Y-100303748D01*
X132665140Y-100204439D01*
X132539750Y-100031312D01*
X132477096Y-99953967D01*
X132239192Y-99668996D01*
X131854301Y-99894558D01*
G37*
X131854301Y-99894558D02*
X131166905Y-100233511D01*
X130440028Y-100458644D01*
X129629877Y-100581846D01*
X129230002Y-100607059D01*
X128404522Y-100604441D01*
X127682378Y-100518540D01*
X127014477Y-100339823D01*
X126351726Y-100058755D01*
X126316953Y-100041397D01*
X125685578Y-99724088D01*
X125474956Y-100000228D01*
X125342222Y-100191415D01*
X125269212Y-100329939D01*
X125264333Y-100352644D01*
X125337861Y-100426089D01*
X125535515Y-100543402D01*
X125822905Y-100688907D01*
X126165639Y-100846929D01*
X126529326Y-101001790D01*
X126879574Y-101137814D01*
X127181992Y-101239325D01*
X127254000Y-101259583D01*
X127563477Y-101319271D01*
X127983905Y-101370692D01*
X128464407Y-101410768D01*
X128954105Y-101436423D01*
X129402119Y-101444582D01*
X129757573Y-101432169D01*
X129878666Y-101418276D01*
X130805413Y-101197698D01*
X131760147Y-100827182D01*
X131931833Y-100746377D01*
X132257679Y-100583270D01*
X132517191Y-100442116D01*
X132678173Y-100341114D01*
X132715000Y-100303748D01*
X132665140Y-100204439D01*
X132539750Y-100031312D01*
X132477096Y-99953967D01*
X132239192Y-99668996D01*
X131854301Y-99894558D01*
G36*
X131182611Y-98754857D02*
G01*
X130455365Y-99088597D01*
X129663940Y-99280672D01*
X128838634Y-99329939D01*
X128009749Y-99235260D01*
X127207583Y-98995493D01*
X127012746Y-98911823D01*
X126432826Y-98646170D01*
X126273918Y-98853085D01*
X126169137Y-99024371D01*
X126140801Y-99144667D01*
X126237196Y-99240869D01*
X126454570Y-99369786D01*
X126752520Y-99512856D01*
X127090643Y-99651514D01*
X127428535Y-99767199D01*
X127596742Y-99813597D01*
X128335606Y-99946945D01*
X129060090Y-99988230D01*
X129582333Y-99952000D01*
X129934164Y-99892636D01*
X130290341Y-99817150D01*
X130426864Y-99782530D01*
X130683022Y-99696185D01*
X130989423Y-99570412D01*
X131301087Y-99426668D01*
X131573035Y-99286407D01*
X131760288Y-99171086D01*
X131814793Y-99120466D01*
X131796173Y-99014511D01*
X131694049Y-98845252D01*
X131670112Y-98814187D01*
X131481968Y-98578233D01*
X131182611Y-98754857D01*
G37*
X131182611Y-98754857D02*
X130455365Y-99088597D01*
X129663940Y-99280672D01*
X128838634Y-99329939D01*
X128009749Y-99235260D01*
X127207583Y-98995493D01*
X127012746Y-98911823D01*
X126432826Y-98646170D01*
X126273918Y-98853085D01*
X126169137Y-99024371D01*
X126140801Y-99144667D01*
X126237196Y-99240869D01*
X126454570Y-99369786D01*
X126752520Y-99512856D01*
X127090643Y-99651514D01*
X127428535Y-99767199D01*
X127596742Y-99813597D01*
X128335606Y-99946945D01*
X129060090Y-99988230D01*
X129582333Y-99952000D01*
X129934164Y-99892636D01*
X130290341Y-99817150D01*
X130426864Y-99782530D01*
X130683022Y-99696185D01*
X130989423Y-99570412D01*
X131301087Y-99426668D01*
X131573035Y-99286407D01*
X131760288Y-99171086D01*
X131814793Y-99120466D01*
X131796173Y-99014511D01*
X131694049Y-98845252D01*
X131670112Y-98814187D01*
X131481968Y-98578233D01*
X131182611Y-98754857D01*
G36*
X130596337Y-97630473D02*
G01*
X130397339Y-97724510D01*
X129722765Y-97964455D01*
X129014055Y-98057006D01*
X128307760Y-98001805D01*
X127640430Y-97798495D01*
X127540342Y-97752499D01*
X127314592Y-97649840D01*
X127187516Y-97621864D01*
X127107636Y-97664974D01*
X127064035Y-97719231D01*
X126974279Y-97886494D01*
X126999909Y-98016858D01*
X127158080Y-98134672D01*
X127441652Y-98255249D01*
X128035718Y-98451222D01*
X128549118Y-98553823D01*
X129038737Y-98568441D01*
X129561461Y-98500465D01*
X129709333Y-98470031D01*
X130006683Y-98390010D01*
X130325824Y-98280528D01*
X130625697Y-98158908D01*
X130865246Y-98042474D01*
X131003412Y-97948549D01*
X131021666Y-97916311D01*
X130977055Y-97815175D01*
X130902020Y-97701072D01*
X130823678Y-97608338D01*
X130738899Y-97584010D01*
X130596337Y-97630473D01*
G37*
X130596337Y-97630473D02*
X130397339Y-97724510D01*
X129722765Y-97964455D01*
X129014055Y-98057006D01*
X128307760Y-98001805D01*
X127640430Y-97798495D01*
X127540342Y-97752499D01*
X127314592Y-97649840D01*
X127187516Y-97621864D01*
X127107636Y-97664974D01*
X127064035Y-97719231D01*
X126974279Y-97886494D01*
X126999909Y-98016858D01*
X127158080Y-98134672D01*
X127441652Y-98255249D01*
X128035718Y-98451222D01*
X128549118Y-98553823D01*
X129038737Y-98568441D01*
X129561461Y-98500465D01*
X129709333Y-98470031D01*
X130006683Y-98390010D01*
X130325824Y-98280528D01*
X130625697Y-98158908D01*
X130865246Y-98042474D01*
X131003412Y-97948549D01*
X131021666Y-97916311D01*
X130977055Y-97815175D01*
X130902020Y-97701072D01*
X130823678Y-97608338D01*
X130738899Y-97584010D01*
X130596337Y-97630473D01*
G36*
X128227992Y-92355378D02*
G01*
X127666854Y-92576002D01*
X127193924Y-92925478D01*
X126826340Y-93396429D01*
X126752583Y-93532944D01*
X126634345Y-93803523D01*
X126567332Y-94065111D01*
X126538604Y-94384455D01*
X126534333Y-94658875D01*
X126571505Y-95276916D01*
X126689941Y-95773423D01*
X126900020Y-96180643D01*
X127102940Y-96425507D01*
X127448591Y-96735905D01*
X127801425Y-96942326D01*
X128210000Y-97064115D01*
X128722878Y-97120614D01*
X128862666Y-97126472D01*
X129397065Y-97123723D01*
X129794914Y-97074006D01*
X129973040Y-97022897D01*
X130394974Y-96799919D01*
X130800383Y-96469230D01*
X131126126Y-96085910D01*
X131215087Y-95939403D01*
X131305572Y-95742866D01*
X131361991Y-95533093D01*
X131391733Y-95262919D01*
X131402187Y-94885178D01*
X131402381Y-94826965D01*
X130037157Y-94826965D01*
X129968490Y-95289438D01*
X129800558Y-95670989D01*
X129562839Y-95922991D01*
X129322786Y-96015905D01*
X128999075Y-96050820D01*
X128668111Y-96025008D01*
X128457310Y-95962452D01*
X128212260Y-95764286D01*
X128032515Y-95447582D01*
X127926669Y-95053354D01*
X127903315Y-94622620D01*
X127971048Y-94196394D01*
X128044404Y-93991769D01*
X128270615Y-93647652D01*
X128564032Y-93436680D01*
X128894097Y-93353739D01*
X129230255Y-93393712D01*
X129541948Y-93551485D01*
X129798620Y-93821941D01*
X129969714Y-94199966D01*
X129997058Y-94318667D01*
X130037157Y-94826965D01*
X131402381Y-94826965D01*
X131402666Y-94742000D01*
X131398907Y-94343489D01*
X131380870Y-94063734D01*
X131338418Y-93852209D01*
X131261414Y-93658390D01*
X131139819Y-93431921D01*
X130779193Y-92949097D01*
X130316776Y-92598371D01*
X129744724Y-92374320D01*
X129546348Y-92330198D01*
X128860203Y-92270984D01*
X128227992Y-92355378D01*
G37*
X128227992Y-92355378D02*
X127666854Y-92576002D01*
X127193924Y-92925478D01*
X126826340Y-93396429D01*
X126752583Y-93532944D01*
X126634345Y-93803523D01*
X126567332Y-94065111D01*
X126538604Y-94384455D01*
X126534333Y-94658875D01*
X126571505Y-95276916D01*
X126689941Y-95773423D01*
X126900020Y-96180643D01*
X127102940Y-96425507D01*
X127448591Y-96735905D01*
X127801425Y-96942326D01*
X128210000Y-97064115D01*
X128722878Y-97120614D01*
X128862666Y-97126472D01*
X129397065Y-97123723D01*
X129794914Y-97074006D01*
X129973040Y-97022897D01*
X130394974Y-96799919D01*
X130800383Y-96469230D01*
X131126126Y-96085910D01*
X131215087Y-95939403D01*
X131305572Y-95742866D01*
X131361991Y-95533093D01*
X131391733Y-95262919D01*
X131402187Y-94885178D01*
X131402381Y-94826965D01*
X130037157Y-94826965D01*
X129968490Y-95289438D01*
X129800558Y-95670989D01*
X129562839Y-95922991D01*
X129322786Y-96015905D01*
X128999075Y-96050820D01*
X128668111Y-96025008D01*
X128457310Y-95962452D01*
X128212260Y-95764286D01*
X128032515Y-95447582D01*
X127926669Y-95053354D01*
X127903315Y-94622620D01*
X127971048Y-94196394D01*
X128044404Y-93991769D01*
X128270615Y-93647652D01*
X128564032Y-93436680D01*
X128894097Y-93353739D01*
X129230255Y-93393712D01*
X129541948Y-93551485D01*
X129798620Y-93821941D01*
X129969714Y-94199966D01*
X129997058Y-94318667D01*
X130037157Y-94826965D01*
X131402381Y-94826965D01*
X131402666Y-94742000D01*
X131398907Y-94343489D01*
X131380870Y-94063734D01*
X131338418Y-93852209D01*
X131261414Y-93658390D01*
X131139819Y-93431921D01*
X130779193Y-92949097D01*
X130316776Y-92598371D01*
X129744724Y-92374320D01*
X129546348Y-92330198D01*
X128860203Y-92270984D01*
X128227992Y-92355378D01*
G36*
X116804530Y-92327842D02*
G01*
X116265011Y-92474284D01*
X115869002Y-92708314D01*
X115614022Y-93031726D01*
X115533378Y-93246901D01*
X115507427Y-93424817D01*
X115482316Y-93741026D01*
X115459652Y-94164489D01*
X115441038Y-94664167D01*
X115428079Y-95209020D01*
X115426364Y-95316766D01*
X115400666Y-97076865D01*
X116035666Y-97052432D01*
X116360903Y-97035858D01*
X116553835Y-97009138D01*
X116651480Y-96960180D01*
X116690856Y-96876887D01*
X116697910Y-96836062D01*
X116724412Y-96710131D01*
X116784792Y-96695586D01*
X116928643Y-96785766D01*
X116951910Y-96801945D01*
X117353733Y-97003810D01*
X117829001Y-97124676D01*
X118314640Y-97155880D01*
X118747580Y-97088757D01*
X118829623Y-97059881D01*
X119217726Y-96818936D01*
X119498843Y-96463475D01*
X119652957Y-96024273D01*
X119676333Y-95758000D01*
X119648131Y-95541963D01*
X118302469Y-95541963D01*
X118294065Y-95791490D01*
X118147500Y-96000468D01*
X118131166Y-96012798D01*
X117865101Y-96111656D01*
X117548227Y-96101061D01*
X117249522Y-95991251D01*
X117085330Y-95857556D01*
X116982207Y-95682390D01*
X116891523Y-95438436D01*
X116828558Y-95184419D01*
X116808590Y-94979061D01*
X116833486Y-94889625D01*
X116941412Y-94881838D01*
X117157643Y-94923901D01*
X117434107Y-95000705D01*
X117722731Y-95097140D01*
X117975442Y-95198098D01*
X118144169Y-95288467D01*
X118169563Y-95309564D01*
X118302469Y-95541963D01*
X119648131Y-95541963D01*
X119618895Y-95318006D01*
X119440545Y-94949507D01*
X119132230Y-94645658D01*
X118684898Y-94399611D01*
X118089497Y-94204520D01*
X117446080Y-94071261D01*
X117131125Y-94013610D01*
X116946559Y-93959569D01*
X116854977Y-93889964D01*
X116818975Y-93785620D01*
X116813704Y-93747103D01*
X116857759Y-93487120D01*
X117036808Y-93291355D01*
X117320762Y-93186336D01*
X117461878Y-93175667D01*
X117784367Y-93238807D01*
X118005101Y-93435176D01*
X118094473Y-93620167D01*
X118146631Y-93695301D01*
X118260929Y-93740337D01*
X118472555Y-93762328D01*
X118816697Y-93768326D01*
X118833736Y-93768334D01*
X119520454Y-93768334D01*
X119463004Y-93493167D01*
X119289958Y-93041063D01*
X118986509Y-92687534D01*
X118563106Y-92437160D01*
X118030196Y-92294521D01*
X117398227Y-92264196D01*
X116804530Y-92327842D01*
G37*
X116804530Y-92327842D02*
X116265011Y-92474284D01*
X115869002Y-92708314D01*
X115614022Y-93031726D01*
X115533378Y-93246901D01*
X115507427Y-93424817D01*
X115482316Y-93741026D01*
X115459652Y-94164489D01*
X115441038Y-94664167D01*
X115428079Y-95209020D01*
X115426364Y-95316766D01*
X115400666Y-97076865D01*
X116035666Y-97052432D01*
X116360903Y-97035858D01*
X116553835Y-97009138D01*
X116651480Y-96960180D01*
X116690856Y-96876887D01*
X116697910Y-96836062D01*
X116724412Y-96710131D01*
X116784792Y-96695586D01*
X116928643Y-96785766D01*
X116951910Y-96801945D01*
X117353733Y-97003810D01*
X117829001Y-97124676D01*
X118314640Y-97155880D01*
X118747580Y-97088757D01*
X118829623Y-97059881D01*
X119217726Y-96818936D01*
X119498843Y-96463475D01*
X119652957Y-96024273D01*
X119676333Y-95758000D01*
X119648131Y-95541963D01*
X118302469Y-95541963D01*
X118294065Y-95791490D01*
X118147500Y-96000468D01*
X118131166Y-96012798D01*
X117865101Y-96111656D01*
X117548227Y-96101061D01*
X117249522Y-95991251D01*
X117085330Y-95857556D01*
X116982207Y-95682390D01*
X116891523Y-95438436D01*
X116828558Y-95184419D01*
X116808590Y-94979061D01*
X116833486Y-94889625D01*
X116941412Y-94881838D01*
X117157643Y-94923901D01*
X117434107Y-95000705D01*
X117722731Y-95097140D01*
X117975442Y-95198098D01*
X118144169Y-95288467D01*
X118169563Y-95309564D01*
X118302469Y-95541963D01*
X119648131Y-95541963D01*
X119618895Y-95318006D01*
X119440545Y-94949507D01*
X119132230Y-94645658D01*
X118684898Y-94399611D01*
X118089497Y-94204520D01*
X117446080Y-94071261D01*
X117131125Y-94013610D01*
X116946559Y-93959569D01*
X116854977Y-93889964D01*
X116818975Y-93785620D01*
X116813704Y-93747103D01*
X116857759Y-93487120D01*
X117036808Y-93291355D01*
X117320762Y-93186336D01*
X117461878Y-93175667D01*
X117784367Y-93238807D01*
X118005101Y-93435176D01*
X118094473Y-93620167D01*
X118146631Y-93695301D01*
X118260929Y-93740337D01*
X118472555Y-93762328D01*
X118816697Y-93768326D01*
X118833736Y-93768334D01*
X119520454Y-93768334D01*
X119463004Y-93493167D01*
X119289958Y-93041063D01*
X118986509Y-92687534D01*
X118563106Y-92437160D01*
X118030196Y-92294521D01*
X117398227Y-92264196D01*
X116804530Y-92327842D01*
G36*
X134323666Y-95715667D02*
G01*
X131868333Y-95715667D01*
X131868333Y-97070334D01*
X133860657Y-97070334D01*
X134530392Y-97068143D01*
X135046637Y-97061021D01*
X135425184Y-97048142D01*
X135681828Y-97028681D01*
X135832360Y-97001812D01*
X135892574Y-96966709D01*
X135893763Y-96964057D01*
X135902613Y-96857285D01*
X135909564Y-96601121D01*
X135914499Y-96215497D01*
X135917298Y-95720344D01*
X135917844Y-95135594D01*
X135916017Y-94481179D01*
X135912273Y-93852557D01*
X135890000Y-90847334D01*
X134323666Y-90798646D01*
X134323666Y-95715667D01*
G37*
X134323666Y-95715667D02*
X131868333Y-95715667D01*
X131868333Y-97070334D01*
X133860657Y-97070334D01*
X134530392Y-97068143D01*
X135046637Y-97061021D01*
X135425184Y-97048142D01*
X135681828Y-97028681D01*
X135832360Y-97001812D01*
X135892574Y-96966709D01*
X135893763Y-96964057D01*
X135902613Y-96857285D01*
X135909564Y-96601121D01*
X135914499Y-96215497D01*
X135917298Y-95720344D01*
X135917844Y-95135594D01*
X135916017Y-94481179D01*
X135912273Y-93852557D01*
X135890000Y-90847334D01*
X134323666Y-90798646D01*
X134323666Y-95715667D01*
G36*
X123676833Y-90817196D02*
G01*
X123057189Y-90827424D01*
X122581123Y-90837993D01*
X122222898Y-90851774D01*
X121956779Y-90871642D01*
X121757030Y-90900468D01*
X121597913Y-90941125D01*
X121453694Y-90996485D01*
X121298634Y-91069421D01*
X121263721Y-91086535D01*
X120851189Y-91341666D01*
X120566400Y-91652960D01*
X120393854Y-92048436D01*
X120318051Y-92556115D01*
X120311333Y-92808218D01*
X120317028Y-93165567D01*
X120343087Y-93409477D01*
X120402974Y-93595701D01*
X120510154Y-93779994D01*
X120565333Y-93860051D01*
X120790885Y-94116765D01*
X121061026Y-94339909D01*
X121165330Y-94403641D01*
X121511328Y-94586283D01*
X120852086Y-95722475D01*
X120624258Y-96121402D01*
X120429965Y-96473547D01*
X120284105Y-96750957D01*
X120201576Y-96925679D01*
X120188589Y-96967462D01*
X120227658Y-97018090D01*
X120365165Y-97047623D01*
X120624288Y-97058354D01*
X121028206Y-97052576D01*
X121044326Y-97052129D01*
X121904319Y-97028000D01*
X123092229Y-94869000D01*
X124079000Y-94869000D01*
X124079000Y-97070334D01*
X125603000Y-97070334D01*
X125603000Y-92075000D01*
X124079000Y-92075000D01*
X124079000Y-93599000D01*
X123174290Y-93599000D01*
X122763492Y-93595695D01*
X122484897Y-93581645D01*
X122301434Y-93550651D01*
X122176035Y-93496513D01*
X122073623Y-93414908D01*
X121920737Y-93166938D01*
X121868325Y-92848419D01*
X121917074Y-92525609D01*
X122061758Y-92270957D01*
X122156068Y-92183906D01*
X122267004Y-92127244D01*
X122430799Y-92094521D01*
X122683688Y-92079284D01*
X123061905Y-92075084D01*
X123162425Y-92075000D01*
X124079000Y-92075000D01*
X125603000Y-92075000D01*
X125603000Y-90786887D01*
X123676833Y-90817196D01*
G37*
X123676833Y-90817196D02*
X123057189Y-90827424D01*
X122581123Y-90837993D01*
X122222898Y-90851774D01*
X121956779Y-90871642D01*
X121757030Y-90900468D01*
X121597913Y-90941125D01*
X121453694Y-90996485D01*
X121298634Y-91069421D01*
X121263721Y-91086535D01*
X120851189Y-91341666D01*
X120566400Y-91652960D01*
X120393854Y-92048436D01*
X120318051Y-92556115D01*
X120311333Y-92808218D01*
X120317028Y-93165567D01*
X120343087Y-93409477D01*
X120402974Y-93595701D01*
X120510154Y-93779994D01*
X120565333Y-93860051D01*
X120790885Y-94116765D01*
X121061026Y-94339909D01*
X121165330Y-94403641D01*
X121511328Y-94586283D01*
X120852086Y-95722475D01*
X120624258Y-96121402D01*
X120429965Y-96473547D01*
X120284105Y-96750957D01*
X120201576Y-96925679D01*
X120188589Y-96967462D01*
X120227658Y-97018090D01*
X120365165Y-97047623D01*
X120624288Y-97058354D01*
X121028206Y-97052576D01*
X121044326Y-97052129D01*
X121904319Y-97028000D01*
X123092229Y-94869000D01*
X124079000Y-94869000D01*
X124079000Y-97070334D01*
X125603000Y-97070334D01*
X125603000Y-92075000D01*
X124079000Y-92075000D01*
X124079000Y-93599000D01*
X123174290Y-93599000D01*
X122763492Y-93595695D01*
X122484897Y-93581645D01*
X122301434Y-93550651D01*
X122176035Y-93496513D01*
X122073623Y-93414908D01*
X121920737Y-93166938D01*
X121868325Y-92848419D01*
X121917074Y-92525609D01*
X122061758Y-92270957D01*
X122156068Y-92183906D01*
X122267004Y-92127244D01*
X122430799Y-92094521D01*
X122683688Y-92079284D01*
X123061905Y-92075084D01*
X123162425Y-92075000D01*
X124079000Y-92075000D01*
X125603000Y-92075000D01*
X125603000Y-90786887D01*
X123676833Y-90817196D01*
G36*
X115032463Y-92181271D02*
G01*
X114937057Y-92234279D01*
X114935000Y-92244334D01*
X115003241Y-92320213D01*
X115057361Y-92329000D01*
X115145484Y-92396188D01*
X115195837Y-92608483D01*
X115205528Y-92717865D01*
X115232527Y-92932273D01*
X115272280Y-93041609D01*
X115294833Y-93042421D01*
X115336052Y-92922509D01*
X115357477Y-92707538D01*
X115358333Y-92653556D01*
X115379736Y-92426563D01*
X115451995Y-92334716D01*
X115490330Y-92329000D01*
X115577965Y-92287954D01*
X115570000Y-92244334D01*
X115457414Y-92187076D01*
X115252242Y-92159996D01*
X115226336Y-92159667D01*
X115032463Y-92181271D01*
G37*
X115032463Y-92181271D02*
X114937057Y-92234279D01*
X114935000Y-92244334D01*
X115003241Y-92320213D01*
X115057361Y-92329000D01*
X115145484Y-92396188D01*
X115195837Y-92608483D01*
X115205528Y-92717865D01*
X115232527Y-92932273D01*
X115272280Y-93041609D01*
X115294833Y-93042421D01*
X115336052Y-92922509D01*
X115357477Y-92707538D01*
X115358333Y-92653556D01*
X115379736Y-92426563D01*
X115451995Y-92334716D01*
X115490330Y-92329000D01*
X115577965Y-92287954D01*
X115570000Y-92244334D01*
X115457414Y-92187076D01*
X115252242Y-92159996D01*
X115226336Y-92159667D01*
X115032463Y-92181271D01*
G36*
X114039557Y-92260899D02*
G01*
X114006177Y-92503436D01*
X114003666Y-92623275D01*
X114016974Y-92900173D01*
X114054365Y-93039717D01*
X114088333Y-93048667D01*
X114158132Y-92930488D01*
X114176819Y-92810837D01*
X114188453Y-92707016D01*
X114228416Y-92742015D01*
X114293940Y-92879334D01*
X114407243Y-93133334D01*
X114537054Y-92837000D01*
X114666864Y-92540667D01*
X114695099Y-92823925D01*
X114729634Y-92994739D01*
X114778089Y-93048736D01*
X114786833Y-93042647D01*
X114832330Y-92913452D01*
X114849005Y-92695058D01*
X114838745Y-92456683D01*
X114803435Y-92267540D01*
X114763892Y-92200904D01*
X114681722Y-92236758D01*
X114578191Y-92390344D01*
X114540380Y-92471073D01*
X114403310Y-92794667D01*
X114303488Y-92503445D01*
X114196163Y-92257726D01*
X114105535Y-92177936D01*
X114039557Y-92260899D01*
G37*
X114039557Y-92260899D02*
X114006177Y-92503436D01*
X114003666Y-92623275D01*
X114016974Y-92900173D01*
X114054365Y-93039717D01*
X114088333Y-93048667D01*
X114158132Y-92930488D01*
X114176819Y-92810837D01*
X114188453Y-92707016D01*
X114228416Y-92742015D01*
X114293940Y-92879334D01*
X114407243Y-93133334D01*
X114537054Y-92837000D01*
X114666864Y-92540667D01*
X114695099Y-92823925D01*
X114729634Y-92994739D01*
X114778089Y-93048736D01*
X114786833Y-93042647D01*
X114832330Y-92913452D01*
X114849005Y-92695058D01*
X114838745Y-92456683D01*
X114803435Y-92267540D01*
X114763892Y-92200904D01*
X114681722Y-92236758D01*
X114578191Y-92390344D01*
X114540380Y-92471073D01*
X114403310Y-92794667D01*
X114303488Y-92503445D01*
X114196163Y-92257726D01*
X114105535Y-92177936D01*
X114039557Y-92260899D01*
G36*
X128524966Y-90934793D02*
G01*
X127981220Y-91055998D01*
X127471411Y-91232020D01*
X127293751Y-91314318D01*
X127065785Y-91443046D01*
X126974414Y-91547154D01*
X126999878Y-91667034D01*
X127069637Y-91772431D01*
X127153026Y-91866357D01*
X127246165Y-91877697D01*
X127410469Y-91806906D01*
X127471804Y-91775424D01*
X127974720Y-91575143D01*
X128545224Y-91442010D01*
X129037799Y-91398672D01*
X129423681Y-91430471D01*
X129852247Y-91515828D01*
X130254268Y-91637282D01*
X130560515Y-91777371D01*
X130574906Y-91786354D01*
X130717152Y-91856292D01*
X130815486Y-91812711D01*
X130903875Y-91691829D01*
X130993133Y-91532870D01*
X131012448Y-91448590D01*
X131011969Y-91448125D01*
X130788888Y-91312622D01*
X130446832Y-91175995D01*
X130035492Y-91052152D01*
X129604559Y-90954996D01*
X129203722Y-90898435D01*
X129016400Y-90889667D01*
X128524966Y-90934793D01*
G37*
X128524966Y-90934793D02*
X127981220Y-91055998D01*
X127471411Y-91232020D01*
X127293751Y-91314318D01*
X127065785Y-91443046D01*
X126974414Y-91547154D01*
X126999878Y-91667034D01*
X127069637Y-91772431D01*
X127153026Y-91866357D01*
X127246165Y-91877697D01*
X127410469Y-91806906D01*
X127471804Y-91775424D01*
X127974720Y-91575143D01*
X128545224Y-91442010D01*
X129037799Y-91398672D01*
X129423681Y-91430471D01*
X129852247Y-91515828D01*
X130254268Y-91637282D01*
X130560515Y-91777371D01*
X130574906Y-91786354D01*
X130717152Y-91856292D01*
X130815486Y-91812711D01*
X130903875Y-91691829D01*
X130993133Y-91532870D01*
X131012448Y-91448590D01*
X131011969Y-91448125D01*
X130788888Y-91312622D01*
X130446832Y-91175995D01*
X130035492Y-91052152D01*
X129604559Y-90954996D01*
X129203722Y-90898435D01*
X129016400Y-90889667D01*
X128524966Y-90934793D01*
G36*
X128279893Y-89517598D02*
G01*
X127541258Y-89672492D01*
X127229824Y-89779317D01*
X126897557Y-89916117D01*
X126582243Y-90064250D01*
X126321663Y-90205075D01*
X126153603Y-90319948D01*
X126111000Y-90378164D01*
X126164444Y-90488740D01*
X126293829Y-90648520D01*
X126301500Y-90656626D01*
X126492000Y-90856361D01*
X126957666Y-90621265D01*
X127758776Y-90307990D01*
X128596328Y-90150056D01*
X129444518Y-90147582D01*
X130277541Y-90300686D01*
X131055575Y-90602415D01*
X131484863Y-90818034D01*
X131677808Y-90593723D01*
X131792454Y-90421102D01*
X131820695Y-90291846D01*
X131815708Y-90280348D01*
X131683871Y-90172039D01*
X131426145Y-90038500D01*
X131081107Y-89894814D01*
X130687332Y-89756062D01*
X130283398Y-89637329D01*
X130003553Y-89571814D01*
X129148365Y-89474761D01*
X128279893Y-89517598D01*
G37*
X128279893Y-89517598D02*
X127541258Y-89672492D01*
X127229824Y-89779317D01*
X126897557Y-89916117D01*
X126582243Y-90064250D01*
X126321663Y-90205075D01*
X126153603Y-90319948D01*
X126111000Y-90378164D01*
X126164444Y-90488740D01*
X126293829Y-90648520D01*
X126301500Y-90656626D01*
X126492000Y-90856361D01*
X126957666Y-90621265D01*
X127758776Y-90307990D01*
X128596328Y-90150056D01*
X129444518Y-90147582D01*
X130277541Y-90300686D01*
X131055575Y-90602415D01*
X131484863Y-90818034D01*
X131677808Y-90593723D01*
X131792454Y-90421102D01*
X131820695Y-90291846D01*
X131815708Y-90280348D01*
X131683871Y-90172039D01*
X131426145Y-90038500D01*
X131081107Y-89894814D01*
X130687332Y-89756062D01*
X130283398Y-89637329D01*
X130003553Y-89571814D01*
X129148365Y-89474761D01*
X128279893Y-89517598D01*
G36*
X128417280Y-88050824D02*
G01*
X127773568Y-88119474D01*
X127254000Y-88225355D01*
X126912044Y-88336172D01*
X126513200Y-88490589D01*
X126107118Y-88666643D01*
X125743448Y-88842374D01*
X125471842Y-88995820D01*
X125402091Y-89044495D01*
X125309207Y-89129454D01*
X125297418Y-89217563D01*
X125372090Y-89363636D01*
X125444424Y-89476927D01*
X125575070Y-89663191D01*
X125668418Y-89768655D01*
X125687666Y-89778091D01*
X125777404Y-89737645D01*
X125979001Y-89637770D01*
X126254257Y-89497502D01*
X126349896Y-89448107D01*
X127118256Y-89114566D01*
X127901517Y-88912251D01*
X128751316Y-88829181D01*
X129032000Y-88825746D01*
X129781890Y-88865947D01*
X130462180Y-88988891D01*
X131141527Y-89210362D01*
X131636017Y-89424376D01*
X131935112Y-89559148D01*
X132169641Y-89655172D01*
X132302920Y-89697830D01*
X132319602Y-89696761D01*
X132459302Y-89503598D01*
X132589940Y-89303340D01*
X132680931Y-89145246D01*
X132703070Y-89079162D01*
X132322516Y-88843798D01*
X131824017Y-88607404D01*
X131257654Y-88389932D01*
X130673509Y-88211337D01*
X130311084Y-88126172D01*
X129751081Y-88052063D01*
X129098132Y-88027650D01*
X128417280Y-88050824D01*
G37*
X128417280Y-88050824D02*
X127773568Y-88119474D01*
X127254000Y-88225355D01*
X126912044Y-88336172D01*
X126513200Y-88490589D01*
X126107118Y-88666643D01*
X125743448Y-88842374D01*
X125471842Y-88995820D01*
X125402091Y-89044495D01*
X125309207Y-89129454D01*
X125297418Y-89217563D01*
X125372090Y-89363636D01*
X125444424Y-89476927D01*
X125575070Y-89663191D01*
X125668418Y-89768655D01*
X125687666Y-89778091D01*
X125777404Y-89737645D01*
X125979001Y-89637770D01*
X126254257Y-89497502D01*
X126349896Y-89448107D01*
X127118256Y-89114566D01*
X127901517Y-88912251D01*
X128751316Y-88829181D01*
X129032000Y-88825746D01*
X129781890Y-88865947D01*
X130462180Y-88988891D01*
X131141527Y-89210362D01*
X131636017Y-89424376D01*
X131935112Y-89559148D01*
X132169641Y-89655172D01*
X132302920Y-89697830D01*
X132319602Y-89696761D01*
X132459302Y-89503598D01*
X132589940Y-89303340D01*
X132680931Y-89145246D01*
X132703070Y-89079162D01*
X132322516Y-88843798D01*
X131824017Y-88607404D01*
X131257654Y-88389932D01*
X130673509Y-88211337D01*
X130311084Y-88126172D01*
X129751081Y-88052063D01*
X129098132Y-88027650D01*
X128417280Y-88050824D01*
G36*
X122623631Y-59583225D02*
G01*
X121885847Y-60026274D01*
X121247065Y-60550785D01*
X120901678Y-60992554D01*
X120513917Y-61941335D01*
X120521551Y-62551886D01*
X120931550Y-62853499D01*
X121355284Y-62898421D01*
X122070227Y-63019978D01*
X122466398Y-63445286D01*
X122491599Y-63500000D01*
X122946958Y-64089550D01*
X123357105Y-64365506D01*
X123863903Y-64836369D01*
X123958684Y-65247730D01*
X124193301Y-66261096D01*
X124812730Y-67284086D01*
X125690338Y-68170222D01*
X126699490Y-68773029D01*
X127119423Y-68903737D01*
X127803792Y-69234431D01*
X128431344Y-69810788D01*
X128470674Y-69862177D01*
X129054396Y-70445271D01*
X129766882Y-70645808D01*
X129982478Y-70652105D01*
X130597786Y-70582172D01*
X130902993Y-70410394D01*
X130910263Y-70375848D01*
X130796916Y-69998729D01*
X130505397Y-69323138D01*
X130241842Y-68780526D01*
X129869543Y-67990608D01*
X129626881Y-67369805D01*
X129573421Y-67137833D01*
X129759072Y-66773957D01*
X130224916Y-66247172D01*
X130442368Y-66044138D01*
X130964852Y-65495362D01*
X131041144Y-65178440D01*
X130979806Y-65134338D01*
X130855979Y-64893819D01*
X131106170Y-64385275D01*
X131274478Y-64147040D01*
X131729854Y-63467532D01*
X132042825Y-62888518D01*
X132072200Y-62814095D01*
X132114945Y-62468511D01*
X131794728Y-62472475D01*
X131710686Y-62497902D01*
X131359685Y-62602650D01*
X131224436Y-62547465D01*
X131290242Y-62219795D01*
X131542408Y-61507088D01*
X131570974Y-61427894D01*
X131890751Y-60355124D01*
X131941450Y-59676421D01*
X131721062Y-59423570D01*
X131697698Y-59422631D01*
X131349956Y-59563926D01*
X130701980Y-59935459D01*
X129890119Y-60458699D01*
X129840789Y-60492105D01*
X129041289Y-61019335D01*
X128417944Y-61401326D01*
X128097399Y-61560750D01*
X128089203Y-61561579D01*
X127818313Y-61372768D01*
X127404499Y-60915588D01*
X127382504Y-60887816D01*
X126734266Y-60255613D01*
X126087301Y-59818342D01*
X125503250Y-59551780D01*
X125128345Y-59439463D01*
X125059494Y-59494257D01*
X125387420Y-59725435D01*
X125933619Y-60296173D01*
X126326373Y-61162963D01*
X126474076Y-62090709D01*
X126442643Y-62433525D01*
X126145781Y-63079378D01*
X125587938Y-63748913D01*
X124936015Y-64277951D01*
X124356915Y-64502313D01*
X124339223Y-64502631D01*
X124155405Y-64395164D01*
X124039272Y-64016080D01*
X123978006Y-63280354D01*
X123958789Y-62102963D01*
X123958684Y-61978410D01*
X123937594Y-60871896D01*
X123880970Y-59982135D01*
X123798782Y-59433802D01*
X123746325Y-59322945D01*
X123297947Y-59316996D01*
X122623631Y-59583225D01*
G37*
X122623631Y-59583225D02*
X121885847Y-60026274D01*
X121247065Y-60550785D01*
X120901678Y-60992554D01*
X120513917Y-61941335D01*
X120521551Y-62551886D01*
X120931550Y-62853499D01*
X121355284Y-62898421D01*
X122070227Y-63019978D01*
X122466398Y-63445286D01*
X122491599Y-63500000D01*
X122946958Y-64089550D01*
X123357105Y-64365506D01*
X123863903Y-64836369D01*
X123958684Y-65247730D01*
X124193301Y-66261096D01*
X124812730Y-67284086D01*
X125690338Y-68170222D01*
X126699490Y-68773029D01*
X127119423Y-68903737D01*
X127803792Y-69234431D01*
X128431344Y-69810788D01*
X128470674Y-69862177D01*
X129054396Y-70445271D01*
X129766882Y-70645808D01*
X129982478Y-70652105D01*
X130597786Y-70582172D01*
X130902993Y-70410394D01*
X130910263Y-70375848D01*
X130796916Y-69998729D01*
X130505397Y-69323138D01*
X130241842Y-68780526D01*
X129869543Y-67990608D01*
X129626881Y-67369805D01*
X129573421Y-67137833D01*
X129759072Y-66773957D01*
X130224916Y-66247172D01*
X130442368Y-66044138D01*
X130964852Y-65495362D01*
X131041144Y-65178440D01*
X130979806Y-65134338D01*
X130855979Y-64893819D01*
X131106170Y-64385275D01*
X131274478Y-64147040D01*
X131729854Y-63467532D01*
X132042825Y-62888518D01*
X132072200Y-62814095D01*
X132114945Y-62468511D01*
X131794728Y-62472475D01*
X131710686Y-62497902D01*
X131359685Y-62602650D01*
X131224436Y-62547465D01*
X131290242Y-62219795D01*
X131542408Y-61507088D01*
X131570974Y-61427894D01*
X131890751Y-60355124D01*
X131941450Y-59676421D01*
X131721062Y-59423570D01*
X131697698Y-59422631D01*
X131349956Y-59563926D01*
X130701980Y-59935459D01*
X129890119Y-60458699D01*
X129840789Y-60492105D01*
X129041289Y-61019335D01*
X128417944Y-61401326D01*
X128097399Y-61560750D01*
X128089203Y-61561579D01*
X127818313Y-61372768D01*
X127404499Y-60915588D01*
X127382504Y-60887816D01*
X126734266Y-60255613D01*
X126087301Y-59818342D01*
X125503250Y-59551780D01*
X125128345Y-59439463D01*
X125059494Y-59494257D01*
X125387420Y-59725435D01*
X125933619Y-60296173D01*
X126326373Y-61162963D01*
X126474076Y-62090709D01*
X126442643Y-62433525D01*
X126145781Y-63079378D01*
X125587938Y-63748913D01*
X124936015Y-64277951D01*
X124356915Y-64502313D01*
X124339223Y-64502631D01*
X124155405Y-64395164D01*
X124039272Y-64016080D01*
X123978006Y-63280354D01*
X123958789Y-62102963D01*
X123958684Y-61978410D01*
X123937594Y-60871896D01*
X123880970Y-59982135D01*
X123798782Y-59433802D01*
X123746325Y-59322945D01*
X123297947Y-59316996D01*
X122623631Y-59583225D01*
G36*
X124460998Y-61357669D02*
G01*
X124244551Y-61838472D01*
X124447361Y-62436998D01*
X124504081Y-62510212D01*
X124903055Y-62856839D01*
X125327534Y-62776870D01*
X125519445Y-62663563D01*
X125763758Y-62249645D01*
X125786814Y-61798710D01*
X125565382Y-61296376D01*
X125031819Y-61160526D01*
X124460998Y-61357669D01*
G37*
X124460998Y-61357669D02*
X124244551Y-61838472D01*
X124447361Y-62436998D01*
X124504081Y-62510212D01*
X124903055Y-62856839D01*
X125327534Y-62776870D01*
X125519445Y-62663563D01*
X125763758Y-62249645D01*
X125786814Y-61798710D01*
X125565382Y-61296376D01*
X125031819Y-61160526D01*
X124460998Y-61357669D01*
%TD*%
M02*
