G04 #@! TF.GenerationSoftware,KiCad,Pcbnew,(5.1.6)-1*
G04 #@! TF.CreationDate,2020-08-23T14:34:22+05:30*
G04 #@! TF.ProjectId,PCB board,50434220-626f-4617-9264-2e6b69636164,rev?*
G04 #@! TF.SameCoordinates,Original*
G04 #@! TF.FileFunction,Soldermask,Top*
G04 #@! TF.FilePolarity,Negative*
%FSLAX46Y46*%
G04 Gerber Fmt 4.6, Leading zero omitted, Abs format (unit mm)*
G04 Created by KiCad (PCBNEW (5.1.6)-1) date 2020-08-23 14:34:22*
%MOMM*%
%LPD*%
G01*
G04 APERTURE LIST*
%ADD10R,2.200000X2.200000*%
%ADD11C,2.200000*%
%ADD12C,3.297860*%
%ADD13O,1.624000X2.297100*%
%ADD14O,2.098980X1.639240*%
%ADD15O,2.098980X1.636700*%
%ADD16O,1.624000X2.299640*%
G04 APERTURE END LIST*
D10*
X149860000Y-58420000D03*
D11*
X149860000Y-60960000D03*
X149860000Y-63500000D03*
D12*
X162620001Y-86550501D03*
D13*
X115376001Y-71310501D03*
X117916001Y-71310501D03*
D12*
X111820001Y-71310501D03*
X186750001Y-71310501D03*
D13*
X120456001Y-71310501D03*
X122996001Y-71310501D03*
X125536001Y-71310501D03*
X128076001Y-71310501D03*
X130616001Y-71310501D03*
X133156001Y-71310501D03*
X135696001Y-71310501D03*
X138236001Y-71310501D03*
X142300001Y-71310501D03*
X144840001Y-71310501D03*
X147380001Y-71310501D03*
X149920001Y-71310501D03*
X152460001Y-71310501D03*
X155000001Y-71310501D03*
X157540001Y-71310501D03*
X160080001Y-71310501D03*
X165160001Y-71310501D03*
X167700001Y-71310501D03*
X170240001Y-71310501D03*
X172780001Y-71310501D03*
X175320001Y-71310501D03*
X177860001Y-71310501D03*
X180400001Y-71310501D03*
X182940001Y-71310501D03*
D14*
X190311081Y-86550501D03*
X190311081Y-89090501D03*
X190311081Y-91630501D03*
X190311081Y-94170501D03*
X190311081Y-96710501D03*
X190311081Y-99250501D03*
X190311081Y-101790501D03*
X190311081Y-104330501D03*
D15*
X193346381Y-111950501D03*
X193346381Y-114490501D03*
D14*
X190311081Y-71310501D03*
X190311081Y-73850501D03*
X190311081Y-76390501D03*
X190311081Y-78930501D03*
X190311081Y-81470501D03*
X190311081Y-84010501D03*
D15*
X193346381Y-91630501D03*
X193346381Y-94170501D03*
X193346381Y-96710501D03*
X193346381Y-99250501D03*
X193346381Y-101790501D03*
X193346381Y-104330501D03*
X193346381Y-106870501D03*
X193346381Y-109410501D03*
D13*
X185480001Y-119570501D03*
X182940001Y-119570501D03*
X180400001Y-119570501D03*
X177860001Y-119570501D03*
D16*
X175320001Y-119570501D03*
X172780001Y-119570501D03*
X170240001Y-119570501D03*
X165160001Y-119570501D03*
X129600001Y-119570501D03*
X127060001Y-119570501D03*
X124520001Y-119570501D03*
X139760001Y-119570501D03*
X137220001Y-119570501D03*
X134680001Y-119570501D03*
X132140001Y-119570501D03*
X162620001Y-119570501D03*
X160080001Y-119570501D03*
X157540001Y-119570501D03*
X155000001Y-119570501D03*
X152460001Y-119570501D03*
X149920001Y-119570501D03*
X147380001Y-119570501D03*
X142300001Y-119570501D03*
D15*
X193346381Y-71310501D03*
X193346381Y-73850501D03*
X193346381Y-76390501D03*
X193346381Y-78930501D03*
X193346381Y-81470501D03*
X193346381Y-84010501D03*
X193346381Y-86550501D03*
X193346381Y-89090501D03*
D14*
X190311081Y-106870501D03*
X190311081Y-109410501D03*
X190311081Y-111950501D03*
X190311081Y-114490501D03*
D12*
X193100001Y-119570501D03*
X162620001Y-114490501D03*
X110550001Y-119570501D03*
D13*
X188020001Y-119570501D03*
D10*
X205740000Y-72390000D03*
D11*
X205740000Y-69850000D03*
X205740000Y-67310000D03*
X205740000Y-77470000D03*
X205740000Y-80010000D03*
D10*
X205740000Y-82550000D03*
D11*
X139700000Y-63500000D03*
X139700000Y-60960000D03*
D10*
X139700000Y-58420000D03*
X101600000Y-58420000D03*
D11*
X101600000Y-60960000D03*
D10*
X205740000Y-95250000D03*
D11*
X205740000Y-92710000D03*
X205740000Y-90170000D03*
X205740000Y-87630000D03*
X128270000Y-63500000D03*
X128270000Y-60960000D03*
D10*
X128270000Y-58420000D03*
X171450000Y-58420000D03*
D11*
X171450000Y-60960000D03*
X171450000Y-63500000D03*
X180340000Y-63500000D03*
X180340000Y-60960000D03*
D10*
X180340000Y-58420000D03*
X162560000Y-58420000D03*
D11*
X162560000Y-60960000D03*
X162560000Y-63500000D03*
D10*
X111760000Y-58420000D03*
D11*
X111760000Y-60960000D03*
M02*
