G04 #@! TF.GenerationSoftware,KiCad,Pcbnew,(5.1.6)-1*
G04 #@! TF.CreationDate,2020-09-27T17:04:44+05:30*
G04 #@! TF.ProjectId,PCB board,50434220-626f-4617-9264-2e6b69636164,rev?*
G04 #@! TF.SameCoordinates,Original*
G04 #@! TF.FileFunction,Copper,L2,Bot*
G04 #@! TF.FilePolarity,Positive*
%FSLAX46Y46*%
G04 Gerber Fmt 4.6, Leading zero omitted, Abs format (unit mm)*
G04 Created by KiCad (PCBNEW (5.1.6)-1) date 2020-09-27 17:04:44*
%MOMM*%
%LPD*%
G01*
G04 APERTURE LIST*
G04 #@! TA.AperFunction,NonConductor*
%ADD10C,0.200000*%
G04 #@! TD*
G04 #@! TA.AperFunction,NonConductor*
%ADD11C,0.150000*%
G04 #@! TD*
G04 #@! TA.AperFunction,NonConductor*
%ADD12C,0.300000*%
G04 #@! TD*
G04 #@! TA.AperFunction,ComponentPad*
%ADD13O,1.600000X2.200000*%
G04 #@! TD*
G04 #@! TA.AperFunction,ComponentPad*
%ADD14O,2.200000X1.600000*%
G04 #@! TD*
G04 #@! TA.AperFunction,ComponentPad*
%ADD15O,1.524000X2.197100*%
G04 #@! TD*
G04 #@! TA.AperFunction,ComponentPad*
%ADD16O,1.998980X1.539240*%
G04 #@! TD*
G04 #@! TA.AperFunction,ComponentPad*
%ADD17O,1.998980X1.536700*%
G04 #@! TD*
G04 #@! TA.AperFunction,ComponentPad*
%ADD18O,1.524000X2.199640*%
G04 #@! TD*
G04 #@! TA.AperFunction,ComponentPad*
%ADD19C,5.000000*%
G04 #@! TD*
G04 #@! TA.AperFunction,ComponentPad*
%ADD20R,2.100000X2.100000*%
G04 #@! TD*
G04 #@! TA.AperFunction,ComponentPad*
%ADD21C,2.100000*%
G04 #@! TD*
G04 #@! TA.AperFunction,ComponentPad*
%ADD22O,2.400000X1.600000*%
G04 #@! TD*
G04 #@! TA.AperFunction,Conductor*
%ADD23C,1.000000*%
G04 #@! TD*
G04 #@! TA.AperFunction,Conductor*
%ADD24C,0.500000*%
G04 #@! TD*
G04 APERTURE END LIST*
D10*
X179792380Y-93488000D02*
X179792380Y-94059428D01*
X180792380Y-93773714D02*
X179792380Y-93773714D01*
X179792380Y-94297523D02*
X180792380Y-94964190D01*
X179792380Y-94964190D02*
X180792380Y-94297523D01*
X180792380Y-95345142D02*
X179792380Y-95345142D01*
X176839619Y-94670476D02*
X177315809Y-95003809D01*
X176839619Y-95241904D02*
X177839619Y-95241904D01*
X177839619Y-94860952D01*
X177792000Y-94765714D01*
X177744380Y-94718095D01*
X177649142Y-94670476D01*
X177506285Y-94670476D01*
X177411047Y-94718095D01*
X177363428Y-94765714D01*
X177315809Y-94860952D01*
X177315809Y-95241904D01*
X177839619Y-94337142D02*
X176839619Y-93670476D01*
X177839619Y-93670476D02*
X176839619Y-94337142D01*
X177839619Y-93099047D02*
X177839619Y-92908571D01*
X177792000Y-92813333D01*
X177696761Y-92718095D01*
X177506285Y-92670476D01*
X177172952Y-92670476D01*
X176982476Y-92718095D01*
X176887238Y-92813333D01*
X176839619Y-92908571D01*
X176839619Y-93099047D01*
X176887238Y-93194285D01*
X176982476Y-93289523D01*
X177172952Y-93337142D01*
X177506285Y-93337142D01*
X177696761Y-93289523D01*
X177792000Y-93194285D01*
X177839619Y-93099047D01*
X175252000Y-94726095D02*
X175299619Y-94821333D01*
X175299619Y-94964190D01*
X175252000Y-95107047D01*
X175156761Y-95202285D01*
X175061523Y-95249904D01*
X174871047Y-95297523D01*
X174728190Y-95297523D01*
X174537714Y-95249904D01*
X174442476Y-95202285D01*
X174347238Y-95107047D01*
X174299619Y-94964190D01*
X174299619Y-94868952D01*
X174347238Y-94726095D01*
X174394857Y-94678476D01*
X174728190Y-94678476D01*
X174728190Y-94868952D01*
X174299619Y-94249904D02*
X175299619Y-94249904D01*
X175299619Y-94011809D01*
X175252000Y-93868952D01*
X175156761Y-93773714D01*
X175061523Y-93726095D01*
X174871047Y-93678476D01*
X174728190Y-93678476D01*
X174537714Y-93726095D01*
X174442476Y-93773714D01*
X174347238Y-93868952D01*
X174299619Y-94011809D01*
X174299619Y-94249904D01*
X171759619Y-94607047D02*
X171759619Y-95083238D01*
X172759619Y-95083238D01*
X172759619Y-94416571D02*
X171759619Y-94083238D01*
X172759619Y-93749904D01*
D11*
X171465714Y-58491428D02*
X170703809Y-58491428D01*
X171084761Y-58872380D02*
X171084761Y-58110476D01*
X169751428Y-57872380D02*
X170227619Y-57872380D01*
X170275238Y-58348571D01*
X170227619Y-58300952D01*
X170132380Y-58253333D01*
X169894285Y-58253333D01*
X169799047Y-58300952D01*
X169751428Y-58348571D01*
X169703809Y-58443809D01*
X169703809Y-58681904D01*
X169751428Y-58777142D01*
X169799047Y-58824761D01*
X169894285Y-58872380D01*
X170132380Y-58872380D01*
X170227619Y-58824761D01*
X170275238Y-58777142D01*
X169418095Y-57872380D02*
X169084761Y-58872380D01*
X168751428Y-57872380D01*
D12*
X164718857Y-50558000D02*
X164861714Y-50486571D01*
X165076000Y-50486571D01*
X165290285Y-50558000D01*
X165433142Y-50700857D01*
X165504571Y-50843714D01*
X165576000Y-51129428D01*
X165576000Y-51343714D01*
X165504571Y-51629428D01*
X165433142Y-51772285D01*
X165290285Y-51915142D01*
X165076000Y-51986571D01*
X164933142Y-51986571D01*
X164718857Y-51915142D01*
X164647428Y-51843714D01*
X164647428Y-51343714D01*
X164933142Y-51343714D01*
X164004571Y-51986571D02*
X164004571Y-50486571D01*
X163147428Y-51986571D01*
X163147428Y-50486571D01*
X162433142Y-51986571D02*
X162433142Y-50486571D01*
X162076000Y-50486571D01*
X161861714Y-50558000D01*
X161718857Y-50700857D01*
X161647428Y-50843714D01*
X161576000Y-51129428D01*
X161576000Y-51343714D01*
X161647428Y-51629428D01*
X161718857Y-51772285D01*
X161861714Y-51915142D01*
X162076000Y-51986571D01*
X162433142Y-51986571D01*
X146062000Y-109601142D02*
X145990571Y-109458285D01*
X145990571Y-109244000D01*
X146062000Y-109029714D01*
X146204857Y-108886857D01*
X146347714Y-108815428D01*
X146633428Y-108744000D01*
X146847714Y-108744000D01*
X147133428Y-108815428D01*
X147276285Y-108886857D01*
X147419142Y-109029714D01*
X147490571Y-109244000D01*
X147490571Y-109386857D01*
X147419142Y-109601142D01*
X147347714Y-109672571D01*
X146847714Y-109672571D01*
X146847714Y-109386857D01*
X147490571Y-110315428D02*
X145990571Y-110315428D01*
X147490571Y-111172571D01*
X145990571Y-111172571D01*
X147490571Y-111886857D02*
X145990571Y-111886857D01*
X145990571Y-112244000D01*
X146062000Y-112458285D01*
X146204857Y-112601142D01*
X146347714Y-112672571D01*
X146633428Y-112744000D01*
X146847714Y-112744000D01*
X147133428Y-112672571D01*
X147276285Y-112601142D01*
X147419142Y-112458285D01*
X147490571Y-112244000D01*
X147490571Y-111886857D01*
X143267714Y-111446571D02*
X142767714Y-112946571D01*
X142267714Y-111446571D01*
X141767714Y-112946571D02*
X141767714Y-111946571D01*
X141767714Y-111446571D02*
X141839142Y-111518000D01*
X141767714Y-111589428D01*
X141696285Y-111518000D01*
X141767714Y-111446571D01*
X141767714Y-111589428D01*
X141053428Y-111946571D02*
X141053428Y-112946571D01*
X141053428Y-112089428D02*
X140982000Y-112018000D01*
X140839142Y-111946571D01*
X140624857Y-111946571D01*
X140482000Y-112018000D01*
X140410571Y-112160857D01*
X140410571Y-112946571D01*
X209403142Y-116943428D02*
X209403142Y-118086285D01*
X209974571Y-117514857D02*
X208831714Y-117514857D01*
X208474571Y-119514857D02*
X208474571Y-118800571D01*
X209188857Y-118729142D01*
X209117428Y-118800571D01*
X209046000Y-118943428D01*
X209046000Y-119300571D01*
X209117428Y-119443428D01*
X209188857Y-119514857D01*
X209331714Y-119586285D01*
X209688857Y-119586285D01*
X209831714Y-119514857D01*
X209903142Y-119443428D01*
X209974571Y-119300571D01*
X209974571Y-118943428D01*
X209903142Y-118800571D01*
X209831714Y-118729142D01*
X208474571Y-120014857D02*
X209974571Y-120514857D01*
X208474571Y-121014857D01*
X201942000Y-116713142D02*
X201870571Y-116570285D01*
X201870571Y-116356000D01*
X201942000Y-116141714D01*
X202084857Y-115998857D01*
X202227714Y-115927428D01*
X202513428Y-115856000D01*
X202727714Y-115856000D01*
X203013428Y-115927428D01*
X203156285Y-115998857D01*
X203299142Y-116141714D01*
X203370571Y-116356000D01*
X203370571Y-116498857D01*
X203299142Y-116713142D01*
X203227714Y-116784571D01*
X202727714Y-116784571D01*
X202727714Y-116498857D01*
X203370571Y-117427428D02*
X201870571Y-117427428D01*
X203370571Y-118284571D01*
X201870571Y-118284571D01*
X203370571Y-118998857D02*
X201870571Y-118998857D01*
X201870571Y-119356000D01*
X201942000Y-119570285D01*
X202084857Y-119713142D01*
X202227714Y-119784571D01*
X202513428Y-119856000D01*
X202727714Y-119856000D01*
X203013428Y-119784571D01*
X203156285Y-119713142D01*
X203299142Y-119570285D01*
X203370571Y-119356000D01*
X203370571Y-118998857D01*
X214780571Y-61575142D02*
X213637714Y-61575142D01*
X214209142Y-62146571D02*
X214209142Y-61003714D01*
X212209142Y-60646571D02*
X212923428Y-60646571D01*
X212994857Y-61360857D01*
X212923428Y-61289428D01*
X212780571Y-61218000D01*
X212423428Y-61218000D01*
X212280571Y-61289428D01*
X212209142Y-61360857D01*
X212137714Y-61503714D01*
X212137714Y-61860857D01*
X212209142Y-62003714D01*
X212280571Y-62075142D01*
X212423428Y-62146571D01*
X212780571Y-62146571D01*
X212923428Y-62075142D01*
X212994857Y-62003714D01*
X211709142Y-60646571D02*
X211209142Y-62146571D01*
X210709142Y-60646571D01*
X213486857Y-57162000D02*
X213629714Y-57090571D01*
X213844000Y-57090571D01*
X214058285Y-57162000D01*
X214201142Y-57304857D01*
X214272571Y-57447714D01*
X214344000Y-57733428D01*
X214344000Y-57947714D01*
X214272571Y-58233428D01*
X214201142Y-58376285D01*
X214058285Y-58519142D01*
X213844000Y-58590571D01*
X213701142Y-58590571D01*
X213486857Y-58519142D01*
X213415428Y-58447714D01*
X213415428Y-57947714D01*
X213701142Y-57947714D01*
X212772571Y-58590571D02*
X212772571Y-57090571D01*
X211915428Y-58590571D01*
X211915428Y-57090571D01*
X211201142Y-58590571D02*
X211201142Y-57090571D01*
X210844000Y-57090571D01*
X210629714Y-57162000D01*
X210486857Y-57304857D01*
X210415428Y-57447714D01*
X210344000Y-57733428D01*
X210344000Y-57947714D01*
X210415428Y-58233428D01*
X210486857Y-58376285D01*
X210629714Y-58519142D01*
X210844000Y-58590571D01*
X211201142Y-58590571D01*
X98956571Y-61067142D02*
X97813714Y-61067142D01*
X98385142Y-61638571D02*
X98385142Y-60495714D01*
X96385142Y-60138571D02*
X97099428Y-60138571D01*
X97170857Y-60852857D01*
X97099428Y-60781428D01*
X96956571Y-60710000D01*
X96599428Y-60710000D01*
X96456571Y-60781428D01*
X96385142Y-60852857D01*
X96313714Y-60995714D01*
X96313714Y-61352857D01*
X96385142Y-61495714D01*
X96456571Y-61567142D01*
X96599428Y-61638571D01*
X96956571Y-61638571D01*
X97099428Y-61567142D01*
X97170857Y-61495714D01*
X95885142Y-60138571D02*
X95385142Y-61638571D01*
X94885142Y-60138571D01*
X98170857Y-57670000D02*
X98313714Y-57598571D01*
X98528000Y-57598571D01*
X98742285Y-57670000D01*
X98885142Y-57812857D01*
X98956571Y-57955714D01*
X99028000Y-58241428D01*
X99028000Y-58455714D01*
X98956571Y-58741428D01*
X98885142Y-58884285D01*
X98742285Y-59027142D01*
X98528000Y-59098571D01*
X98385142Y-59098571D01*
X98170857Y-59027142D01*
X98099428Y-58955714D01*
X98099428Y-58455714D01*
X98385142Y-58455714D01*
X97456571Y-59098571D02*
X97456571Y-57598571D01*
X96599428Y-59098571D01*
X96599428Y-57598571D01*
X95885142Y-59098571D02*
X95885142Y-57598571D01*
X95528000Y-57598571D01*
X95313714Y-57670000D01*
X95170857Y-57812857D01*
X95099428Y-57955714D01*
X95028000Y-58241428D01*
X95028000Y-58455714D01*
X95099428Y-58741428D01*
X95170857Y-58884285D01*
X95313714Y-59027142D01*
X95528000Y-59098571D01*
X95885142Y-59098571D01*
D13*
X209804000Y-111252000D03*
D14*
X206248000Y-63500000D03*
X101600000Y-60452000D03*
D13*
X206756000Y-72644000D03*
X201676000Y-72644000D03*
X153416000Y-78232000D03*
X148336000Y-78232000D03*
X147320000Y-104140000D03*
X142240000Y-104140000D03*
X147320000Y-99060000D03*
X142240000Y-99060000D03*
D15*
X115376001Y-71310501D03*
X117916001Y-71310501D03*
X120456001Y-71310501D03*
X122996001Y-71310501D03*
X125536001Y-71310501D03*
X128076001Y-71310501D03*
X130616001Y-71310501D03*
X133156001Y-71310501D03*
X135696001Y-71310501D03*
X138236001Y-71310501D03*
X142300001Y-71310501D03*
X144840001Y-71310501D03*
X147380001Y-71310501D03*
X149920001Y-71310501D03*
X152460001Y-71310501D03*
X155000001Y-71310501D03*
X157540001Y-71310501D03*
X160080001Y-71310501D03*
X165160001Y-71310501D03*
X167700001Y-71310501D03*
X170240001Y-71310501D03*
X172780001Y-71310501D03*
X175320001Y-71310501D03*
X177860001Y-71310501D03*
X180400001Y-71310501D03*
X182940001Y-71310501D03*
D16*
X190311081Y-86550501D03*
X190311081Y-89090501D03*
X190311081Y-91630501D03*
X190311081Y-94170501D03*
X190311081Y-96710501D03*
X190311081Y-99250501D03*
X190311081Y-101790501D03*
X190311081Y-104330501D03*
D17*
X193346381Y-111950501D03*
X193346381Y-114490501D03*
D16*
X190311081Y-71310501D03*
X190311081Y-73850501D03*
X190311081Y-76390501D03*
X190311081Y-78930501D03*
X190311081Y-81470501D03*
X190311081Y-84010501D03*
D17*
X193346381Y-91630501D03*
X193346381Y-94170501D03*
X193346381Y-96710501D03*
X193346381Y-99250501D03*
X193346381Y-101790501D03*
X193346381Y-104330501D03*
X193346381Y-106870501D03*
X193346381Y-109410501D03*
D15*
X185480001Y-119570501D03*
X182940001Y-119570501D03*
X180400001Y-119570501D03*
X177860001Y-119570501D03*
D18*
X175320001Y-119570501D03*
X172780001Y-119570501D03*
X170240001Y-119570501D03*
X165160001Y-119570501D03*
X129600001Y-119570501D03*
X127060001Y-119570501D03*
X124520001Y-119570501D03*
X139760001Y-119570501D03*
X137220001Y-119570501D03*
X134680001Y-119570501D03*
X132140001Y-119570501D03*
X162620001Y-119570501D03*
X160080001Y-119570501D03*
X157540001Y-119570501D03*
X155000001Y-119570501D03*
X152460001Y-119570501D03*
X149920001Y-119570501D03*
X147380001Y-119570501D03*
X142300001Y-119570501D03*
D17*
X193346381Y-71310501D03*
X193346381Y-73850501D03*
X193346381Y-76390501D03*
X193346381Y-78930501D03*
X193346381Y-81470501D03*
X193346381Y-84010501D03*
X193346381Y-86550501D03*
X193346381Y-89090501D03*
D16*
X190311081Y-106870501D03*
X190311081Y-109410501D03*
X190311081Y-111950501D03*
X190311081Y-114490501D03*
D15*
X188020001Y-119570501D03*
D19*
X92964000Y-52324000D03*
X92964000Y-127000000D03*
X214376000Y-127508000D03*
X214376000Y-52324000D03*
D20*
X204724000Y-102616000D03*
D21*
X207264000Y-102616000D03*
X207264000Y-111252000D03*
D20*
X204724000Y-111252000D03*
X176530000Y-58420000D03*
D21*
X176530000Y-60960000D03*
X176530000Y-63500000D03*
X149225000Y-63500000D03*
X149225000Y-60960000D03*
D20*
X149225000Y-58420000D03*
D21*
X139700000Y-63500000D03*
X139700000Y-60960000D03*
D20*
X139700000Y-58420000D03*
D21*
X128270000Y-63500000D03*
X128270000Y-60960000D03*
D20*
X128270000Y-58420000D03*
X111760000Y-58420000D03*
D21*
X111760000Y-60960000D03*
D20*
X119380000Y-58420000D03*
D21*
X119380000Y-60960000D03*
X151130000Y-90170000D03*
X151130000Y-87630000D03*
X151130000Y-85090000D03*
D20*
X151130000Y-82550000D03*
X139700000Y-82550000D03*
D21*
X139700000Y-85090000D03*
X139700000Y-87630000D03*
X139700000Y-90170000D03*
D20*
X204470000Y-91440000D03*
D21*
X204470000Y-88900000D03*
X204470000Y-86360000D03*
X204470000Y-83820000D03*
X204470000Y-81280000D03*
X204470000Y-78740000D03*
D20*
X185420000Y-58420000D03*
D21*
X185420000Y-60960000D03*
X185420000Y-63500000D03*
D20*
X194056000Y-55880000D03*
D21*
X194056000Y-58420000D03*
X194056000Y-60960000D03*
X194056000Y-63500000D03*
D20*
X206248000Y-58420000D03*
D21*
X206248000Y-60960000D03*
D20*
X159004000Y-53340000D03*
D21*
X159004000Y-55880000D03*
X159004000Y-58420000D03*
X159004000Y-60960000D03*
X159004000Y-63500000D03*
D20*
X167640000Y-53340000D03*
D21*
X167640000Y-55880000D03*
X167640000Y-58420000D03*
X167640000Y-60960000D03*
X167640000Y-63500000D03*
D13*
X167386000Y-84074000D03*
X169926000Y-84074000D03*
X172466000Y-84074000D03*
X175006000Y-84074000D03*
X177546000Y-84074000D03*
X180086000Y-84074000D03*
X180086000Y-96774000D03*
X177546000Y-96774000D03*
X175006000Y-96774000D03*
X172466000Y-96774000D03*
X169926000Y-96774000D03*
X167386000Y-96774000D03*
D22*
X101600000Y-62992000D03*
X101600000Y-57912000D03*
D23*
X175260000Y-89916000D02*
X175260000Y-85344000D01*
X173228000Y-91948000D02*
X175260000Y-89916000D01*
X156972000Y-78232000D02*
X158496000Y-79756000D01*
X153416000Y-78232000D02*
X156972000Y-78232000D01*
X158496000Y-79756000D02*
X158496000Y-89408000D01*
X158496000Y-89408000D02*
X161036000Y-91948000D01*
X161036000Y-91948000D02*
X173228000Y-91948000D01*
X101600000Y-58420000D02*
X111760000Y-58420000D01*
X111760000Y-58420000D02*
X128270000Y-58420000D01*
X176530000Y-58420000D02*
X185420000Y-58420000D01*
X139700000Y-58420000D02*
X128270000Y-58420000D01*
X139700000Y-58420000D02*
X149225000Y-58420000D01*
X149225000Y-58420000D02*
X151384000Y-58420000D01*
X156464000Y-53340000D02*
X159004000Y-53340000D01*
X154432000Y-55880000D02*
X154178000Y-55626000D01*
X151384000Y-58420000D02*
X154178000Y-55626000D01*
X159004000Y-55880000D02*
X154432000Y-55880000D01*
X154178000Y-55626000D02*
X156464000Y-53340000D01*
X173736000Y-58420000D02*
X176530000Y-58420000D01*
X159004000Y-53340000D02*
X171196000Y-53340000D01*
X171196000Y-53340000D02*
X173736000Y-58420000D01*
X159004000Y-55880000D02*
X167640000Y-55880000D01*
X139760001Y-123250001D02*
X139760001Y-119570501D01*
X144780000Y-96520000D02*
X144780000Y-121920000D01*
X151130000Y-90170000D02*
X144780000Y-96520000D01*
X144780000Y-121920000D02*
X142748000Y-123444000D01*
X142748000Y-123444000D02*
X140970000Y-123444000D01*
X140970000Y-123444000D02*
X139760001Y-123250001D01*
X204724000Y-102616000D02*
X204724000Y-111252000D01*
X204724000Y-111252000D02*
X204724000Y-119380000D01*
X200660000Y-123444000D02*
X142748000Y-123444000D01*
X204724000Y-119380000D02*
X200660000Y-123444000D01*
X204724000Y-96520000D02*
X204724000Y-102616000D01*
X207772000Y-93980000D02*
X204724000Y-96520000D01*
X207772000Y-82804000D02*
X207772000Y-93980000D01*
X204470000Y-81280000D02*
X206756000Y-81280000D01*
X206756000Y-81280000D02*
X207772000Y-82804000D01*
X185420000Y-58420000D02*
X188976000Y-58420000D01*
X188976000Y-58420000D02*
X191516000Y-55880000D01*
X191516000Y-55880000D02*
X194056000Y-55880000D01*
X194056000Y-55880000D02*
X201676000Y-55880000D01*
X204216000Y-58420000D02*
X205555990Y-58420000D01*
X201676000Y-55880000D02*
X204216000Y-58420000D01*
X151130000Y-90170000D02*
X145034000Y-90170000D01*
X139700000Y-90170000D02*
X145034000Y-90170000D01*
X146812000Y-78232000D02*
X148336000Y-78232000D01*
X145288000Y-79756000D02*
X146812000Y-78232000D01*
X145288000Y-88900000D02*
X145288000Y-79756000D01*
X139700000Y-90170000D02*
X144018000Y-90170000D01*
X144018000Y-90170000D02*
X145288000Y-88900000D01*
X201676000Y-79248000D02*
X201676000Y-72644000D01*
X204470000Y-81280000D02*
X201676000Y-81280000D01*
X201676000Y-81280000D02*
X201676000Y-79248000D01*
X208788000Y-58420000D02*
X206756000Y-58420000D01*
X208788000Y-70104000D02*
X208788000Y-58420000D01*
X208788000Y-70104000D02*
X208788000Y-70612000D01*
X208788000Y-70612000D02*
X207264000Y-72136000D01*
X111760000Y-60960000D02*
X128270000Y-60960000D01*
X120650000Y-116840000D02*
X123190000Y-114300000D01*
X123190000Y-114300000D02*
X142240000Y-114300000D01*
X142240000Y-114300000D02*
X142300001Y-119570501D01*
X139700000Y-60960000D02*
X128270000Y-60960000D01*
X139700000Y-60960000D02*
X149225000Y-60960000D01*
X149225000Y-60960000D02*
X153416000Y-60960000D01*
X155956000Y-58420000D02*
X159004000Y-58420000D01*
X153416000Y-60960000D02*
X155956000Y-58420000D01*
X159004000Y-58420000D02*
X167640000Y-58420000D01*
X207264000Y-102616000D02*
X207264000Y-111252000D01*
X120650000Y-122174000D02*
X120650000Y-116840000D01*
X124136010Y-125660010D02*
X120650000Y-122174000D01*
X201491990Y-125660010D02*
X124136010Y-125660010D01*
X207264000Y-111252000D02*
X207264000Y-119888000D01*
X207264000Y-119888000D02*
X201491990Y-125660010D01*
X204470000Y-78740000D02*
X204470000Y-66294000D01*
X206248000Y-64516000D02*
X206248000Y-60960000D01*
X204470000Y-66294000D02*
X206248000Y-64516000D01*
X207264000Y-98044000D02*
X207264000Y-102616000D01*
X209804000Y-95504000D02*
X207264000Y-98044000D01*
X209804000Y-81280000D02*
X209804000Y-95504000D01*
X204470000Y-78740000D02*
X207264000Y-78740000D01*
X207264000Y-78740000D02*
X209804000Y-81280000D01*
X203708000Y-60960000D02*
X206248000Y-60960000D01*
X194056000Y-58420000D02*
X201168000Y-58420000D01*
X201168000Y-58420000D02*
X203708000Y-60960000D01*
X172466000Y-81534000D02*
X172466000Y-84582000D01*
X159004000Y-58420000D02*
X162560000Y-58420000D01*
X162560000Y-58420000D02*
X162560000Y-75692000D01*
X162560000Y-75692000D02*
X167640000Y-80264000D01*
X167640000Y-80264000D02*
X171196000Y-80264000D01*
X171196000Y-80264000D02*
X172466000Y-81534000D01*
X101600000Y-62992000D02*
X111760000Y-60960000D01*
X120650000Y-116840000D02*
X101600000Y-97790000D01*
X101600000Y-97790000D02*
X101600000Y-62992000D01*
D24*
X128270000Y-71116502D02*
X128076001Y-71310501D01*
X128270000Y-63500000D02*
X128270000Y-71116502D01*
X157249999Y-71020499D02*
X157540001Y-71310501D01*
X157540001Y-67370001D02*
X157540001Y-71310501D01*
X158750000Y-60960000D02*
X156210000Y-62230000D01*
X156210000Y-66040000D02*
X157540001Y-67370001D01*
X156210000Y-62230000D02*
X156210000Y-66040000D01*
X176530000Y-60960000D02*
X173990000Y-60960000D01*
X170240001Y-64709999D02*
X170240001Y-71310501D01*
X173990000Y-60960000D02*
X170240001Y-64709999D01*
X165100000Y-69807941D02*
X165160001Y-71310501D01*
X167640000Y-60960000D02*
X165100000Y-60960000D01*
X165100000Y-60960000D02*
X165100000Y-69807941D01*
X170240001Y-71310501D02*
X170240001Y-74736001D01*
X177546000Y-82042000D02*
X177546000Y-84582000D01*
X170240001Y-74736001D02*
X177546000Y-82042000D01*
X167640000Y-71250500D02*
X167700001Y-71310501D01*
X167640000Y-63500000D02*
X167640000Y-71250500D01*
X176530000Y-63500000D02*
X173990000Y-63500000D01*
X172780001Y-64709999D02*
X172780001Y-71310501D01*
X173990000Y-63500000D02*
X172780001Y-64709999D01*
X160080001Y-67310000D02*
X160080001Y-71310501D01*
X158750000Y-63500000D02*
X158750000Y-66040000D01*
X158750000Y-66040000D02*
X160080001Y-67310000D01*
X179832000Y-81788000D02*
X180086000Y-84582000D01*
X172780001Y-71310501D02*
X172780001Y-75244001D01*
X172780001Y-75244001D02*
X179832000Y-81788000D01*
X155194000Y-85090000D02*
X151130000Y-85090000D01*
X155448000Y-99568000D02*
X155194000Y-85090000D01*
X189293499Y-73850501D02*
X186944000Y-76200000D01*
X190560001Y-73850501D02*
X189293499Y-73850501D01*
X186944000Y-76200000D02*
X182372000Y-76200000D01*
X182372000Y-76200000D02*
X182372000Y-99568000D01*
X182372000Y-99568000D02*
X155448000Y-99568000D01*
X153924000Y-87630000D02*
X151130000Y-87630000D01*
X153924000Y-101092000D02*
X153924000Y-87630000D01*
X188785499Y-76390501D02*
X187452000Y-77724000D01*
X190560001Y-76390501D02*
X188785499Y-76390501D01*
X187452000Y-77724000D02*
X183388000Y-77724000D01*
X183388000Y-77724000D02*
X183388000Y-101092000D01*
X183388000Y-101092000D02*
X153924000Y-101092000D01*
X155000001Y-71310501D02*
X155000001Y-68132001D01*
X150368000Y-63500000D02*
X149225000Y-63500000D01*
X155000001Y-68132001D02*
X150368000Y-63500000D01*
X204470000Y-86360000D02*
X198120000Y-86360000D01*
X197040501Y-86550501D02*
X193100001Y-86550501D01*
X198120000Y-86360000D02*
X197040501Y-86550501D01*
X204470000Y-88900000D02*
X198120000Y-88900000D01*
X197040501Y-89090501D02*
X193100001Y-89090501D01*
X198120000Y-88900000D02*
X197040501Y-89090501D01*
X204470000Y-91440000D02*
X198120000Y-91440000D01*
X197040501Y-91630501D02*
X193100001Y-91630501D01*
X198120000Y-91440000D02*
X197040501Y-91630501D01*
X152460001Y-71310501D02*
X152460001Y-68640001D01*
X152460001Y-68640001D02*
X149860000Y-66040000D01*
X142240000Y-66040000D02*
X139700000Y-63500000D01*
X149860000Y-66040000D02*
X142240000Y-66040000D01*
X204470000Y-83820000D02*
X198120000Y-83820000D01*
X197040501Y-84010501D02*
X193100001Y-84010501D01*
X198120000Y-83820000D02*
X197040501Y-84010501D01*
X139700000Y-74168000D02*
X139700000Y-82550000D01*
X147380001Y-71310501D02*
X147380001Y-74168000D01*
X147380001Y-74168000D02*
X139700000Y-74168000D01*
X139700000Y-87630000D02*
X137160000Y-87630000D01*
X137160000Y-87630000D02*
X137160000Y-99060000D01*
X137160000Y-99060000D02*
X140970000Y-99060000D01*
X140970000Y-99060000D02*
X142240000Y-99060000D01*
X150368000Y-102616000D02*
X150368000Y-99060000D01*
X190560001Y-78930501D02*
X188785499Y-78930501D01*
X188785499Y-78930501D02*
X186944000Y-80772000D01*
X186944000Y-80772000D02*
X184912000Y-80772000D01*
X184912000Y-80772000D02*
X184912000Y-102616000D01*
X184912000Y-102616000D02*
X150368000Y-102616000D01*
X150368000Y-99060000D02*
X147320000Y-99060000D01*
X137160000Y-104140000D02*
X139700000Y-104140000D01*
X134620000Y-104140000D02*
X137160000Y-104140000D01*
X134620000Y-86360000D02*
X134620000Y-104140000D01*
X139700000Y-85090000D02*
X135890000Y-85090000D01*
X135890000Y-85090000D02*
X134620000Y-86360000D01*
X139700000Y-104140000D02*
X140970000Y-104140000D01*
X140970000Y-104140000D02*
X142240000Y-104140000D01*
X185928000Y-104140000D02*
X147828000Y-104140000D01*
X190560001Y-81470501D02*
X185928000Y-82804000D01*
X185928000Y-82804000D02*
X185928000Y-104140000D01*
X149920001Y-71310501D02*
X149920001Y-73212001D01*
X151130000Y-74422000D02*
X151130000Y-82550000D01*
X149920001Y-73212001D02*
X151130000Y-74422000D01*
X185420000Y-63500000D02*
X182880000Y-63500000D01*
X177860001Y-68519999D02*
X177860001Y-71310501D01*
X182880000Y-63500000D02*
X177860001Y-68519999D01*
X185420000Y-60960000D02*
X182880000Y-60960000D01*
X182880000Y-60960000D02*
X175260000Y-68580000D01*
X175320001Y-68640001D02*
X175320001Y-71310501D01*
X175260000Y-68580000D02*
X175320001Y-68640001D01*
X180400001Y-69027999D02*
X180400001Y-71310501D01*
X182880000Y-66548000D02*
X180400001Y-69027999D01*
X194056000Y-60960000D02*
X192024000Y-60960000D01*
X192024000Y-60960000D02*
X189992000Y-62992000D01*
X189992000Y-62992000D02*
X189992000Y-65024000D01*
X189992000Y-65024000D02*
X187452000Y-66548000D01*
X187452000Y-66548000D02*
X182880000Y-66548000D01*
X194056000Y-63500000D02*
X194056000Y-66548000D01*
X194056000Y-66548000D02*
X192532000Y-68072000D01*
X192532000Y-68072000D02*
X183388000Y-68072000D01*
X182940001Y-68519999D02*
X182940001Y-71310501D01*
X183388000Y-68072000D02*
X182940001Y-68519999D01*
M02*
