M48
; DRILL file {KiCad (5.1.6)-1} date 08/27/20 22:58:21
; FORMAT={-:-/ absolute / inch / decimal}
; #@! TF.CreationDate,2020-08-27T22:58:21+05:30
; #@! TF.GenerationSoftware,Kicad,Pcbnew,(5.1.6)-1
; #@! TF.FileFunction,Plated,1,2,PTH
FMAT,2
INCH
T1C0.0315
T2C0.0394
T3C0.0433
%
G90
G05
T1
X5.6Y-4.1
X5.8Y-4.1
X5.6Y-3.9
X5.8Y-3.9
T2
X4.5424Y-2.8075
X4.6424Y-2.8075
X4.7424Y-2.8075
X4.8424Y-2.8075
X4.9024Y-4.7075
X4.9424Y-2.8075
X5.0024Y-4.7075
X5.0424Y-2.8075
X5.1024Y-4.7075
X5.1424Y-2.8075
X5.2024Y-4.7075
X5.2424Y-2.8075
X5.3024Y-4.7075
X5.3424Y-2.8075
X5.4024Y-4.7075
X5.4424Y-2.8075
X5.5024Y-4.7075
X5.6024Y-2.8075
X5.6024Y-4.7075
X5.7024Y-2.8075
X5.8024Y-2.8075
X5.8024Y-4.7075
X5.9024Y-2.8075
X5.9024Y-4.7075
X6.0024Y-2.8075
X6.0024Y-4.7075
X6.1024Y-2.8075
X6.1024Y-4.7075
X6.2024Y-2.8075
X6.2024Y-4.7075
X6.3024Y-2.8075
X6.3024Y-4.7075
X6.4024Y-4.7075
X6.5024Y-2.8075
X6.5024Y-4.7075
X6.6024Y-2.8075
X6.7024Y-2.8075
X6.7024Y-4.7075
X6.8024Y-2.8075
X6.8024Y-4.7075
X6.9024Y-2.8075
X6.9024Y-4.7075
X7.0024Y-2.8075
X7.0024Y-4.7075
X7.1024Y-2.8075
X7.1024Y-4.7075
X7.2024Y-2.8075
X7.2024Y-4.7075
X7.3024Y-4.7075
X7.4024Y-4.7075
X7.5024Y-2.8075
X7.5024Y-2.9075
X7.5024Y-3.0075
X7.5024Y-3.1075
X7.5024Y-3.2075
X7.5024Y-3.3075
X7.5024Y-3.4075
X7.5024Y-3.5075
X7.5024Y-3.6075
X7.5024Y-3.7075
X7.5024Y-3.8075
X7.5024Y-3.9075
X7.5024Y-4.0075
X7.5024Y-4.1075
X7.5024Y-4.2075
X7.5024Y-4.3075
X7.5024Y-4.4075
X7.5024Y-4.5075
X7.6024Y-2.8075
X7.6024Y-2.9075
X7.6024Y-3.0075
X7.6024Y-3.1075
X7.6024Y-3.2075
X7.6024Y-3.3075
X7.6024Y-3.4075
X7.6024Y-3.5075
X7.6024Y-3.6075
X7.6024Y-3.7075
X7.6024Y-3.8075
X7.6024Y-3.9075
X7.6024Y-4.0075
X7.6024Y-4.1075
X7.6024Y-4.2075
X7.6024Y-4.3075
X7.6024Y-4.4075
X7.6024Y-4.5075
T3
X8.12Y-2.32
X8.12Y-2.42
X5.5Y-3.25
X5.5Y-3.35
X5.5Y-3.45
X5.5Y-3.55
X4.0Y-2.3
X4.0Y-2.4
X7.3Y-2.3
X7.3Y-2.4
X7.3Y-2.5
X6.26Y-2.1
X6.26Y-2.2
X6.26Y-2.3
X6.26Y-2.4
X6.26Y-2.5
X8.3Y-4.38
X8.4Y-4.38
X4.4Y-2.3
X4.4Y-2.4
X6.95Y-2.3
X6.95Y-2.4
X6.95Y-2.5
X5.95Y-3.25
X5.95Y-3.35
X5.95Y-3.45
X5.95Y-3.55
X5.5Y-2.3
X5.5Y-2.4
X5.5Y-2.5
X8.05Y-3.1
X8.05Y-3.2
X8.05Y-3.3
X8.05Y-3.4
X8.05Y-3.5
X8.05Y-3.6
X5.05Y-2.3
X5.05Y-2.4
X5.05Y-2.5
X8.3Y-4.04
X8.4Y-4.04
X6.6Y-2.1
X6.6Y-2.2
X6.6Y-2.3
X6.6Y-2.4
X6.6Y-2.5
X7.64Y-2.3
X7.64Y-2.4
X7.64Y-2.5
X7.64Y-2.6
X4.7Y-2.3
X4.7Y-2.4
X5.875Y-2.3
X5.875Y-2.4
X5.875Y-2.5
T0
M30
