G04 #@! TF.GenerationSoftware,KiCad,Pcbnew,(5.1.6)-1*
G04 #@! TF.CreationDate,2020-09-10T09:03:44+05:30*
G04 #@! TF.ProjectId,PCB board,50434220-626f-4617-9264-2e6b69636164,rev?*
G04 #@! TF.SameCoordinates,Original*
G04 #@! TF.FileFunction,Copper,L2,Bot*
G04 #@! TF.FilePolarity,Positive*
%FSLAX46Y46*%
G04 Gerber Fmt 4.6, Leading zero omitted, Abs format (unit mm)*
G04 Created by KiCad (PCBNEW (5.1.6)-1) date 2020-09-10 09:03:44*
%MOMM*%
%LPD*%
G01*
G04 APERTURE LIST*
G04 #@! TA.AperFunction,ComponentPad*
%ADD10C,5.000000*%
G04 #@! TD*
G04 #@! TA.AperFunction,ComponentPad*
%ADD11O,1.600000X1.600000*%
G04 #@! TD*
G04 #@! TA.AperFunction,ComponentPad*
%ADD12C,1.600000*%
G04 #@! TD*
G04 #@! TA.AperFunction,ComponentPad*
%ADD13R,2.100000X2.100000*%
G04 #@! TD*
G04 #@! TA.AperFunction,ComponentPad*
%ADD14C,2.100000*%
G04 #@! TD*
G04 #@! TA.AperFunction,ComponentPad*
%ADD15O,1.524000X2.197100*%
G04 #@! TD*
G04 #@! TA.AperFunction,ComponentPad*
%ADD16O,1.998980X1.539240*%
G04 #@! TD*
G04 #@! TA.AperFunction,ComponentPad*
%ADD17O,1.998980X1.536700*%
G04 #@! TD*
G04 #@! TA.AperFunction,ComponentPad*
%ADD18O,1.524000X2.199640*%
G04 #@! TD*
G04 #@! TA.AperFunction,Conductor*
%ADD19C,1.000000*%
G04 #@! TD*
G04 #@! TA.AperFunction,Conductor*
%ADD20C,0.500000*%
G04 #@! TD*
G04 APERTURE END LIST*
D10*
X92964000Y-52324000D03*
X92964000Y-127000000D03*
X214376000Y-127508000D03*
X214376000Y-52324000D03*
D11*
X208788000Y-72136000D03*
D12*
X201168000Y-72136000D03*
D13*
X204724000Y-102616000D03*
D14*
X207264000Y-102616000D03*
X207264000Y-111252000D03*
D13*
X204724000Y-111252000D03*
D15*
X115376001Y-71310501D03*
X117916001Y-71310501D03*
X120456001Y-71310501D03*
X122996001Y-71310501D03*
X125536001Y-71310501D03*
X128076001Y-71310501D03*
X130616001Y-71310501D03*
X133156001Y-71310501D03*
X135696001Y-71310501D03*
X138236001Y-71310501D03*
X142300001Y-71310501D03*
X144840001Y-71310501D03*
X147380001Y-71310501D03*
X149920001Y-71310501D03*
X152460001Y-71310501D03*
X155000001Y-71310501D03*
X157540001Y-71310501D03*
X160080001Y-71310501D03*
X165160001Y-71310501D03*
X167700001Y-71310501D03*
X170240001Y-71310501D03*
X172780001Y-71310501D03*
X175320001Y-71310501D03*
X177860001Y-71310501D03*
X180400001Y-71310501D03*
X182940001Y-71310501D03*
D16*
X190311081Y-86550501D03*
X190311081Y-89090501D03*
X190311081Y-91630501D03*
X190311081Y-94170501D03*
X190311081Y-96710501D03*
X190311081Y-99250501D03*
X190311081Y-101790501D03*
X190311081Y-104330501D03*
D17*
X193346381Y-111950501D03*
X193346381Y-114490501D03*
D16*
X190311081Y-71310501D03*
X190311081Y-73850501D03*
X190311081Y-76390501D03*
X190311081Y-78930501D03*
X190311081Y-81470501D03*
X190311081Y-84010501D03*
D17*
X193346381Y-91630501D03*
X193346381Y-94170501D03*
X193346381Y-96710501D03*
X193346381Y-99250501D03*
X193346381Y-101790501D03*
X193346381Y-104330501D03*
X193346381Y-106870501D03*
X193346381Y-109410501D03*
D15*
X185480001Y-119570501D03*
X182940001Y-119570501D03*
X180400001Y-119570501D03*
X177860001Y-119570501D03*
D18*
X175320001Y-119570501D03*
X172780001Y-119570501D03*
X170240001Y-119570501D03*
X165160001Y-119570501D03*
X129600001Y-119570501D03*
X127060001Y-119570501D03*
X124520001Y-119570501D03*
X139760001Y-119570501D03*
X137220001Y-119570501D03*
X134680001Y-119570501D03*
X132140001Y-119570501D03*
X162620001Y-119570501D03*
X160080001Y-119570501D03*
X157540001Y-119570501D03*
X155000001Y-119570501D03*
X152460001Y-119570501D03*
X149920001Y-119570501D03*
X147380001Y-119570501D03*
X142300001Y-119570501D03*
D17*
X193346381Y-71310501D03*
X193346381Y-73850501D03*
X193346381Y-76390501D03*
X193346381Y-78930501D03*
X193346381Y-81470501D03*
X193346381Y-84010501D03*
X193346381Y-86550501D03*
X193346381Y-89090501D03*
D16*
X190311081Y-106870501D03*
X190311081Y-109410501D03*
X190311081Y-111950501D03*
X190311081Y-114490501D03*
D15*
X188020001Y-119570501D03*
D11*
X147320000Y-104140000D03*
D12*
X142240000Y-104140000D03*
D11*
X147320000Y-99060000D03*
D12*
X142240000Y-99060000D03*
D13*
X176530000Y-58420000D03*
D14*
X176530000Y-60960000D03*
X176530000Y-63500000D03*
X149225000Y-63500000D03*
X149225000Y-60960000D03*
D13*
X149225000Y-58420000D03*
D14*
X139700000Y-63500000D03*
X139700000Y-60960000D03*
D13*
X139700000Y-58420000D03*
X101600000Y-58420000D03*
D14*
X101600000Y-60960000D03*
X128270000Y-63500000D03*
X128270000Y-60960000D03*
D13*
X128270000Y-58420000D03*
X111760000Y-58420000D03*
D14*
X111760000Y-60960000D03*
D13*
X119380000Y-58420000D03*
D14*
X119380000Y-60960000D03*
X151130000Y-90170000D03*
X151130000Y-87630000D03*
X151130000Y-85090000D03*
D13*
X151130000Y-82550000D03*
X139700000Y-82550000D03*
D14*
X139700000Y-85090000D03*
X139700000Y-87630000D03*
X139700000Y-90170000D03*
D13*
X204470000Y-91440000D03*
D14*
X204470000Y-88900000D03*
X204470000Y-86360000D03*
X204470000Y-83820000D03*
X204470000Y-81280000D03*
X204470000Y-78740000D03*
D13*
X185420000Y-58420000D03*
D14*
X185420000Y-60960000D03*
X185420000Y-63500000D03*
D13*
X194056000Y-58420000D03*
D14*
X194056000Y-60960000D03*
X194056000Y-63500000D03*
X194056000Y-66040000D03*
D13*
X206248000Y-58420000D03*
D14*
X206248000Y-60960000D03*
D13*
X159004000Y-53340000D03*
D14*
X159004000Y-55880000D03*
X159004000Y-58420000D03*
X159004000Y-60960000D03*
X159004000Y-63500000D03*
D13*
X167640000Y-53340000D03*
D14*
X167640000Y-55880000D03*
X167640000Y-58420000D03*
X167640000Y-60960000D03*
X167640000Y-63500000D03*
D19*
X209608002Y-58928000D02*
X206756000Y-58420000D01*
X212344000Y-61663998D02*
X209608002Y-58928000D01*
X212344000Y-70612000D02*
X212344000Y-61663998D01*
X208788000Y-72136000D02*
X210820000Y-72136000D01*
X210820000Y-72136000D02*
X212344000Y-70612000D01*
X101600000Y-58420000D02*
X111760000Y-58420000D01*
X111760000Y-58420000D02*
X128270000Y-58420000D01*
X151130000Y-90170000D02*
X139700000Y-90170000D01*
X176530000Y-58420000D02*
X185420000Y-58420000D01*
X139700000Y-58420000D02*
X128270000Y-58420000D01*
X139700000Y-58420000D02*
X149225000Y-58420000D01*
X149225000Y-58420000D02*
X151384000Y-58420000D01*
X156464000Y-53340000D02*
X159004000Y-53340000D01*
X154432000Y-55880000D02*
X154178000Y-55626000D01*
X151384000Y-58420000D02*
X154178000Y-55626000D01*
X159004000Y-55880000D02*
X154432000Y-55880000D01*
X154178000Y-55626000D02*
X156464000Y-53340000D01*
X173736000Y-58420000D02*
X176530000Y-58420000D01*
X159004000Y-53340000D02*
X171196000Y-53340000D01*
X171196000Y-53340000D02*
X173736000Y-58420000D01*
X159004000Y-55880000D02*
X167640000Y-55880000D01*
X139760001Y-123250001D02*
X139760001Y-119570501D01*
X144780000Y-96520000D02*
X144780000Y-121920000D01*
X151130000Y-90170000D02*
X144780000Y-96520000D01*
X144780000Y-121920000D02*
X142748000Y-123444000D01*
X142748000Y-123444000D02*
X140970000Y-123444000D01*
X140970000Y-123444000D02*
X139760001Y-123250001D01*
X204470000Y-81280000D02*
X209296000Y-81280000D01*
X209296000Y-81280000D02*
X210312000Y-82296000D01*
X210312000Y-82296000D02*
X210312000Y-90932000D01*
X204724000Y-96520000D02*
X204724000Y-102616000D01*
X210312000Y-90932000D02*
X204724000Y-96520000D01*
X204724000Y-102616000D02*
X204724000Y-111252000D01*
X204724000Y-111252000D02*
X204724000Y-119380000D01*
X200660000Y-123444000D02*
X142748000Y-123444000D01*
X204724000Y-119380000D02*
X200660000Y-123444000D01*
X204470000Y-81280000D02*
X201676000Y-81280000D01*
X201676000Y-81280000D02*
X200660000Y-80264000D01*
X200660000Y-80264000D02*
X200660000Y-72644000D01*
X185420000Y-58420000D02*
X194056000Y-58420000D01*
X205436233Y-58420000D02*
X205558963Y-58297270D01*
X194056000Y-58420000D02*
X205436233Y-58420000D01*
X101600000Y-60960000D02*
X111760000Y-60960000D01*
X111760000Y-60960000D02*
X128270000Y-60960000D01*
X120650000Y-116840000D02*
X123190000Y-114300000D01*
X123190000Y-114300000D02*
X142240000Y-114300000D01*
X142240000Y-114300000D02*
X142300001Y-119570501D01*
X101600000Y-97790000D02*
X120650000Y-116840000D01*
X101600000Y-60960000D02*
X101600000Y-97790000D01*
X139700000Y-60960000D02*
X128270000Y-60960000D01*
X139700000Y-60960000D02*
X149225000Y-60960000D01*
X210820000Y-78740000D02*
X204470000Y-78740000D01*
X213360000Y-81280000D02*
X210820000Y-78740000D01*
X149225000Y-60960000D02*
X153416000Y-60960000D01*
X155956000Y-58420000D02*
X159004000Y-58420000D01*
X153416000Y-60960000D02*
X155956000Y-58420000D01*
X159004000Y-58420000D02*
X167640000Y-58420000D01*
X213360000Y-81280000D02*
X213360000Y-91948000D01*
X207264000Y-98044000D02*
X207264000Y-102616000D01*
X213360000Y-91948000D02*
X207264000Y-98044000D01*
X207264000Y-102616000D02*
X207264000Y-111252000D01*
X120650000Y-122174000D02*
X120650000Y-116840000D01*
X124136010Y-125660010D02*
X120650000Y-122174000D01*
X201491990Y-125660010D02*
X124136010Y-125660010D01*
X207264000Y-111252000D02*
X207264000Y-119888000D01*
X207264000Y-119888000D02*
X201491990Y-125660010D01*
X204470000Y-78740000D02*
X204470000Y-66294000D01*
X206248000Y-64516000D02*
X206248000Y-60960000D01*
X204470000Y-66294000D02*
X206248000Y-64516000D01*
X206248000Y-60960000D02*
X194056000Y-60960000D01*
D20*
X128270000Y-71116502D02*
X128076001Y-71310501D01*
X128270000Y-63500000D02*
X128270000Y-71116502D01*
X157249999Y-71020499D02*
X157540001Y-71310501D01*
X157540001Y-67370001D02*
X157540001Y-71310501D01*
X158750000Y-60960000D02*
X156210000Y-62230000D01*
X156210000Y-66040000D02*
X157540001Y-67370001D01*
X156210000Y-62230000D02*
X156210000Y-66040000D01*
X176530000Y-60960000D02*
X173990000Y-60960000D01*
X170240001Y-64709999D02*
X170240001Y-71310501D01*
X173990000Y-60960000D02*
X170240001Y-64709999D01*
X165100000Y-69807941D02*
X165160001Y-71310501D01*
X167640000Y-60960000D02*
X165100000Y-60960000D01*
X165100000Y-60960000D02*
X165100000Y-69807941D01*
X167640000Y-71250500D02*
X167700001Y-71310501D01*
X167640000Y-63500000D02*
X167640000Y-71250500D01*
X176530000Y-63500000D02*
X173990000Y-63500000D01*
X172780001Y-64709999D02*
X172780001Y-71310501D01*
X173990000Y-63500000D02*
X172780001Y-64709999D01*
X160080001Y-67310000D02*
X160080001Y-71310501D01*
X158750000Y-63500000D02*
X158750000Y-66040000D01*
X158750000Y-66040000D02*
X160080001Y-67310000D01*
X164084000Y-76200000D02*
X155194000Y-85090000D01*
X155194000Y-85090000D02*
X151130000Y-85090000D01*
X186944000Y-76200000D02*
X164084000Y-76200000D01*
X190560001Y-73850501D02*
X189293499Y-73850501D01*
X189293499Y-73850501D02*
X186944000Y-76200000D01*
X188976000Y-76390501D02*
X190560001Y-76390501D01*
X151130000Y-87630000D02*
X152179999Y-88679999D01*
X152179999Y-88679999D02*
X155160001Y-88679999D01*
X155160001Y-88679999D02*
X166370000Y-77470000D01*
X166370000Y-77470000D02*
X187960000Y-77724000D01*
X187960000Y-77724000D02*
X188976000Y-76390501D01*
X155000001Y-71310501D02*
X155000001Y-68132001D01*
X150368000Y-63500000D02*
X149225000Y-63500000D01*
X155000001Y-68132001D02*
X150368000Y-63500000D01*
X204470000Y-86360000D02*
X198120000Y-86360000D01*
X197040501Y-86550501D02*
X193100001Y-86550501D01*
X198120000Y-86360000D02*
X197040501Y-86550501D01*
X204470000Y-88900000D02*
X198120000Y-88900000D01*
X197040501Y-89090501D02*
X193100001Y-89090501D01*
X198120000Y-88900000D02*
X197040501Y-89090501D01*
X204470000Y-91440000D02*
X198120000Y-91440000D01*
X197040501Y-91630501D02*
X193100001Y-91630501D01*
X198120000Y-91440000D02*
X197040501Y-91630501D01*
X152460001Y-71310501D02*
X152460001Y-68640001D01*
X152460001Y-68640001D02*
X149860000Y-66040000D01*
X142240000Y-66040000D02*
X139700000Y-63500000D01*
X149860000Y-66040000D02*
X142240000Y-66040000D01*
X204470000Y-83820000D02*
X198120000Y-83820000D01*
X197040501Y-84010501D02*
X193100001Y-84010501D01*
X198120000Y-83820000D02*
X197040501Y-84010501D01*
X147380001Y-74869999D02*
X147380001Y-71310501D01*
X139700000Y-82550000D02*
X147380001Y-74869999D01*
X139700000Y-87630000D02*
X137160000Y-87630000D01*
X137160000Y-87630000D02*
X137160000Y-99060000D01*
X137160000Y-99060000D02*
X140970000Y-99060000D01*
X140970000Y-99060000D02*
X142240000Y-99060000D01*
X190560001Y-78930501D02*
X186245499Y-78930501D01*
X186245499Y-78930501D02*
X166116000Y-99060000D01*
X166116000Y-99060000D02*
X147320000Y-99060000D01*
X190560001Y-81470501D02*
X188150501Y-81470501D01*
X188150501Y-81470501D02*
X165481002Y-104140000D01*
X165481002Y-104140000D02*
X148590000Y-104140000D01*
X137160000Y-104140000D02*
X139700000Y-104140000D01*
X134620000Y-104140000D02*
X137160000Y-104140000D01*
X134620000Y-86360000D02*
X134620000Y-104140000D01*
X139700000Y-85090000D02*
X135890000Y-85090000D01*
X135890000Y-85090000D02*
X134620000Y-86360000D01*
X139700000Y-104140000D02*
X140970000Y-104140000D01*
X148590000Y-104140000D02*
X147320000Y-104140000D01*
X140970000Y-104140000D02*
X142240000Y-104140000D01*
X151130000Y-82550000D02*
X151130000Y-77470000D01*
X149920001Y-76260001D02*
X149920001Y-71310501D01*
X151130000Y-77470000D02*
X149920001Y-76260001D01*
X185420000Y-63500000D02*
X182880000Y-63500000D01*
X177860001Y-68519999D02*
X177860001Y-71310501D01*
X182880000Y-63500000D02*
X177860001Y-68519999D01*
X185420000Y-60960000D02*
X182880000Y-60960000D01*
X182880000Y-60960000D02*
X175260000Y-68580000D01*
X175320001Y-68640001D02*
X175320001Y-71310501D01*
X175260000Y-68580000D02*
X175320001Y-68640001D01*
X180400001Y-69027999D02*
X180400001Y-71310501D01*
X183388000Y-66040000D02*
X180400001Y-69027999D01*
X186436000Y-66040000D02*
X183388000Y-66040000D01*
X194056000Y-63500000D02*
X189992000Y-63500000D01*
X189992000Y-63500000D02*
X186436000Y-66040000D01*
X182940001Y-69027999D02*
X182940001Y-71310501D01*
X183896000Y-67564000D02*
X182940001Y-69027999D01*
X187452000Y-67564000D02*
X183896000Y-67564000D01*
X194056000Y-66040000D02*
X189484000Y-66040000D01*
X189484000Y-66040000D02*
X187452000Y-67564000D01*
M02*
