M48
; DRILL file {KiCad (5.1.6)-1} date 05/04/21 08:31:37
; FORMAT={-:-/ absolute / inch / decimal}
; #@! TF.CreationDate,2021-05-04T08:31:37+05:30
; #@! TF.GenerationSoftware,Kicad,Pcbnew,(5.1.6)-1
; #@! TF.FileFunction,Plated,1,2,PTH
FMAT,2
INCH
T1C0.0157
T2C0.0236
T3C0.0300
T4C0.0315
T5C0.0354
T6C0.0374
T7C0.0394
T8C0.0433
T9C0.0512
T10C0.1260
%
G90
G05
T1
X2.15Y-5.2
X2.25Y-5.2
X2.375Y-5.025
X2.85Y-1.65
X3.1Y-3.05
X3.16Y-5.17
X3.21Y-2.95
X3.23Y-2.67
X3.29Y-2.73
X4.65Y-4.3
X4.65Y-4.4
X5.4Y-5.7
X5.75Y-2.85
X6.425Y-3.625
X6.475Y-5.525
X6.6Y-3.45
X6.8Y-3.6
T2
X6.6Y-4.15
X6.6Y-4.4
X6.6Y-4.6
X6.6Y-4.8
X6.6Y-5.0
X6.6Y-5.2
X6.6Y-5.4
X6.6Y-5.6
X6.715Y-4.025
X6.75Y-5.74
X6.8659Y-5.8341
X7.0Y-4.025
X7.0659Y-5.8341
X7.2Y-3.17
X7.25Y-4.025
X7.2659Y-5.8341
X7.375Y-3.9
X7.4659Y-5.8341
X7.475Y-3.065
X7.475Y-3.285
X7.475Y-3.435
X7.4801Y-2.2199
X7.4801Y-2.4199
X7.4801Y-2.6199
X7.4801Y-2.8199
X7.4801Y-3.6199
X7.4801Y-3.8
X7.57Y-2.05
X7.7Y-5.8341
X7.725Y-1.95
X8.025Y-1.95
X8.05Y-5.8341
X8.275Y-1.95
X8.31Y-5.83
X8.43Y-5.69
X8.45Y-2.025
X8.55Y-2.175
X8.55Y-2.4
X8.55Y-2.6
X8.55Y-2.8
X8.55Y-3.0
X8.55Y-3.2
X8.55Y-3.4
X8.55Y-3.6
X8.55Y-3.8
X8.55Y-4.0
X8.55Y-4.1782
X8.55Y-4.375
X8.55Y-4.575
X8.55Y-4.8
X8.55Y-4.95
X8.55Y-5.15
X8.55Y-5.325
X8.55Y-5.5
T3
X7.1Y-2.05
X7.1Y-2.15
X7.1Y-2.25
X7.1Y-2.35
X7.1Y-2.45
X7.1Y-2.55
X7.1Y-2.65
X7.1Y-2.75
X7.1Y-2.85
X7.1Y-2.95
X6.07Y-4.27
X6.17Y-4.27
X6.27Y-4.27
T4
X5.15Y-2.15
X5.35Y-2.15
X5.3Y-3.85
X5.3Y-3.95
X5.3Y-4.05
X4.4Y-2.4
X4.5Y-2.4
X4.6Y-2.4
X4.7Y-2.4
X4.8Y-2.4
X4.9Y-2.4
X5.0Y-2.4
X5.1Y-2.4
X5.4Y-5.1531
X5.4Y-5.35
X6.26Y-3.75
X6.4Y-2.7
X6.8Y-2.7
X5.8Y-3.85
X5.8Y-3.95
X5.8Y-4.05
X3.65Y-3.45
X4.05Y-3.45
X5.5Y-3.85
X5.5Y-3.95
X5.5Y-4.05
X6.17Y-3.65
X6.17Y-4.05
X5.46Y-4.8
X5.56Y-4.8
X5.66Y-4.8
X5.76Y-4.8
X5.86Y-4.8
X5.96Y-4.8
X6.06Y-4.8
X6.16Y-4.8
X6.26Y-4.8
X6.36Y-4.8
X5.9Y-5.1531
X5.9Y-5.35
X3.05Y-2.55
X4.55Y-1.8016
X4.55Y-1.9
X4.05Y-1.75
X4.05Y-1.95
X5.6Y-2.17
X5.6Y-2.27
X5.46Y-4.55
X5.56Y-4.55
X5.66Y-4.55
X5.76Y-4.55
X5.86Y-4.55
X5.96Y-4.55
X6.06Y-4.55
X6.16Y-4.55
X6.26Y-4.55
X6.36Y-4.55
X5.55Y-5.8
X5.65Y-5.8
X5.75Y-5.8
X5.3Y-2.65
X5.4Y-2.65
X5.5Y-2.65
X5.6Y-2.65
X5.7Y-2.65
X5.8Y-2.65
X5.9Y-2.65
X6.0Y-2.65
X4.875Y-3.95
X5.55Y-1.8016
X5.55Y-1.9
X6.175Y-5.35
X6.175Y-5.57
X4.35Y-2.15
X4.55Y-2.15
X8.0Y-3.35
X8.24Y-3.35
X3.7Y-4.55
X3.8Y-4.55
X3.9Y-4.55
X4.0Y-4.55
X4.1Y-4.55
X4.2Y-4.55
X4.3Y-4.55
X4.4Y-4.55
X5.2Y-3.85
X5.2Y-3.95
X5.2Y-4.05
X5.95Y-1.8031
X5.95Y-2.0
X5.3Y-2.4
X5.4Y-2.4
X5.5Y-2.4
X5.6Y-2.4
X5.7Y-2.4
X5.8Y-2.4
X5.9Y-2.4
X6.0Y-2.4
X4.975Y-3.85
X5.15Y-5.1531
X5.15Y-5.35
X5.7Y-3.85
X5.7Y-3.95
X5.7Y-4.05
X5.4Y-3.85
X5.4Y-3.95
X5.4Y-4.05
X4.55Y-5.65
X4.55Y-5.75
X4.55Y-5.85
X3.5Y-2.65
X3.6Y-2.65
X3.7Y-2.65
X3.8Y-2.65
X3.9Y-2.65
X4.0Y-2.65
X4.1Y-2.65
X4.2Y-2.65
X5.65Y-5.1531
X5.65Y-5.35
X6.26Y-3.65
X6.4Y-2.85
X6.8Y-2.85
X4.75Y-2.15
X4.95Y-2.15
X5.6Y-3.85
X5.6Y-3.95
X5.6Y-4.05
X5.3Y-2.75
X5.3Y-2.85
X3.7Y-4.8
X3.8Y-4.8
X3.9Y-4.8
X4.0Y-4.8
X4.1Y-4.8
X4.2Y-4.8
X4.3Y-4.8
X4.4Y-4.8
X4.6Y-4.8
X4.7Y-4.8
X4.8Y-4.8
X4.9Y-4.8
X5.0Y-4.8
X5.1Y-4.8
X5.2Y-4.8
X5.3Y-4.8
X4.925Y-5.7
X5.025Y-5.7
X5.125Y-5.7
X3.7Y-2.15
X4.2Y-2.15
X4.975Y-3.95
X5.05Y-1.8016
X5.05Y-1.9
X2.15Y-4.75
X2.75Y-4.75
X7.15Y-3.7
X7.15Y-3.8
X7.15Y-3.9
X8.0Y-3.7
X8.0Y-3.9
X4.6Y-4.55
X4.7Y-4.55
X4.8Y-4.55
X4.9Y-4.55
X5.0Y-4.55
X5.1Y-4.55
X5.2Y-4.55
X5.3Y-4.55
X4.05Y-3.2016
X4.05Y-3.3
X3.5Y-2.4
X3.6Y-2.4
X3.7Y-2.4
X3.8Y-2.4
X3.9Y-2.4
X4.0Y-2.4
X4.1Y-2.4
X4.2Y-2.4
X4.875Y-3.85
X6.325Y-5.0
X6.325Y-5.2
X2.2Y-2.31
X2.2984Y-2.31
X4.4Y-2.65
X4.5Y-2.65
X4.6Y-2.65
X4.7Y-2.65
X4.8Y-2.65
X4.9Y-2.65
X5.0Y-2.65
X5.1Y-2.65
T5
X3.3Y-2.85
X3.3Y-2.95
X3.3Y-3.05
X3.3Y-3.15
X3.3Y-3.25
X3.3Y-3.35
X3.3Y-3.45
X3.3Y-3.55
X3.3Y-3.65
X3.3Y-3.75
X3.3Y-3.85
X3.3Y-3.95
X3.3Y-4.05
X3.3Y-4.15
X3.3Y-4.25
X3.3Y-4.35
X3.3Y-4.45
X3.3Y-4.55
X3.4Y-2.85
X3.4Y-2.95
X3.4Y-3.05
X3.4Y-3.15
X3.4Y-3.25
X3.4Y-3.35
X3.4Y-3.45
X3.4Y-3.55
X3.4Y-3.65
X3.4Y-3.75
X3.4Y-3.85
X3.4Y-3.95
X3.4Y-4.05
X3.4Y-4.15
X3.4Y-4.25
X3.4Y-4.35
X3.4Y-4.45
X3.4Y-4.55
X2.85Y-2.85
X2.85Y-2.95
X2.85Y-3.05
X2.85Y-3.15
X2.85Y-3.25
X2.85Y-3.35
X2.85Y-3.45
X2.85Y-3.55
X2.85Y-3.65
X2.85Y-3.75
X2.85Y-3.85
X2.85Y-3.95
X2.85Y-4.05
X2.85Y-4.15
X2.85Y-4.25
X2.85Y-4.35
X2.85Y-4.45
X2.85Y-4.55
X2.95Y-2.85
X2.95Y-2.95
X2.95Y-3.05
X2.95Y-3.15
X2.95Y-3.25
X2.95Y-3.35
X2.95Y-3.45
X2.95Y-3.55
X2.95Y-3.65
X2.95Y-3.75
X2.95Y-3.85
X2.95Y-3.95
X2.95Y-4.05
X2.95Y-4.15
X2.95Y-4.25
X2.95Y-4.35
X2.95Y-4.45
X2.95Y-4.55
T6
X2.15Y-4.55
X2.25Y-4.55
X2.35Y-4.55
X2.45Y-4.55
X2.55Y-4.55
X2.65Y-4.55
X4.4Y-3.85
X4.4Y-3.95
X4.4Y-4.05
X3.6Y-1.75
X3.6Y-1.85
X3.6Y-1.95
X5.45Y-3.2
X5.45Y-3.3
X5.45Y-3.4
X4.8Y-5.15
X4.8Y-5.25
X4.8Y-5.35
X4.55Y-5.15
X4.55Y-5.25
X4.55Y-5.35
X4.55Y-5.45
X4.25Y-3.2
X4.25Y-3.3
X4.25Y-3.4
X4.25Y-3.5
X4.85Y-3.2
X4.85Y-3.3
X4.85Y-3.4
X3.95Y-5.15
X3.95Y-5.25
X3.95Y-5.35
X3.95Y-5.45
X2.2Y-3.6
X2.3Y-3.6
X2.4Y-3.6
X2.5Y-3.6
X3.05Y-5.15
X3.05Y-5.25
X3.05Y-5.35
X3.05Y-5.45
X2.7471Y-1.9
X2.8471Y-1.9
X2.9471Y-1.9
X3.0471Y-1.9
X3.1471Y-1.9
X3.2471Y-1.9
X3.75Y-3.8
X3.85Y-3.8
X3.95Y-3.8
X4.05Y-3.8
X4.25Y-5.15
X4.25Y-5.25
X4.25Y-5.35
X4.25Y-5.45
X2.2Y-3.0
X2.3Y-3.0
X2.4Y-3.0
X4.55Y-3.2
X4.55Y-3.3
X4.55Y-3.4
X3.75Y-4.1
X3.85Y-4.1
X3.95Y-4.1
X4.05Y-4.1
X2.75Y-2.5
X2.85Y-2.5
X2.95Y-2.5
X3.05Y-2.5
X3.15Y-2.5
X3.25Y-2.5
X3.85Y-1.75
X3.85Y-1.85
X3.85Y-1.95
X2.45Y-5.15
X2.45Y-5.25
X2.45Y-5.35
X2.45Y-5.45
X5.75Y-3.2
X5.75Y-3.3
X5.75Y-3.4
X2.2Y-4.2
X2.3Y-4.2
X2.4Y-4.2
X2.5Y-4.2
X4.7Y-3.85
X4.7Y-3.95
X4.7Y-4.05
X3.65Y-3.25
X3.75Y-3.25
X3.85Y-3.25
X5.15Y-3.2
X5.15Y-3.3
X5.15Y-3.4
X3.35Y-5.15
X3.35Y-5.25
X3.35Y-5.35
X3.35Y-5.45
X6.7Y-2.15
X6.7Y-2.25
X6.7Y-2.35
X6.7Y-2.45
X2.2Y-3.9
X2.3Y-3.9
X2.4Y-3.9
X2.5Y-3.9
X3.65Y-5.15
X3.65Y-5.25
X3.65Y-5.35
X3.65Y-5.45
X2.2Y-3.3
X2.3Y-3.3
X2.4Y-3.3
X2.75Y-5.15
X2.75Y-5.25
X2.75Y-5.35
X2.75Y-5.45
X2.7471Y-2.2
X2.8471Y-2.2
X2.9471Y-2.2
X3.0471Y-2.2
X3.1471Y-2.2
X3.2471Y-2.2
X2.2Y-2.7
X2.3Y-2.7
X2.4Y-2.7
X6.05Y-3.2
X6.05Y-3.3
X6.05Y-3.4
T7
X7.8Y-4.35
X4.25Y-1.7531
X4.25Y-1.95
X7.55Y-4.6
X6.4545Y-3.05
X6.7498Y-3.05
X7.1Y-4.6
X6.4547Y-3.3
X6.75Y-3.3
T8
X7.55Y-5.6
X6.8Y-4.35
X7.1Y-5.6
T9
X8.1Y-5.3
X8.1Y-5.5
X8.05Y-2.3
X8.05Y-2.5
X8.1Y-4.7
X8.1Y-4.9
X8.05Y-2.8
X8.05Y-3.0
T10
X2.15Y-1.7
X2.15Y-5.75
X8.65Y-1.7
X8.65Y-5.75
T0
M30
