G04 #@! TF.GenerationSoftware,KiCad,Pcbnew,(5.1.6)-1*
G04 #@! TF.CreationDate,2021-05-04T08:31:33+05:30*
G04 #@! TF.ProjectId,PCB board,50434220-626f-4617-9264-2e6b69636164,rev?*
G04 #@! TF.SameCoordinates,Original*
G04 #@! TF.FileFunction,Soldermask,Bot*
G04 #@! TF.FilePolarity,Negative*
%FSLAX46Y46*%
G04 Gerber Fmt 4.6, Leading zero omitted, Abs format (unit mm)*
G04 Created by KiCad (PCBNEW (5.1.6)-1) date 2021-05-04 08:31:33*
%MOMM*%
%LPD*%
G01*
G04 APERTURE LIST*
%ADD10O,1.700000X2.300000*%
%ADD11O,2.300000X1.700000*%
%ADD12O,2.500000X1.300000*%
%ADD13O,2.100000X1.624000*%
%ADD14C,3.100000*%
%ADD15O,1.700000X1.700000*%
%ADD16O,2.100000X1.800000*%
%ADD17O,2.100000X2.100000*%
%ADD18C,2.100000*%
%ADD19O,2.005000X2.100000*%
%ADD20C,2.000000*%
%ADD21O,1.624000X2.100000*%
%ADD22C,1.700000*%
%ADD23O,1.700000X2.500000*%
%ADD24O,1.800000X2.050000*%
%ADD25R,2.700000X2.700000*%
%ADD26C,2.700000*%
%ADD27C,5.100000*%
%ADD28O,2.050000X1.800000*%
%ADD29O,2.500000X1.700000*%
%ADD30O,2.600000X2.100000*%
G04 APERTURE END LIST*
D10*
X77470000Y-64770000D03*
D11*
X126365000Y-100330000D03*
X123825000Y-100330000D03*
X123825000Y-97790000D03*
X126365000Y-97790000D03*
D12*
X72090000Y-115570000D03*
X72090000Y-113030000D03*
X72090000Y-110490000D03*
X72090000Y-107950000D03*
X72090000Y-105410000D03*
X72090000Y-102870000D03*
X72090000Y-100330000D03*
X72090000Y-97790000D03*
X72090000Y-95250000D03*
X72090000Y-92710000D03*
X72090000Y-90170000D03*
X72090000Y-87630000D03*
X72090000Y-85090000D03*
X72090000Y-82550000D03*
X72090000Y-80010000D03*
X72090000Y-77470000D03*
X72090000Y-74930000D03*
X72090000Y-72390000D03*
X75230000Y-115570000D03*
X75230000Y-113030000D03*
X75230000Y-110490000D03*
X75230000Y-107950000D03*
X75230000Y-105410000D03*
X75230000Y-102870000D03*
X75230000Y-100330000D03*
X75230000Y-97790000D03*
X75230000Y-95250000D03*
X75230000Y-92710000D03*
X75230000Y-90170000D03*
X75230000Y-87630000D03*
X75230000Y-85090000D03*
X75230000Y-82550000D03*
X75230000Y-80010000D03*
X75230000Y-77470000D03*
X75230000Y-74930000D03*
X75230000Y-72390000D03*
X83520000Y-115570000D03*
X83520000Y-113030000D03*
X83520000Y-110490000D03*
X83520000Y-107950000D03*
X83520000Y-105410000D03*
X83520000Y-102870000D03*
X83520000Y-100330000D03*
X83520000Y-97790000D03*
X83520000Y-95250000D03*
X83520000Y-92710000D03*
X83520000Y-90170000D03*
X83520000Y-87630000D03*
X83520000Y-85090000D03*
X83520000Y-82550000D03*
X83520000Y-80010000D03*
X83520000Y-77470000D03*
X83520000Y-74930000D03*
X83520000Y-72390000D03*
X86660000Y-115570000D03*
X86660000Y-113030000D03*
X86660000Y-110490000D03*
X86660000Y-107950000D03*
X86660000Y-105410000D03*
X86660000Y-102870000D03*
X86660000Y-100330000D03*
X86660000Y-97790000D03*
X86660000Y-95250000D03*
X86660000Y-92710000D03*
X86660000Y-90170000D03*
X86660000Y-87630000D03*
X86660000Y-85090000D03*
X86660000Y-82550000D03*
X86660000Y-80010000D03*
X86660000Y-77470000D03*
X86660000Y-74930000D03*
X86660000Y-72390000D03*
D13*
X180340000Y-74930000D03*
X180340000Y-72390000D03*
X180340000Y-69850000D03*
X180340000Y-67310000D03*
X180340000Y-64770000D03*
X180340000Y-62230000D03*
X180340000Y-59690000D03*
X180340000Y-57150000D03*
X180340000Y-54610000D03*
X180340000Y-52070000D03*
D14*
X172720000Y-110490000D03*
X198120000Y-110490000D03*
X191770000Y-142240000D03*
X191770000Y-116840000D03*
X180340000Y-142240000D03*
X180340000Y-116840000D03*
D15*
X159004000Y-92710000D03*
G36*
G01*
X116355400Y-49160000D02*
X114784600Y-49160000D01*
G75*
G02*
X114520000Y-48895400I0J264600D01*
G01*
X114520000Y-47624600D01*
G75*
G02*
X114784600Y-47360000I264600J0D01*
G01*
X116355400Y-47360000D01*
G75*
G02*
X116620000Y-47624600I0J-264600D01*
G01*
X116620000Y-48895400D01*
G75*
G02*
X116355400Y-49160000I-264600J0D01*
G01*
G37*
D16*
X115570000Y-45760000D03*
G36*
G01*
X129055400Y-49160000D02*
X127484600Y-49160000D01*
G75*
G02*
X127220000Y-48895400I0J264600D01*
G01*
X127220000Y-47624600D01*
G75*
G02*
X127484600Y-47360000I264600J0D01*
G01*
X129055400Y-47360000D01*
G75*
G02*
X129320000Y-47624600I0J-264600D01*
G01*
X129320000Y-48895400D01*
G75*
G02*
X129055400Y-49160000I-264600J0D01*
G01*
G37*
X128270000Y-45760000D03*
G36*
G01*
X141755400Y-49160000D02*
X140184600Y-49160000D01*
G75*
G02*
X139920000Y-48895400I0J264600D01*
G01*
X139920000Y-47624600D01*
G75*
G02*
X140184600Y-47360000I264600J0D01*
G01*
X141755400Y-47360000D01*
G75*
G02*
X142020000Y-47624600I0J-264600D01*
G01*
X142020000Y-48895400D01*
G75*
G02*
X141755400Y-49160000I-264600J0D01*
G01*
G37*
X140970000Y-45760000D03*
G36*
G01*
X160130000Y-125950000D02*
X161180000Y-125950000D01*
G75*
G02*
X161705000Y-126475000I0J-525000D01*
G01*
X161705000Y-127525000D01*
G75*
G02*
X161180000Y-128050000I-525000J0D01*
G01*
X160130000Y-128050000D01*
G75*
G02*
X159605000Y-127525000I0J525000D01*
G01*
X159605000Y-126475000D01*
G75*
G02*
X160130000Y-125950000I525000J0D01*
G01*
G37*
D17*
X160655000Y-132080000D03*
D18*
X130810000Y-130890000D03*
X130810000Y-135890000D03*
X137160000Y-135890000D03*
X137160000Y-130890000D03*
X143510000Y-135890000D03*
X143510000Y-130890000D03*
X149860000Y-130890000D03*
X149860000Y-135890000D03*
G36*
G01*
X131177500Y-144231250D02*
X131177500Y-145328750D01*
G75*
G02*
X130676250Y-145830000I-501250J0D01*
G01*
X129673750Y-145830000D01*
G75*
G02*
X129172500Y-145328750I0J501250D01*
G01*
X129172500Y-144231250D01*
G75*
G02*
X129673750Y-143730000I501250J0D01*
G01*
X130676250Y-143730000D01*
G75*
G02*
X131177500Y-144231250I0J-501250D01*
G01*
G37*
D19*
X127635000Y-144780000D03*
X125095000Y-144780000D03*
D20*
X143510000Y-147320000D03*
G36*
G01*
X147050000Y-146820000D02*
X147050000Y-147820000D01*
G75*
G02*
X146550000Y-148320000I-500000J0D01*
G01*
X145550000Y-148320000D01*
G75*
G02*
X145050000Y-147820000I0J500000D01*
G01*
X145050000Y-146820000D01*
G75*
G02*
X145550000Y-146320000I500000J0D01*
G01*
X146550000Y-146320000D01*
G75*
G02*
X147050000Y-146820000I0J-500000D01*
G01*
G37*
X140970000Y-147320000D03*
D15*
X159004000Y-95250000D03*
D21*
X156718000Y-108458000D03*
X154178000Y-108458000D03*
X159258000Y-108458000D03*
D22*
X54610000Y-120650000D03*
D15*
X69850000Y-120650000D03*
D22*
X156845000Y-141478000D03*
X156845000Y-135890000D03*
D23*
X111760000Y-67310000D03*
X114300000Y-67310000D03*
X116840000Y-67310000D03*
X119380000Y-67310000D03*
X121920000Y-67310000D03*
X124460000Y-67310000D03*
X127000000Y-67310000D03*
X129540000Y-67310000D03*
G36*
G01*
X68210000Y-114809706D02*
X68210000Y-116330294D01*
G75*
G02*
X67945294Y-116595000I-264706J0D01*
G01*
X66674706Y-116595000D01*
G75*
G02*
X66410000Y-116330294I0J264706D01*
G01*
X66410000Y-114809706D01*
G75*
G02*
X66674706Y-114545000I264706J0D01*
G01*
X67945294Y-114545000D01*
G75*
G02*
X68210000Y-114809706I0J-264706D01*
G01*
G37*
D24*
X64770000Y-115570000D03*
X62230000Y-115570000D03*
X59690000Y-115570000D03*
X57150000Y-115570000D03*
X54610000Y-115570000D03*
G36*
G01*
X54980000Y-107440294D02*
X54980000Y-105919706D01*
G75*
G02*
X55244706Y-105655000I264706J0D01*
G01*
X56515294Y-105655000D01*
G75*
G02*
X56780000Y-105919706I0J-264706D01*
G01*
X56780000Y-107440294D01*
G75*
G02*
X56515294Y-107705000I-264706J0D01*
G01*
X55244706Y-107705000D01*
G75*
G02*
X54980000Y-107440294I0J264706D01*
G01*
G37*
X58420000Y-106680000D03*
X60960000Y-106680000D03*
X63500000Y-106680000D03*
G36*
G01*
X54980000Y-99820294D02*
X54980000Y-98299706D01*
G75*
G02*
X55244706Y-98035000I264706J0D01*
G01*
X56515294Y-98035000D01*
G75*
G02*
X56780000Y-98299706I0J-264706D01*
G01*
X56780000Y-99820294D01*
G75*
G02*
X56515294Y-100085000I-264706J0D01*
G01*
X55244706Y-100085000D01*
G75*
G02*
X54980000Y-99820294I0J264706D01*
G01*
G37*
X58420000Y-99060000D03*
X60960000Y-99060000D03*
X63500000Y-99060000D03*
D22*
X203200000Y-85090000D03*
X209296000Y-85090000D03*
D25*
X205740000Y-124460000D03*
D26*
X205740000Y-119380000D03*
D27*
X219710000Y-43180000D03*
X54610000Y-43180000D03*
X219710000Y-146050000D03*
X54610000Y-146050000D03*
D22*
X106680000Y-54610000D03*
D15*
X93980000Y-54610000D03*
D23*
X152400000Y-67310000D03*
X149860000Y-67310000D03*
X147320000Y-67310000D03*
X144780000Y-67310000D03*
X142240000Y-67310000D03*
X139700000Y-67310000D03*
X137160000Y-67310000D03*
X134620000Y-67310000D03*
X88900000Y-60960000D03*
X91440000Y-60960000D03*
X93980000Y-60960000D03*
X96520000Y-60960000D03*
X99060000Y-60960000D03*
X101600000Y-60960000D03*
X104140000Y-60960000D03*
X106680000Y-60960000D03*
X134620000Y-60960000D03*
X137160000Y-60960000D03*
X139700000Y-60960000D03*
X142240000Y-60960000D03*
X144780000Y-60960000D03*
X147320000Y-60960000D03*
X149860000Y-60960000D03*
X152400000Y-60960000D03*
X129540000Y-60960000D03*
X127000000Y-60960000D03*
X124460000Y-60960000D03*
X121920000Y-60960000D03*
X119380000Y-60960000D03*
X116840000Y-60960000D03*
X114300000Y-60960000D03*
X111760000Y-60960000D03*
X106680000Y-67310000D03*
X104140000Y-67310000D03*
X101600000Y-67310000D03*
X99060000Y-67310000D03*
X96520000Y-67310000D03*
X93980000Y-67310000D03*
X91440000Y-67310000D03*
X88900000Y-67310000D03*
X161544000Y-121920000D03*
X159004000Y-121920000D03*
X156464000Y-121920000D03*
X153924000Y-121920000D03*
X151384000Y-121920000D03*
X148844000Y-121920000D03*
X146304000Y-121920000D03*
X143764000Y-121920000D03*
X141224000Y-121920000D03*
X138684000Y-121920000D03*
X134620000Y-121920000D03*
X132080000Y-121920000D03*
X129540000Y-121920000D03*
X127000000Y-121920000D03*
X124460000Y-121920000D03*
X121920000Y-121920000D03*
X119380000Y-121920000D03*
X116840000Y-121920000D03*
X111760000Y-121920000D03*
X109220000Y-121920000D03*
X106680000Y-121920000D03*
X104140000Y-121920000D03*
X101600000Y-121920000D03*
X99060000Y-121920000D03*
X96520000Y-121920000D03*
X93980000Y-121920000D03*
X138684000Y-115570000D03*
X141224000Y-115570000D03*
X143764000Y-115570000D03*
X146304000Y-115570000D03*
X148844000Y-115570000D03*
X151384000Y-115570000D03*
X153924000Y-115570000D03*
X156464000Y-115570000D03*
X159004000Y-115570000D03*
X161544000Y-115570000D03*
X116840000Y-115570000D03*
X119380000Y-115570000D03*
X121920000Y-115570000D03*
X124460000Y-115570000D03*
X127000000Y-115570000D03*
X129540000Y-115570000D03*
X132080000Y-115570000D03*
X134620000Y-115570000D03*
X93980000Y-115570000D03*
X96520000Y-115570000D03*
X99060000Y-115570000D03*
X101600000Y-115570000D03*
X104140000Y-115570000D03*
X106680000Y-115570000D03*
X109220000Y-115570000D03*
X111760000Y-115570000D03*
D26*
X204470000Y-71120000D03*
D25*
X204470000Y-76200000D03*
X204470000Y-63500000D03*
D26*
X204470000Y-58420000D03*
D22*
X102870000Y-87630000D03*
D15*
X92710000Y-87630000D03*
X120650000Y-54610000D03*
D22*
X125730000Y-54610000D03*
X115570000Y-54610000D03*
D15*
X110490000Y-54610000D03*
D22*
X135890000Y-54610000D03*
D15*
X130810000Y-54610000D03*
D26*
X205740000Y-134620000D03*
D25*
X205740000Y-139700000D03*
D22*
X162560000Y-68580000D03*
D15*
X172720000Y-68580000D03*
X162560000Y-72390000D03*
D22*
X172720000Y-72390000D03*
D18*
X163950000Y-83820000D03*
X171450000Y-83820000D03*
X171444999Y-77470000D03*
X163944999Y-77470000D03*
X107950000Y-49530000D03*
X107950000Y-44530000D03*
G36*
G01*
X54980000Y-92200294D02*
X54980000Y-90679706D01*
G75*
G02*
X55244706Y-90415000I264706J0D01*
G01*
X56515294Y-90415000D01*
G75*
G02*
X56780000Y-90679706I0J-264706D01*
G01*
X56780000Y-92200294D01*
G75*
G02*
X56515294Y-92465000I-264706J0D01*
G01*
X55244706Y-92465000D01*
G75*
G02*
X54980000Y-92200294I0J264706D01*
G01*
G37*
D24*
X58420000Y-91440000D03*
X60960000Y-91440000D03*
X63500000Y-91440000D03*
G36*
G01*
X54980000Y-84580294D02*
X54980000Y-83059706D01*
G75*
G02*
X55244706Y-82795000I264706J0D01*
G01*
X56515294Y-82795000D01*
G75*
G02*
X56780000Y-83059706I0J-264706D01*
G01*
X56780000Y-84580294D01*
G75*
G02*
X56515294Y-84845000I-264706J0D01*
G01*
X55244706Y-84845000D01*
G75*
G02*
X54980000Y-84580294I0J264706D01*
G01*
G37*
X58420000Y-83820000D03*
X60960000Y-83820000D03*
G36*
G01*
X54980000Y-76960294D02*
X54980000Y-75439706D01*
G75*
G02*
X55244706Y-75175000I264706J0D01*
G01*
X56515294Y-75175000D01*
G75*
G02*
X56780000Y-75439706I0J-264706D01*
G01*
X56780000Y-76960294D01*
G75*
G02*
X56515294Y-77225000I-264706J0D01*
G01*
X55244706Y-77225000D01*
G75*
G02*
X54980000Y-76960294I0J264706D01*
G01*
G37*
X58420000Y-76200000D03*
X60960000Y-76200000D03*
X60960000Y-68580000D03*
X58420000Y-68580000D03*
G36*
G01*
X54980000Y-69340294D02*
X54980000Y-67819706D01*
G75*
G02*
X55244706Y-67555000I264706J0D01*
G01*
X56515294Y-67555000D01*
G75*
G02*
X56780000Y-67819706I0J-264706D01*
G01*
X56780000Y-69340294D01*
G75*
G02*
X56515294Y-69605000I-264706J0D01*
G01*
X55244706Y-69605000D01*
G75*
G02*
X54980000Y-69340294I0J264706D01*
G01*
G37*
D28*
X97790000Y-49530000D03*
X97790000Y-46990000D03*
G36*
G01*
X97029706Y-43550000D02*
X98550294Y-43550000D01*
G75*
G02*
X98815000Y-43814706I0J-264706D01*
G01*
X98815000Y-45085294D01*
G75*
G02*
X98550294Y-45350000I-264706J0D01*
G01*
X97029706Y-45350000D01*
G75*
G02*
X96765000Y-45085294I0J264706D01*
G01*
X96765000Y-43814706D01*
G75*
G02*
X97029706Y-43550000I264706J0D01*
G01*
G37*
G36*
G01*
X90679706Y-43550000D02*
X92200294Y-43550000D01*
G75*
G02*
X92465000Y-43814706I0J-264706D01*
G01*
X92465000Y-45085294D01*
G75*
G02*
X92200294Y-45350000I-264706J0D01*
G01*
X90679706Y-45350000D01*
G75*
G02*
X90415000Y-45085294I0J264706D01*
G01*
X90415000Y-43814706D01*
G75*
G02*
X90679706Y-43550000I264706J0D01*
G01*
G37*
X91440000Y-46990000D03*
X91440000Y-49530000D03*
G36*
G01*
X98690000Y-81789706D02*
X98690000Y-83310294D01*
G75*
G02*
X98425294Y-83575000I-264706J0D01*
G01*
X97154706Y-83575000D01*
G75*
G02*
X96890000Y-83310294I0J264706D01*
G01*
X96890000Y-81789706D01*
G75*
G02*
X97154706Y-81525000I264706J0D01*
G01*
X98425294Y-81525000D01*
G75*
G02*
X98690000Y-81789706I0J-264706D01*
G01*
G37*
D24*
X95250000Y-82550000D03*
X92710000Y-82550000D03*
G36*
G01*
X108710294Y-89800000D02*
X107189706Y-89800000D01*
G75*
G02*
X106925000Y-89535294I0J264706D01*
G01*
X106925000Y-88264706D01*
G75*
G02*
X107189706Y-88000000I264706J0D01*
G01*
X108710294Y-88000000D01*
G75*
G02*
X108975000Y-88264706I0J-264706D01*
G01*
X108975000Y-89535294D01*
G75*
G02*
X108710294Y-89800000I-264706J0D01*
G01*
G37*
D28*
X107950000Y-86360000D03*
X107950000Y-83820000D03*
X107950000Y-81280000D03*
G36*
G01*
X116330294Y-87260000D02*
X114809706Y-87260000D01*
G75*
G02*
X114545000Y-86995294I0J264706D01*
G01*
X114545000Y-85724706D01*
G75*
G02*
X114809706Y-85460000I264706J0D01*
G01*
X116330294Y-85460000D01*
G75*
G02*
X116595000Y-85724706I0J-264706D01*
G01*
X116595000Y-86995294D01*
G75*
G02*
X116330294Y-87260000I-264706J0D01*
G01*
G37*
X115570000Y-83820000D03*
X115570000Y-81280000D03*
G36*
G01*
X154430294Y-87260000D02*
X152909706Y-87260000D01*
G75*
G02*
X152645000Y-86995294I0J264706D01*
G01*
X152645000Y-85724706D01*
G75*
G02*
X152909706Y-85460000I264706J0D01*
G01*
X154430294Y-85460000D01*
G75*
G02*
X154695000Y-85724706I0J-264706D01*
G01*
X154695000Y-86995294D01*
G75*
G02*
X154430294Y-87260000I-264706J0D01*
G01*
G37*
X153670000Y-83820000D03*
X153670000Y-81280000D03*
X146050000Y-81280000D03*
X146050000Y-83820000D03*
G36*
G01*
X146810294Y-87260000D02*
X145289706Y-87260000D01*
G75*
G02*
X145025000Y-86995294I0J264706D01*
G01*
X145025000Y-85724706D01*
G75*
G02*
X145289706Y-85460000I264706J0D01*
G01*
X146810294Y-85460000D01*
G75*
G02*
X147075000Y-85724706I0J-264706D01*
G01*
X147075000Y-86995294D01*
G75*
G02*
X146810294Y-87260000I-264706J0D01*
G01*
G37*
G36*
G01*
X139190294Y-87260000D02*
X137669706Y-87260000D01*
G75*
G02*
X137405000Y-86995294I0J264706D01*
G01*
X137405000Y-85724706D01*
G75*
G02*
X137669706Y-85460000I264706J0D01*
G01*
X139190294Y-85460000D01*
G75*
G02*
X139455000Y-85724706I0J-264706D01*
G01*
X139455000Y-86995294D01*
G75*
G02*
X139190294Y-87260000I-264706J0D01*
G01*
G37*
X138430000Y-83820000D03*
X138430000Y-81280000D03*
G36*
G01*
X131570294Y-87260000D02*
X130049706Y-87260000D01*
G75*
G02*
X129785000Y-86995294I0J264706D01*
G01*
X129785000Y-85724706D01*
G75*
G02*
X130049706Y-85460000I264706J0D01*
G01*
X131570294Y-85460000D01*
G75*
G02*
X131835000Y-85724706I0J-264706D01*
G01*
X131835000Y-86995294D01*
G75*
G02*
X131570294Y-87260000I-264706J0D01*
G01*
G37*
X130810000Y-83820000D03*
X130810000Y-81280000D03*
X123190000Y-81280000D03*
X123190000Y-83820000D03*
G36*
G01*
X123950294Y-87260000D02*
X122429706Y-87260000D01*
G75*
G02*
X122165000Y-86995294I0J264706D01*
G01*
X122165000Y-85724706D01*
G75*
G02*
X122429706Y-85460000I264706J0D01*
G01*
X123950294Y-85460000D01*
G75*
G02*
X124215000Y-85724706I0J-264706D01*
G01*
X124215000Y-86995294D01*
G75*
G02*
X123950294Y-87260000I-264706J0D01*
G01*
G37*
G36*
G01*
X169419706Y-53710000D02*
X170940294Y-53710000D01*
G75*
G02*
X171205000Y-53974706I0J-264706D01*
G01*
X171205000Y-55245294D01*
G75*
G02*
X170940294Y-55510000I-264706J0D01*
G01*
X169419706Y-55510000D01*
G75*
G02*
X169155000Y-55245294I0J264706D01*
G01*
X169155000Y-53974706D01*
G75*
G02*
X169419706Y-53710000I264706J0D01*
G01*
G37*
X170180000Y-57150000D03*
X170180000Y-59690000D03*
X170180000Y-62230000D03*
G36*
G01*
X103770000Y-95759706D02*
X103770000Y-97280294D01*
G75*
G02*
X103505294Y-97545000I-264706J0D01*
G01*
X102234706Y-97545000D01*
G75*
G02*
X101970000Y-97280294I0J264706D01*
G01*
X101970000Y-95759706D01*
G75*
G02*
X102234706Y-95495000I264706J0D01*
G01*
X103505294Y-95495000D01*
G75*
G02*
X103770000Y-95759706I0J-264706D01*
G01*
G37*
D24*
X100330000Y-96520000D03*
X97790000Y-96520000D03*
X95250000Y-96520000D03*
G36*
G01*
X94350000Y-104900294D02*
X94350000Y-103379706D01*
G75*
G02*
X94614706Y-103115000I264706J0D01*
G01*
X95885294Y-103115000D01*
G75*
G02*
X96150000Y-103379706I0J-264706D01*
G01*
X96150000Y-104900294D01*
G75*
G02*
X95885294Y-105165000I-264706J0D01*
G01*
X94614706Y-105165000D01*
G75*
G02*
X94350000Y-104900294I0J264706D01*
G01*
G37*
X97790000Y-104140000D03*
X100330000Y-104140000D03*
X102870000Y-104140000D03*
D28*
X111760000Y-102870000D03*
X111760000Y-100330000D03*
G36*
G01*
X110999706Y-96890000D02*
X112520294Y-96890000D01*
G75*
G02*
X112785000Y-97154706I0J-264706D01*
G01*
X112785000Y-98425294D01*
G75*
G02*
X112520294Y-98690000I-264706J0D01*
G01*
X110999706Y-98690000D01*
G75*
G02*
X110735000Y-98425294I0J264706D01*
G01*
X110735000Y-97154706D01*
G75*
G02*
X110999706Y-96890000I264706J0D01*
G01*
G37*
G36*
G01*
X118619706Y-96890000D02*
X120140294Y-96890000D01*
G75*
G02*
X120405000Y-97154706I0J-264706D01*
G01*
X120405000Y-98425294D01*
G75*
G02*
X120140294Y-98690000I-264706J0D01*
G01*
X118619706Y-98690000D01*
G75*
G02*
X118355000Y-98425294I0J264706D01*
G01*
X118355000Y-97154706D01*
G75*
G02*
X118619706Y-96890000I264706J0D01*
G01*
G37*
X119380000Y-100330000D03*
X119380000Y-102870000D03*
G36*
G01*
X122680294Y-136790000D02*
X121159706Y-136790000D01*
G75*
G02*
X120895000Y-136525294I0J264706D01*
G01*
X120895000Y-135254706D01*
G75*
G02*
X121159706Y-134990000I264706J0D01*
G01*
X122680294Y-134990000D01*
G75*
G02*
X122945000Y-135254706I0J-264706D01*
G01*
X122945000Y-136525294D01*
G75*
G02*
X122680294Y-136790000I-264706J0D01*
G01*
G37*
X121920000Y-133350000D03*
X121920000Y-130810000D03*
G36*
G01*
X84329706Y-129910000D02*
X85850294Y-129910000D01*
G75*
G02*
X86115000Y-130174706I0J-264706D01*
G01*
X86115000Y-131445294D01*
G75*
G02*
X85850294Y-131710000I-264706J0D01*
G01*
X84329706Y-131710000D01*
G75*
G02*
X84065000Y-131445294I0J264706D01*
G01*
X84065000Y-130174706D01*
G75*
G02*
X84329706Y-129910000I264706J0D01*
G01*
G37*
X85090000Y-133350000D03*
X85090000Y-135890000D03*
X85090000Y-138430000D03*
G36*
G01*
X76709706Y-129910000D02*
X78230294Y-129910000D01*
G75*
G02*
X78495000Y-130174706I0J-264706D01*
G01*
X78495000Y-131445294D01*
G75*
G02*
X78230294Y-131710000I-264706J0D01*
G01*
X76709706Y-131710000D01*
G75*
G02*
X76445000Y-131445294I0J264706D01*
G01*
X76445000Y-130174706D01*
G75*
G02*
X76709706Y-129910000I264706J0D01*
G01*
G37*
X77470000Y-133350000D03*
X77470000Y-135890000D03*
X77470000Y-138430000D03*
G36*
G01*
X69089706Y-129910000D02*
X70610294Y-129910000D01*
G75*
G02*
X70875000Y-130174706I0J-264706D01*
G01*
X70875000Y-131445294D01*
G75*
G02*
X70610294Y-131710000I-264706J0D01*
G01*
X69089706Y-131710000D01*
G75*
G02*
X68825000Y-131445294I0J264706D01*
G01*
X68825000Y-130174706D01*
G75*
G02*
X69089706Y-129910000I264706J0D01*
G01*
G37*
X69850000Y-133350000D03*
X69850000Y-135890000D03*
X69850000Y-138430000D03*
D22*
X58380000Y-58674000D03*
X55880000Y-58674000D03*
X102870000Y-83820000D03*
X102870000Y-81320000D03*
X151130000Y-50800000D03*
X151130000Y-45800000D03*
G36*
G01*
X61469706Y-129910000D02*
X62990294Y-129910000D01*
G75*
G02*
X63255000Y-130174706I0J-264706D01*
G01*
X63255000Y-131445294D01*
G75*
G02*
X62990294Y-131710000I-264706J0D01*
G01*
X61469706Y-131710000D01*
G75*
G02*
X61205000Y-131445294I0J264706D01*
G01*
X61205000Y-130174706D01*
G75*
G02*
X61469706Y-129910000I264706J0D01*
G01*
G37*
D28*
X62230000Y-133350000D03*
X62230000Y-135890000D03*
X62230000Y-138430000D03*
D29*
X115570000Y-148590000D03*
X115570000Y-146050000D03*
X115570000Y-143510000D03*
D22*
X156718000Y-92710000D03*
D15*
X156718000Y-102870000D03*
D29*
X134620000Y-69850000D03*
X134620000Y-72390000D03*
X142240000Y-57658000D03*
X142240000Y-55118000D03*
D30*
X203200000Y-99060000D03*
X203200000Y-93980000D03*
D13*
X181610000Y-96520000D03*
X181610000Y-93980000D03*
X181610000Y-99060000D03*
G36*
G01*
X99569706Y-129910001D02*
X101090294Y-129910001D01*
G75*
G02*
X101355000Y-130174707I0J-264706D01*
G01*
X101355000Y-131445295D01*
G75*
G02*
X101090294Y-131710001I-264706J0D01*
G01*
X99569706Y-131710001D01*
G75*
G02*
X99305000Y-131445295I0J264706D01*
G01*
X99305000Y-130174707D01*
G75*
G02*
X99569706Y-129910001I264706J0D01*
G01*
G37*
D28*
X100330000Y-133350001D03*
X100330000Y-135890001D03*
X100330000Y-138430001D03*
G36*
G01*
X91949706Y-129910000D02*
X93470294Y-129910000D01*
G75*
G02*
X93735000Y-130174706I0J-264706D01*
G01*
X93735000Y-131445294D01*
G75*
G02*
X93470294Y-131710000I-264706J0D01*
G01*
X91949706Y-131710000D01*
G75*
G02*
X91685000Y-131445294I0J264706D01*
G01*
X91685000Y-130174706D01*
G75*
G02*
X91949706Y-129910000I264706J0D01*
G01*
G37*
X92710000Y-133350000D03*
X92710000Y-135890000D03*
X92710000Y-138430000D03*
X107950000Y-138430000D03*
X107950000Y-135890000D03*
X107950000Y-133350000D03*
G36*
G01*
X107189706Y-129910000D02*
X108710294Y-129910000D01*
G75*
G02*
X108975000Y-130174706I0J-264706D01*
G01*
X108975000Y-131445294D01*
G75*
G02*
X108710294Y-131710000I-264706J0D01*
G01*
X107189706Y-131710000D01*
G75*
G02*
X106925000Y-131445294I0J264706D01*
G01*
X106925000Y-130174706D01*
G75*
G02*
X107189706Y-129910000I264706J0D01*
G01*
G37*
D15*
X132080000Y-102870000D03*
X132080000Y-100330000D03*
X132080000Y-97790000D03*
X134620000Y-97790000D03*
X134620000Y-100330000D03*
X134620000Y-102870000D03*
X137160000Y-102870000D03*
X137160000Y-100330000D03*
X137160000Y-97790000D03*
X139700000Y-102870000D03*
X139700000Y-100330000D03*
X139700000Y-97790000D03*
X142240000Y-97790000D03*
X142240000Y-100330000D03*
X142240000Y-102870000D03*
X144780000Y-102870000D03*
X144780000Y-100330000D03*
X144780000Y-97790000D03*
X147320000Y-102870000D03*
X147320000Y-100330000D03*
X147320000Y-97790000D03*
G36*
G01*
X114809706Y-129910000D02*
X116330294Y-129910000D01*
G75*
G02*
X116595000Y-130174706I0J-264706D01*
G01*
X116595000Y-131445294D01*
G75*
G02*
X116330294Y-131710000I-264706J0D01*
G01*
X114809706Y-131710000D01*
G75*
G02*
X114545000Y-131445294I0J264706D01*
G01*
X114545000Y-130174706D01*
G75*
G02*
X114809706Y-129910000I264706J0D01*
G01*
G37*
D28*
X115570000Y-133350000D03*
X115570000Y-135890000D03*
X115570000Y-138430000D03*
D22*
X102870000Y-49530000D03*
D15*
X102870000Y-44450000D03*
G36*
G01*
X68877001Y-49020294D02*
X68877001Y-47499706D01*
G75*
G02*
X69141707Y-47235000I264706J0D01*
G01*
X70412295Y-47235000D01*
G75*
G02*
X70677001Y-47499706I0J-264706D01*
G01*
X70677001Y-49020294D01*
G75*
G02*
X70412295Y-49285000I-264706J0D01*
G01*
X69141707Y-49285000D01*
G75*
G02*
X68877001Y-49020294I0J264706D01*
G01*
G37*
D24*
X72317001Y-48260000D03*
X74857001Y-48260000D03*
X77397001Y-48260000D03*
X79937001Y-48260000D03*
X82477001Y-48260000D03*
X82477001Y-55880000D03*
X79937001Y-55880000D03*
X77397001Y-55880000D03*
X74857001Y-55880000D03*
X72317001Y-55880000D03*
G36*
G01*
X68877001Y-56640294D02*
X68877001Y-55119706D01*
G75*
G02*
X69141707Y-54855000I264706J0D01*
G01*
X70412295Y-54855000D01*
G75*
G02*
X70677001Y-55119706I0J-264706D01*
G01*
X70677001Y-56640294D01*
G75*
G02*
X70412295Y-56905000I-264706J0D01*
G01*
X69141707Y-56905000D01*
G75*
G02*
X68877001Y-56640294I0J264706D01*
G01*
G37*
G36*
G01*
X68950000Y-64260294D02*
X68950000Y-62739706D01*
G75*
G02*
X69214706Y-62475000I264706J0D01*
G01*
X70485294Y-62475000D01*
G75*
G02*
X70750000Y-62739706I0J-264706D01*
G01*
X70750000Y-64260294D01*
G75*
G02*
X70485294Y-64525000I-264706J0D01*
G01*
X69214706Y-64525000D01*
G75*
G02*
X68950000Y-64260294I0J264706D01*
G01*
G37*
X72390000Y-63500000D03*
X74930000Y-63500000D03*
X77470000Y-63500000D03*
X80010000Y-63500000D03*
X82550000Y-63500000D03*
M02*
