M48
; DRILL file {KiCad (5.1.6)-1} date 06/15/21 06:37:24
; FORMAT={-:-/ absolute / inch / decimal}
; #@! TF.CreationDate,2021-06-15T06:37:24+05:30
; #@! TF.GenerationSoftware,Kicad,Pcbnew,(5.1.6)-1
; #@! TF.FileFunction,Plated,1,2,PTH
FMAT,2
INCH
T1C0.0157
T2C0.0276
T3C0.0295
T4C0.0300
T5C0.0315
T6C0.0354
T7C0.0374
T8C0.0394
T9C0.0433
T10C0.0512
T11C0.1260
%
G90
G05
T1
X4.3Y-3.2
X4.3Y-3.3
X4.3Y-3.4
X4.3Y-3.5
X4.3Y-3.6
X4.3Y-3.7
X4.3Y-3.8
X4.3Y-3.9
X4.3Y-4.0
X4.3Y-4.1
X4.3Y-4.25
X4.4Y-3.2
X4.4Y-4.25
X4.5Y-3.2
X4.5Y-4.25
X4.6Y-3.2
X4.6Y-4.25
X4.7Y-3.2
X4.7Y-3.3
X4.7Y-3.4
X4.7Y-3.5
X4.7Y-3.6
X4.7Y-3.7
X4.7Y-3.8
X4.7Y-3.9
X4.7Y-4.0
X4.7Y-4.1
X4.7Y-4.25
X4.8Y-3.2
X4.8Y-4.25
X4.9Y-3.2
X4.9Y-4.25
X5.0Y-3.2
X5.0Y-4.25
X5.1Y-3.2
X5.1Y-4.25
X5.2Y-3.2
X5.2Y-3.3
X5.2Y-3.4
X5.2Y-3.5
X5.2Y-3.6
X5.2Y-3.7
X5.2Y-3.8
X5.2Y-3.9
X5.2Y-4.0
X5.2Y-4.1
X5.2Y-4.25
X5.3Y-4.25
X5.35Y-3.425
X5.4Y-3.2
X5.4Y-4.25
X5.5Y-3.425
X5.5Y-4.25
X5.65Y-4.15
X5.725Y-2.4
X5.75Y-3.3
X5.75Y-4.15
X5.825Y-2.45
X5.85Y-4.15
X5.9Y-3.3
X5.925Y-2.5
X5.95Y-4.15
X6.025Y-2.55
X6.05Y-3.4
X6.05Y-3.6
X6.05Y-3.85
X6.05Y-4.15
X6.1Y-3.3
X6.25Y-3.3
X6.5Y-3.3
X6.5Y-3.7
X6.5Y-4.0
T2
X6.6Y-4.075
X6.8Y-4.075
X6.45Y-2.95
X6.45Y-3.15
X7.575Y-2.975
X7.575Y-3.175
X7.725Y-2.975
X7.725Y-3.175
X6.6Y-3.8
X6.8Y-3.8
X6.025Y-2.95
X6.025Y-3.15
X6.6Y-3.525
X6.8Y-3.525
X6.65Y-3.25
X6.85Y-3.25
X6.175Y-2.95
X6.175Y-3.15
T3
X6.3Y-3.375
X6.3Y-3.45
X6.3Y-3.525
X6.3Y-3.65
X6.3Y-3.725
X6.3Y-3.8
X6.3Y-3.925
X6.3Y-4.0
X6.3Y-4.075
T4
X5.6Y-2.25
X5.6Y-2.75
X5.7Y-2.25
X5.7Y-2.75
X5.8Y-2.25
X5.8Y-2.75
X5.9Y-2.25
X5.9Y-2.75
X6.0Y-2.25
X6.0Y-2.75
X6.1Y-2.25
X6.1Y-2.75
X6.2Y-2.25
X6.2Y-2.75
X6.3Y-2.25
X6.3Y-2.75
X6.4Y-2.25
X6.4Y-2.75
X6.5Y-2.25
X6.5Y-2.75
T5
X7.0Y-2.55
X6.9Y-2.825
X6.9Y-2.925
X7.2Y-2.825
X7.2Y-2.925
X5.725Y-3.425
X5.725Y-3.525
X5.725Y-3.625
X5.725Y-3.725
X5.725Y-3.825
X5.725Y-3.925
X5.725Y-4.025
X7.1Y-2.55
T6
X7.0Y-3.25
X7.1Y-3.25
X7.0Y-3.8
X7.1Y-3.8
X7.0Y-4.075
X7.1Y-4.075
X7.0Y-3.525
X7.1Y-3.525
T7
X6.775Y-2.25
X6.875Y-2.25
X6.975Y-2.25
X7.075Y-2.25
X7.175Y-2.25
X7.275Y-2.25
X7.375Y-2.25
T8
X5.625Y-3.02
X5.625Y-3.12
X5.725Y-3.02
X5.725Y-3.12
X7.6Y-2.725
X7.6Y-2.825
X7.7Y-2.725
X7.7Y-2.825
T9
X7.725Y-3.375
X7.725Y-3.475
X7.725Y-3.575
T10
X7.575Y-3.875
X7.575Y-4.075
T11
X4.4Y-4.4
X7.7Y-4.4
X7.7Y-2.25
X4.4Y-2.25
T0
M30
